<svg width="148" height="148" viewBox="0 0 148 148" fill="none" xmlns="http://www.w3.org/2000/svg">
<g clip-path="url(#clip0_1130_2391)">
<path d="M74 148C114.869 148 148 114.869 148 74C148 33.1309 114.869 0 74 0C33.1309 0 0 33.1309 0 74C0 114.869 33.1309 148 74 148Z" fill="black"/>
<path d="M64.0237 103.392V102.339H54.547V103.392H53.494V104.38H53.416V111.679H53.52C53.598 112.934 54.0205 113.226 55.4699 113.239H58.5248V128.41C58.5248 129.307 58.6418 130.184 59.7923 130.165C60.9428 130.145 61.0468 129.3 61.0468 128.397C61.0468 124.666 61.0468 118.985 61.0468 115.261V113.239H63.6857C65.7851 113.239 66.0516 112.973 66.0516 110.899V103.425L64.0237 103.392Z" fill="#FFAA00"/>
<path d="M92.6213 103.392V102.339H83.1446V103.392H82.0917V104.38H82.0137V111.679H82.1177C82.1956 112.934 82.6181 113.226 84.0676 113.239H87.1225V128.41C87.1225 129.307 87.2395 130.184 88.39 130.165C89.5404 130.145 89.6444 129.3 89.6444 128.397C89.6444 124.666 89.6444 118.985 89.6444 115.261V113.239H92.2833C94.3827 113.239 94.6492 112.973 94.6492 110.899V103.425L92.6213 103.392Z" fill="#FFAA00"/>
<path d="M110.131 39.4277H37.8994C36.2409 39.4277 34.8965 40.7721 34.8965 42.4306V105.563C34.8965 107.221 36.2409 108.566 37.8994 108.566H110.131C111.79 108.566 113.134 107.221 113.134 105.563V42.4306C113.134 40.7721 111.79 39.4277 110.131 39.4277Z" fill="#FFAA00"/>
<path d="M109.385 104.815V43.1846H38.6543L38.8883 104.672L109.385 104.815Z" fill="black"/>
<path d="M74.0007 92.3878C84.5151 92.3878 93.0386 83.8643 93.0386 73.35C93.0386 62.8357 84.5151 54.3121 74.0007 54.3121C63.4864 54.3121 54.9629 62.8357 54.9629 73.35C54.9629 83.8643 63.4864 92.3878 74.0007 92.3878Z" fill="white"/>
<path d="M65.9082 66.9348V63.8539H82.0927V66.9348H75.8204V84.1397H72.174V66.9348H65.9082Z" fill="black"/>
</g>
<defs>
<clipPath id="clip0_1130_2391">
<rect width="148" height="148" fill="white"/>
</clipPath>
</defs>
</svg>
