<svg width="148" height="148" viewBox="0 0 148 148" fill="none" xmlns="http://www.w3.org/2000/svg">
<g clip-path="url(#clip0_1130_2399)">
<path d="M74 148C114.869 148 148 114.869 148 74C148 33.1309 114.869 0 74 0C33.1309 0 0 33.1309 0 74C0 114.869 33.1309 148 74 148Z" fill="black"/>
<path d="M110.112 39.4277H37.8799C36.2214 39.4277 34.877 40.7721 34.877 42.4306V105.563C34.877 107.221 36.2214 108.566 37.8799 108.566H110.112C111.77 108.566 113.115 107.221 113.115 105.563V42.4306C113.115 40.7721 111.77 39.4277 110.112 39.4277Z" fill="#FFAA00"/>
<path d="M109.365 104.815V43.1846H38.6348L38.8688 104.672L109.365 104.815Z" fill="black"/>
<path d="M74.0007 93.0379C84.5151 93.0379 93.0386 84.5143 93.0386 74C93.0386 63.4857 84.5151 54.9622 74.0007 54.9622C63.4864 54.9622 54.9629 63.4857 54.9629 74C54.9629 84.5143 63.4864 93.0379 74.0007 93.0379Z" fill="white"/>
<path d="M82.9375 70.6981H79.2326C79.1407 70.1267 78.9422 69.5778 78.6476 69.0797C78.3714 68.6171 78.0122 68.2095 77.5882 67.8772C77.1568 67.5421 76.6678 67.2888 76.1452 67.1297C75.583 66.9573 74.9978 66.8718 74.4097 66.8762C73.3726 66.8562 72.3527 67.1434 71.4783 67.7017C70.5905 68.2963 69.895 69.1364 69.4764 70.1196C68.5082 72.6294 68.5082 75.4096 69.4764 77.9193C69.8936 78.8982 70.5899 79.7324 71.4783 80.3178C72.3503 80.8631 73.362 81.1431 74.3902 81.1237C74.9686 81.1258 75.5443 81.0449 76.0997 80.8832C76.6167 80.7278 77.1028 80.4837 77.5362 80.1618C77.9653 79.842 78.3311 79.4453 78.6151 78.9918C78.9158 78.5082 79.1231 77.9725 79.2261 77.4124H82.931C82.7923 78.3612 82.4887 79.2785 82.034 80.1228C81.5727 80.97 80.9628 81.7273 80.2335 82.3587C79.4676 83.0162 78.5859 83.5254 77.6336 83.8601C76.5757 84.2336 75.46 84.4163 74.3383 84.3996C72.6632 84.4292 71.0118 84.0023 69.5609 83.1647C68.1388 82.3161 66.9921 81.0747 66.259 79.5898C65.4601 77.8277 65.0469 75.9152 65.0469 73.9805C65.0469 72.0457 65.4601 70.1333 66.259 68.3712C67.003 66.8913 68.1528 65.6537 69.574 64.8028C71.0187 63.9677 72.6632 63.5409 74.3318 63.5679C75.3989 63.5577 76.4609 63.7179 77.4776 64.0423C78.4214 64.3445 79.3024 64.8158 80.0775 65.4333C80.8416 66.051 81.4794 66.8101 81.956 67.6692C82.4714 68.6078 82.8044 69.6356 82.9375 70.6981V70.6981Z" fill="black"/>
</g>
<defs>
<clipPath id="clip0_1130_2399">
<rect width="148" height="148" fill="white"/>
</clipPath>
</defs>
</svg>
