<svg width="500" height="750" viewBox="0 0 500 750" fill="none" xmlns="http://www.w3.org/2000/svg">
<rect width="500" height="750" fill="#F0F0F0"/>
<path d="M35.233 720V709.818H41.3778V710.912H36.4659V714.352H41.0597V715.446H36.4659V718.906H41.4574V720H35.233ZM44.3161 712.364L46.1456 715.486L47.9751 712.364H49.3274L46.8615 716.182L49.3274 720H47.9751L46.1456 717.037L44.3161 720H42.9638L45.3899 716.182L42.9638 712.364H44.3161ZM51.0016 722.864V712.364H52.1351V713.577H52.2743C52.3605 713.444 52.4798 713.275 52.6323 713.07C52.7881 712.861 53.0101 712.675 53.2985 712.513C53.5901 712.347 53.9846 712.264 54.4817 712.264C55.1247 712.264 55.6915 712.425 56.182 712.746C56.6725 713.068 57.0553 713.524 57.3304 714.114C57.6055 714.704 57.7431 715.4 57.7431 716.202C57.7431 717.01 57.6055 717.711 57.3304 718.305C57.0553 718.895 56.6742 719.352 56.187 719.677C55.6998 719.998 55.138 720.159 54.5016 720.159C54.0111 720.159 53.6183 720.078 53.3233 719.915C53.0283 719.75 52.8013 719.562 52.6422 719.354C52.4831 719.142 52.3605 718.966 52.2743 718.827H52.1749V722.864H51.0016ZM52.155 716.182C52.155 716.759 52.2395 717.267 52.4086 717.708C52.5776 718.146 52.8245 718.489 53.1493 718.737C53.4741 718.982 53.8719 719.105 54.3425 719.105C54.833 719.105 55.2424 718.976 55.5705 718.717C55.9019 718.455 56.1505 718.104 56.3162 717.663C56.4853 717.219 56.5698 716.725 56.5698 716.182C56.5698 715.645 56.4869 715.161 56.3212 714.73C56.1588 714.296 55.9119 713.953 55.5804 713.701C55.2523 713.446 54.8397 713.318 54.3425 713.318C53.8652 713.318 53.4642 713.439 53.1394 713.681C52.8146 713.92 52.5693 714.254 52.4036 714.685C52.2379 715.113 52.155 715.612 52.155 716.182ZM61.78 720.179C61.2961 720.179 60.8569 720.088 60.4625 719.906C60.0681 719.72 59.7549 719.453 59.5229 719.105C59.2909 718.754 59.1749 718.33 59.1749 717.832C59.1749 717.395 59.2611 717.04 59.4334 716.768C59.6058 716.493 59.8361 716.278 60.1245 716.122C60.4128 715.966 60.731 715.85 61.079 715.774C61.4303 715.695 61.7833 715.632 62.138 715.585C62.602 715.526 62.9782 715.481 63.2665 715.451C63.5582 715.418 63.7703 715.363 63.9029 715.287C64.0388 715.211 64.1067 715.078 64.1067 714.889V714.849C64.1067 714.359 63.9725 713.978 63.704 713.706C63.4389 713.434 63.0362 713.298 62.4959 713.298C61.9358 713.298 61.4966 713.421 61.1784 713.666C60.8603 713.911 60.6365 714.173 60.5073 714.452L59.3936 714.054C59.5925 713.59 59.8577 713.229 60.1891 712.97C60.5239 712.708 60.8884 712.526 61.2828 712.423C61.6806 712.317 62.0717 712.264 62.4561 712.264C62.7014 712.264 62.9831 712.294 63.3013 712.354C63.6228 712.41 63.9327 712.528 64.231 712.707C64.5326 712.886 64.7828 713.156 64.9817 713.517C65.1806 713.878 65.28 714.362 65.28 714.969V720H64.1067V718.966H64.0471C63.9675 719.132 63.8349 719.309 63.6493 719.498C63.4637 719.687 63.2168 719.848 62.9086 719.98C62.6003 720.113 62.2241 720.179 61.78 720.179ZM61.959 719.125C62.423 719.125 62.8141 719.034 63.1323 718.852C63.4538 718.669 63.6957 718.434 63.8581 718.146C64.0239 717.857 64.1067 717.554 64.1067 717.236V716.162C64.057 716.222 63.9476 716.276 63.7786 716.326C63.6129 716.372 63.4206 716.414 63.2019 716.45C62.9864 716.483 62.776 716.513 62.5705 716.54C62.3683 716.563 62.2042 716.583 62.0783 716.599C61.7734 716.639 61.4883 716.704 61.2232 716.793C60.9614 716.879 60.7492 717.01 60.5868 717.186C60.4277 717.358 60.3482 717.594 60.3482 717.892C60.3482 718.3 60.499 718.608 60.8006 718.817C61.1055 719.022 61.4917 719.125 61.959 719.125ZM68.5948 715.406V720H67.4215V712.364H68.555V713.557H68.6545C68.8335 713.169 69.1052 712.857 69.4698 712.622C69.8344 712.384 70.305 712.264 70.8817 712.264C71.3988 712.264 71.8512 712.37 72.239 712.582C72.6268 712.791 72.9284 713.109 73.1438 713.537C73.3593 713.961 73.467 714.498 73.467 715.148V720H72.2937V715.227C72.2937 714.627 72.1379 714.16 71.8263 713.825C71.5148 713.487 71.0872 713.318 70.5437 713.318C70.1692 713.318 69.8344 713.399 69.5394 713.562C69.2478 713.724 69.0174 713.961 68.8484 714.273C68.6793 714.584 68.5948 714.962 68.5948 715.406ZM78.4945 720.159C77.8581 720.159 77.2963 719.998 76.8091 719.677C76.3219 719.352 75.9408 718.895 75.6657 718.305C75.3906 717.711 75.253 717.01 75.253 716.202C75.253 715.4 75.3906 714.704 75.6657 714.114C75.9408 713.524 76.3236 713.068 76.8141 712.746C77.3046 712.425 77.8714 712.264 78.5144 712.264C79.0115 712.264 79.4043 712.347 79.6926 712.513C79.9843 712.675 80.2064 712.861 80.3588 713.07C80.5146 713.275 80.6356 713.444 80.7218 713.577H80.8212V709.818H81.9945V720H80.861V718.827H80.7218C80.6356 718.966 80.513 719.142 80.3539 719.354C80.1948 719.562 79.9677 719.75 79.6728 719.915C79.3778 720.078 78.985 720.159 78.4945 720.159ZM78.6536 719.105C79.1242 719.105 79.522 718.982 79.8468 718.737C80.1716 718.489 80.4185 718.146 80.5875 717.708C80.7566 717.267 80.8411 716.759 80.8411 716.182C80.8411 715.612 80.7582 715.113 80.5925 714.685C80.4268 714.254 80.1815 713.92 79.8567 713.681C79.5319 713.439 79.1309 713.318 78.6536 713.318C78.1564 713.318 77.7421 713.446 77.4107 713.701C77.0826 713.953 76.8356 714.296 76.6699 714.73C76.5075 715.161 76.4263 715.645 76.4263 716.182C76.4263 716.725 76.5092 717.219 76.6749 717.663C76.8439 718.104 77.0925 718.455 77.4206 718.717C77.7521 718.976 78.1631 719.105 78.6536 719.105ZM87.508 720.159C86.7722 720.159 86.1375 719.997 85.6039 719.672C85.0736 719.344 84.6642 718.886 84.3759 718.3C84.0908 717.71 83.9483 717.024 83.9483 716.241C83.9483 715.459 84.0908 714.77 84.3759 714.173C84.6642 713.573 85.0653 713.106 85.579 712.771C86.0961 712.433 86.6993 712.264 87.3887 712.264C87.7864 712.264 88.1792 712.33 88.5669 712.463C88.9547 712.596 89.3077 712.811 89.6259 713.109C89.9441 713.404 90.1976 713.795 90.3865 714.283C90.5755 714.77 90.6699 715.37 90.6699 716.082V716.58H84.7836V715.565H89.4767C89.4767 715.134 89.3906 714.75 89.2182 714.412C89.0492 714.074 88.8072 713.807 88.4924 713.612C88.1808 713.416 87.8129 713.318 87.3887 713.318C86.9213 713.318 86.517 713.434 86.1756 713.666C85.8375 713.895 85.5774 714.193 85.3951 714.561C85.2128 714.929 85.1216 715.323 85.1216 715.744V716.42C85.1216 716.997 85.2211 717.486 85.4199 717.887C85.6221 718.285 85.9022 718.588 86.2601 718.797C86.6181 719.002 87.034 719.105 87.508 719.105C87.8162 719.105 88.0946 719.062 88.3432 718.976C88.5951 718.886 88.8122 718.754 88.9945 718.578C89.1768 718.399 89.3176 718.177 89.4171 717.912L90.5506 718.23C90.4313 718.615 90.2308 718.953 89.949 719.244C89.6673 719.533 89.3193 719.758 88.905 719.92C88.4907 720.08 88.025 720.159 87.508 720.159ZM95.3382 720.159C94.7019 720.159 94.1401 719.998 93.6529 719.677C93.1657 719.352 92.7845 718.895 92.5094 718.305C92.2343 717.711 92.0968 717.01 92.0968 716.202C92.0968 715.4 92.2343 714.704 92.5094 714.114C92.7845 713.524 93.1673 713.068 93.6578 712.746C94.1484 712.425 94.7151 712.264 95.3581 712.264C95.8553 712.264 96.248 712.347 96.5364 712.513C96.8281 712.675 97.0501 712.861 97.2026 713.07C97.3584 713.275 97.4793 713.444 97.5655 713.577H97.665V709.818H98.8382V720H97.7047V718.827H97.5655C97.4793 718.966 97.3567 719.142 97.1976 719.354C97.0385 719.562 96.8115 719.75 96.5165 719.915C96.2215 720.078 95.8288 720.159 95.3382 720.159ZM95.4973 719.105C95.968 719.105 96.3657 718.982 96.6905 718.737C97.0153 718.489 97.2623 718.146 97.4313 717.708C97.6003 717.267 97.6848 716.759 97.6848 716.182C97.6848 715.612 97.602 715.113 97.4363 714.685C97.2705 714.254 97.0253 713.92 96.7005 713.681C96.3757 713.439 95.9746 713.318 95.4973 713.318C95.0002 713.318 94.5859 713.446 94.2544 713.701C93.9263 713.953 93.6794 714.296 93.5137 714.73C93.3513 715.161 93.2701 715.645 93.2701 716.182C93.2701 716.725 93.3529 717.219 93.5186 717.663C93.6877 718.104 93.9363 718.455 94.2644 718.717C94.5958 718.976 95.0068 719.105 95.4973 719.105ZM108.409 712.364V713.358H104.451V712.364H108.409ZM105.605 710.534H106.778V717.812C106.778 718.144 106.826 718.393 106.922 718.558C107.021 718.721 107.147 718.83 107.3 718.886C107.456 718.939 107.62 718.966 107.792 718.966C107.921 718.966 108.027 718.959 108.11 718.946C108.193 718.929 108.259 718.916 108.309 718.906L108.548 719.96C108.468 719.99 108.357 720.02 108.215 720.05C108.072 720.083 107.892 720.099 107.673 720.099C107.341 720.099 107.017 720.028 106.698 719.886C106.383 719.743 106.122 719.526 105.913 719.234C105.707 718.943 105.605 718.575 105.605 718.131V710.534ZM113.293 720.159C112.557 720.159 111.923 719.997 111.389 719.672C110.859 719.344 110.449 718.886 110.161 718.3C109.876 717.71 109.733 717.024 109.733 716.241C109.733 715.459 109.876 714.77 110.161 714.173C110.449 713.573 110.85 713.106 111.364 712.771C111.881 712.433 112.484 712.264 113.174 712.264C113.572 712.264 113.964 712.33 114.352 712.463C114.74 712.596 115.093 712.811 115.411 713.109C115.729 713.404 115.983 713.795 116.172 714.283C116.361 714.77 116.455 715.37 116.455 716.082V716.58H110.569V715.565H115.262C115.262 715.134 115.176 714.75 115.003 714.412C114.834 714.074 114.592 713.807 114.278 713.612C113.966 713.416 113.598 713.318 113.174 713.318C112.706 713.318 112.302 713.434 111.961 713.666C111.623 713.895 111.363 714.193 111.18 714.561C110.998 714.929 110.907 715.323 110.907 715.744V716.42C110.907 716.997 111.006 717.486 111.205 717.887C111.407 718.285 111.687 718.588 112.045 718.797C112.403 719.002 112.819 719.105 113.293 719.105C113.601 719.105 113.88 719.062 114.128 718.976C114.38 718.886 114.597 718.754 114.78 718.578C114.962 718.399 115.103 718.177 115.202 717.912L116.336 718.23C116.216 718.615 116.016 718.953 115.734 719.244C115.452 719.533 115.104 719.758 114.69 719.92C114.276 720.08 113.81 720.159 113.293 720.159ZM121.342 720.159C120.626 720.159 120.01 719.99 119.493 719.652C118.976 719.314 118.578 718.848 118.3 718.255C118.021 717.662 117.882 716.984 117.882 716.222C117.882 715.446 118.024 714.762 118.309 714.168C118.598 713.572 118.999 713.106 119.513 712.771C120.03 712.433 120.633 712.264 121.322 712.264C121.859 712.264 122.343 712.364 122.774 712.562C123.205 712.761 123.558 713.04 123.833 713.398C124.108 713.756 124.279 714.173 124.345 714.651H123.172C123.082 714.303 122.883 713.994 122.575 713.726C122.27 713.454 121.859 713.318 121.342 713.318C120.885 713.318 120.484 713.437 120.139 713.676C119.798 713.911 119.531 714.245 119.339 714.675C119.15 715.103 119.055 715.605 119.055 716.182C119.055 716.772 119.148 717.286 119.334 717.723C119.523 718.161 119.788 718.5 120.129 718.742C120.474 718.984 120.878 719.105 121.342 719.105C121.647 719.105 121.924 719.052 122.172 718.946C122.421 718.84 122.631 718.688 122.804 718.489C122.976 718.29 123.099 718.051 123.172 717.773H124.345C124.279 718.223 124.115 718.629 123.853 718.991C123.594 719.349 123.251 719.634 122.824 719.846C122.399 720.055 121.906 720.159 121.342 720.159ZM127.233 715.406V720H126.06V709.818H127.233V713.557H127.333C127.512 713.162 127.78 712.849 128.138 712.617C128.5 712.382 128.98 712.264 129.58 712.264C130.1 712.264 130.556 712.369 130.947 712.577C131.338 712.783 131.642 713.099 131.857 713.527C132.076 713.951 132.185 714.491 132.185 715.148V720H131.012V715.227C131.012 714.621 130.854 714.152 130.54 713.82C130.228 713.486 129.796 713.318 129.242 713.318C128.858 713.318 128.513 713.399 128.208 713.562C127.906 713.724 127.668 713.961 127.492 714.273C127.32 714.584 127.233 714.962 127.233 715.406ZM143.678 714.074L142.624 714.372C142.558 714.196 142.46 714.026 142.331 713.86C142.205 713.691 142.033 713.552 141.814 713.442C141.595 713.333 141.315 713.278 140.974 713.278C140.506 713.278 140.117 713.386 139.805 713.602C139.497 713.814 139.343 714.084 139.343 714.412C139.343 714.704 139.449 714.934 139.661 715.103C139.873 715.272 140.205 715.413 140.656 715.526L141.789 715.804C142.472 715.97 142.981 716.223 143.315 716.565C143.65 716.903 143.817 717.339 143.817 717.872C143.817 718.31 143.692 718.701 143.44 719.045C143.191 719.39 142.843 719.662 142.396 719.861C141.948 720.06 141.428 720.159 140.835 720.159C140.056 720.159 139.411 719.99 138.901 719.652C138.39 719.314 138.067 718.82 137.931 718.17L139.045 717.892C139.151 718.303 139.351 718.611 139.646 718.817C139.945 719.022 140.334 719.125 140.815 719.125C141.362 719.125 141.796 719.009 142.117 718.777C142.442 718.542 142.604 718.26 142.604 717.932C142.604 717.667 142.512 717.445 142.326 717.266C142.14 717.083 141.855 716.947 141.471 716.858L140.198 716.56C139.499 716.394 138.985 716.137 138.657 715.789C138.332 715.438 138.17 714.999 138.17 714.472C138.17 714.041 138.291 713.66 138.533 713.328C138.778 712.997 139.111 712.737 139.532 712.548C139.956 712.359 140.437 712.264 140.974 712.264C141.729 712.264 142.323 712.43 142.754 712.761C143.188 713.093 143.496 713.53 143.678 714.074ZM148.905 712.364V713.358H144.947V712.364H148.905ZM146.101 710.534H147.274V717.812C147.274 718.144 147.322 718.393 147.418 718.558C147.518 718.721 147.644 718.83 147.796 718.886C147.952 718.939 148.116 718.966 148.288 718.966C148.417 718.966 148.523 718.959 148.606 718.946C148.689 718.929 148.756 718.916 148.805 718.906L149.044 719.96C148.964 719.99 148.853 720.02 148.711 720.05C148.568 720.083 148.388 720.099 148.169 720.099C147.837 720.099 147.513 720.028 147.194 719.886C146.88 719.743 146.618 719.526 146.409 719.234C146.203 718.943 146.101 718.575 146.101 718.131V710.534ZM152.917 720.179C152.433 720.179 151.994 720.088 151.599 719.906C151.205 719.72 150.892 719.453 150.66 719.105C150.428 718.754 150.312 718.33 150.312 717.832C150.312 717.395 150.398 717.04 150.57 716.768C150.742 716.493 150.973 716.278 151.261 716.122C151.55 715.966 151.868 715.85 152.216 715.774C152.567 715.695 152.92 715.632 153.275 715.585C153.739 715.526 154.115 715.481 154.403 715.451C154.695 715.418 154.907 715.363 155.04 715.287C155.175 715.211 155.243 715.078 155.243 714.889V714.849C155.243 714.359 155.109 713.978 154.841 713.706C154.576 713.434 154.173 713.298 153.633 713.298C153.073 713.298 152.633 713.421 152.315 713.666C151.997 713.911 151.773 714.173 151.644 714.452L150.53 714.054C150.729 713.59 150.994 713.229 151.326 712.97C151.661 712.708 152.025 712.526 152.42 712.423C152.817 712.317 153.208 712.264 153.593 712.264C153.838 712.264 154.12 712.294 154.438 712.354C154.76 712.41 155.069 712.528 155.368 712.707C155.669 712.886 155.92 713.156 156.118 713.517C156.317 713.878 156.417 714.362 156.417 714.969V720H155.243V718.966H155.184C155.104 719.132 154.972 719.309 154.786 719.498C154.6 719.687 154.354 719.848 154.045 719.98C153.737 720.113 153.361 720.179 152.917 720.179ZM153.096 719.125C153.56 719.125 153.951 719.034 154.269 718.852C154.59 718.669 154.832 718.434 154.995 718.146C155.161 717.857 155.243 717.554 155.243 717.236V716.162C155.194 716.222 155.084 716.276 154.915 716.326C154.75 716.372 154.557 716.414 154.339 716.45C154.123 716.483 153.913 716.513 153.707 716.54C153.505 716.563 153.341 716.583 153.215 716.599C152.91 716.639 152.625 716.704 152.36 716.793C152.098 716.879 151.886 717.01 151.724 717.186C151.564 717.358 151.485 717.594 151.485 717.892C151.485 718.3 151.636 718.608 151.937 718.817C152.242 719.022 152.628 719.125 153.096 719.125ZM161.661 720.159C160.945 720.159 160.328 719.99 159.811 719.652C159.294 719.314 158.896 718.848 158.618 718.255C158.339 717.662 158.2 716.984 158.2 716.222C158.2 715.446 158.343 714.762 158.628 714.168C158.916 713.572 159.317 713.106 159.831 712.771C160.348 712.433 160.951 712.264 161.641 712.264C162.178 712.264 162.661 712.364 163.092 712.562C163.523 712.761 163.876 713.04 164.151 713.398C164.426 713.756 164.597 714.173 164.663 714.651H163.49C163.401 714.303 163.202 713.994 162.893 713.726C162.589 713.454 162.178 713.318 161.661 713.318C161.203 713.318 160.802 713.437 160.457 713.676C160.116 713.911 159.849 714.245 159.657 714.675C159.468 715.103 159.374 715.605 159.374 716.182C159.374 716.772 159.466 717.286 159.652 717.723C159.841 718.161 160.106 718.5 160.447 718.742C160.792 718.984 161.196 719.105 161.661 719.105C161.965 719.105 162.242 719.052 162.491 718.946C162.739 718.84 162.95 718.688 163.122 718.489C163.295 718.29 163.417 718.051 163.49 717.773H164.663C164.597 718.223 164.433 718.629 164.171 718.991C163.913 719.349 163.57 719.634 163.142 719.846C162.718 720.055 162.224 720.159 161.661 720.159ZM167.472 717.216L167.452 715.764H167.691L171.032 712.364H172.484L168.924 715.963H168.825L167.472 717.216ZM166.379 720V709.818H167.552V720H166.379ZM171.231 720L168.248 716.222L169.083 715.406L172.722 720H171.231Z" fill="black"/>
<rect x="96" y="497" width="32" height="63" fill="#D9D9D9"/>
<rect x="136" y="497" width="32" height="63" fill="#D9D9D9"/>
<rect x="175" y="497" width="32" height="63" fill="#D9D9D9"/>
<rect x="216" y="497" width="32" height="63" fill="#D9D9D9"/>
<rect x="254" y="497" width="33" height="63" fill="#D9D9D9"/>
<rect x="294" y="497" width="32" height="63" fill="#D9D9D9"/>
<rect x="333" y="497" width="33" height="63" fill="#D9D9D9"/>
<rect x="374" y="497" width="32" height="63" fill="#D9D9D9"/>
<rect x="96" y="187" width="310" height="243" fill="#FF8300"/>
<rect x="96" y="84" width="310" height="44" fill="white"/>
<path d="M205.847 112H203.984L208.171 100.364H210.2L214.387 112H212.523L209.234 102.477H209.143L205.847 112ZM206.16 107.443H212.205V108.92H206.16V107.443ZM215.931 115.273V103.273H217.59V104.688H217.732C217.831 104.506 217.973 104.295 218.158 104.057C218.344 103.818 218.602 103.61 218.931 103.432C219.261 103.25 219.696 103.159 220.238 103.159C220.942 103.159 221.571 103.337 222.124 103.693C222.677 104.049 223.111 104.562 223.425 105.233C223.744 105.903 223.903 106.71 223.903 107.653C223.903 108.597 223.746 109.405 223.431 110.08C223.117 110.75 222.685 111.267 222.136 111.631C221.586 111.991 220.96 112.17 220.255 112.17C219.725 112.17 219.291 112.081 218.954 111.903C218.621 111.725 218.359 111.517 218.17 111.278C217.98 111.04 217.835 110.828 217.732 110.642H217.63V115.273H215.931ZM217.596 107.636C217.596 108.25 217.685 108.788 217.863 109.25C218.041 109.712 218.299 110.074 218.636 110.335C218.973 110.593 219.386 110.722 219.874 110.722C220.382 110.722 220.806 110.587 221.147 110.318C221.488 110.045 221.746 109.676 221.92 109.21C222.098 108.744 222.187 108.22 222.187 107.636C222.187 107.061 222.1 106.544 221.925 106.085C221.755 105.627 221.497 105.265 221.153 105C220.812 104.735 220.386 104.602 219.874 104.602C219.382 104.602 218.965 104.729 218.624 104.983C218.287 105.237 218.031 105.591 217.857 106.045C217.683 106.5 217.596 107.03 217.596 107.636ZM225.806 115.273V103.273H227.465V104.688H227.607C227.706 104.506 227.848 104.295 228.033 104.057C228.219 103.818 228.477 103.61 228.806 103.432C229.136 103.25 229.571 103.159 230.113 103.159C230.817 103.159 231.446 103.337 231.999 103.693C232.552 104.049 232.986 104.562 233.3 105.233C233.619 105.903 233.778 106.71 233.778 107.653C233.778 108.597 233.621 109.405 233.306 110.08C232.992 110.75 232.56 111.267 232.011 111.631C231.461 111.991 230.835 112.17 230.13 112.17C229.6 112.17 229.166 112.081 228.829 111.903C228.496 111.725 228.234 111.517 228.045 111.278C227.855 111.04 227.71 110.828 227.607 110.642H227.505V115.273H225.806ZM227.471 107.636C227.471 108.25 227.56 108.788 227.738 109.25C227.916 109.712 228.174 110.074 228.511 110.335C228.848 110.593 229.261 110.722 229.749 110.722C230.257 110.722 230.681 110.587 231.022 110.318C231.363 110.045 231.621 109.676 231.795 109.21C231.973 108.744 232.062 108.22 232.062 107.636C232.062 107.061 231.975 106.544 231.8 106.085C231.63 105.627 231.372 105.265 231.028 105C230.687 104.735 230.261 104.602 229.749 104.602C229.257 104.602 228.84 104.729 228.499 104.983C228.162 105.237 227.906 105.591 227.732 106.045C227.558 106.5 227.471 107.03 227.471 107.636ZM237.38 100.364V112H235.681V100.364H237.38ZM239.665 112V103.273H241.364V112H239.665ZM240.523 101.926C240.228 101.926 239.974 101.828 239.762 101.631C239.554 101.43 239.45 101.191 239.45 100.915C239.45 100.634 239.554 100.396 239.762 100.199C239.974 99.9981 240.228 99.8977 240.523 99.8977C240.819 99.8977 241.071 99.9981 241.279 100.199C241.491 100.396 241.597 100.634 241.597 100.915C241.597 101.191 241.491 101.43 241.279 101.631C241.071 101.828 240.819 101.926 240.523 101.926ZM247.326 112.176C246.481 112.176 245.754 111.985 245.144 111.602C244.538 111.216 244.072 110.684 243.746 110.006C243.421 109.328 243.258 108.551 243.258 107.676C243.258 106.79 243.424 106.008 243.758 105.33C244.091 104.648 244.561 104.116 245.167 103.733C245.773 103.35 246.487 103.159 247.309 103.159C247.972 103.159 248.563 103.282 249.082 103.528C249.601 103.771 250.019 104.112 250.337 104.551C250.659 104.991 250.851 105.504 250.911 106.091H249.258C249.167 105.682 248.959 105.33 248.633 105.034C248.311 104.739 247.879 104.591 247.337 104.591C246.864 104.591 246.449 104.716 246.093 104.966C245.741 105.212 245.466 105.564 245.269 106.023C245.072 106.477 244.974 107.015 244.974 107.636C244.974 108.273 245.07 108.822 245.263 109.284C245.457 109.746 245.729 110.104 246.082 110.358C246.438 110.612 246.856 110.739 247.337 110.739C247.659 110.739 247.951 110.68 248.212 110.562C248.478 110.441 248.699 110.269 248.877 110.045C249.059 109.822 249.186 109.553 249.258 109.239H250.911C250.851 109.803 250.667 110.307 250.36 110.75C250.053 111.193 249.642 111.542 249.127 111.795C248.616 112.049 248.015 112.176 247.326 112.176ZM255.268 112.193C254.715 112.193 254.215 112.091 253.768 111.886C253.321 111.678 252.967 111.377 252.705 110.983C252.448 110.589 252.319 110.106 252.319 109.534C252.319 109.042 252.414 108.636 252.603 108.318C252.792 108 253.048 107.748 253.37 107.562C253.692 107.377 254.052 107.237 254.45 107.142C254.847 107.047 255.253 106.975 255.665 106.926C256.188 106.866 256.612 106.816 256.938 106.778C257.264 106.737 257.501 106.67 257.648 106.58C257.796 106.489 257.87 106.341 257.87 106.136V106.097C257.87 105.6 257.73 105.216 257.45 104.943C257.173 104.67 256.76 104.534 256.211 104.534C255.639 104.534 255.188 104.661 254.859 104.915C254.533 105.165 254.308 105.443 254.183 105.75L252.586 105.386C252.775 104.856 253.052 104.428 253.415 104.102C253.783 103.773 254.205 103.534 254.683 103.386C255.16 103.235 255.662 103.159 256.188 103.159C256.537 103.159 256.906 103.201 257.296 103.284C257.69 103.364 258.058 103.511 258.398 103.727C258.743 103.943 259.025 104.252 259.245 104.653C259.465 105.051 259.575 105.568 259.575 106.205V112H257.915V110.807H257.847C257.737 111.027 257.573 111.242 257.353 111.455C257.133 111.667 256.851 111.843 256.506 111.983C256.162 112.123 255.749 112.193 255.268 112.193ZM255.637 110.83C256.107 110.83 256.508 110.737 256.842 110.551C257.179 110.366 257.434 110.123 257.609 109.824C257.787 109.521 257.876 109.197 257.876 108.852V107.727C257.815 107.788 257.698 107.845 257.523 107.898C257.353 107.947 257.158 107.991 256.938 108.028C256.719 108.062 256.504 108.095 256.296 108.125C256.088 108.152 255.914 108.174 255.773 108.193C255.444 108.235 255.143 108.305 254.87 108.403C254.601 108.502 254.385 108.644 254.222 108.83C254.063 109.011 253.984 109.254 253.984 109.557C253.984 109.977 254.139 110.295 254.45 110.511C254.76 110.723 255.156 110.83 255.637 110.83ZM265.911 103.273V104.636H261.144V103.273H265.911ZM262.423 101.182H264.121V109.438C264.121 109.767 264.171 110.015 264.269 110.182C264.368 110.345 264.495 110.456 264.65 110.517C264.809 110.574 264.981 110.602 265.167 110.602C265.303 110.602 265.423 110.593 265.525 110.574C265.627 110.555 265.707 110.54 265.763 110.528L266.07 111.932C265.972 111.97 265.832 112.008 265.65 112.045C265.468 112.087 265.241 112.11 264.968 112.114C264.521 112.121 264.104 112.042 263.718 111.875C263.332 111.708 263.019 111.451 262.781 111.102C262.542 110.754 262.423 110.316 262.423 109.79V101.182ZM267.79 112V103.273H269.489V112H267.79ZM268.648 101.926C268.353 101.926 268.099 101.828 267.887 101.631C267.679 101.43 267.575 101.191 267.575 100.915C267.575 100.634 267.679 100.396 267.887 100.199C268.099 99.9981 268.353 99.8977 268.648 99.8977C268.944 99.8977 269.196 99.9981 269.404 100.199C269.616 100.396 269.722 100.634 269.722 100.915C269.722 101.191 269.616 101.43 269.404 101.631C269.196 101.828 268.944 101.926 268.648 101.926ZM275.451 112.176C274.633 112.176 273.919 111.989 273.309 111.614C272.699 111.239 272.226 110.714 271.888 110.04C271.551 109.366 271.383 108.578 271.383 107.676C271.383 106.771 271.551 105.979 271.888 105.301C272.226 104.623 272.699 104.097 273.309 103.722C273.919 103.347 274.633 103.159 275.451 103.159C276.269 103.159 276.983 103.347 277.593 103.722C278.203 104.097 278.676 104.623 279.013 105.301C279.351 105.979 279.519 106.771 279.519 107.676C279.519 108.578 279.351 109.366 279.013 110.04C278.676 110.714 278.203 111.239 277.593 111.614C276.983 111.989 276.269 112.176 275.451 112.176ZM275.457 110.75C275.987 110.75 276.426 110.61 276.775 110.33C277.123 110.049 277.381 109.676 277.548 109.21C277.718 108.744 277.803 108.231 277.803 107.67C277.803 107.114 277.718 106.602 277.548 106.136C277.381 105.667 277.123 105.29 276.775 105.006C276.426 104.722 275.987 104.58 275.457 104.58C274.923 104.58 274.479 104.722 274.127 105.006C273.779 105.29 273.519 105.667 273.349 106.136C273.182 106.602 273.099 107.114 273.099 107.67C273.099 108.231 273.182 108.744 273.349 109.21C273.519 109.676 273.779 110.049 274.127 110.33C274.479 110.61 274.923 110.75 275.457 110.75ZM283.114 106.818V112H281.415V103.273H283.046V104.693H283.154C283.355 104.231 283.669 103.86 284.097 103.58C284.529 103.299 285.073 103.159 285.728 103.159C286.323 103.159 286.844 103.284 287.29 103.534C287.737 103.78 288.084 104.148 288.33 104.636C288.576 105.125 288.7 105.729 288.7 106.449V112H287.001V106.653C287.001 106.021 286.836 105.527 286.506 105.17C286.177 104.811 285.724 104.631 285.148 104.631C284.754 104.631 284.404 104.716 284.097 104.886C283.794 105.057 283.554 105.307 283.376 105.636C283.201 105.962 283.114 106.356 283.114 106.818ZM297.518 105.403L295.978 105.676C295.914 105.479 295.811 105.292 295.671 105.114C295.535 104.936 295.349 104.79 295.114 104.676C294.879 104.562 294.586 104.506 294.234 104.506C293.753 104.506 293.351 104.614 293.029 104.83C292.707 105.042 292.546 105.316 292.546 105.653C292.546 105.945 292.654 106.18 292.87 106.358C293.086 106.536 293.434 106.682 293.915 106.795L295.302 107.114C296.105 107.299 296.703 107.585 297.097 107.972C297.491 108.358 297.688 108.86 297.688 109.477C297.688 110 297.537 110.466 297.234 110.875C296.934 111.28 296.516 111.598 295.978 111.83C295.444 112.061 294.825 112.176 294.12 112.176C293.143 112.176 292.345 111.968 291.728 111.551C291.111 111.131 290.732 110.534 290.592 109.761L292.234 109.511C292.336 109.939 292.546 110.263 292.864 110.483C293.183 110.699 293.597 110.807 294.109 110.807C294.665 110.807 295.111 110.691 295.444 110.46C295.777 110.225 295.944 109.939 295.944 109.602C295.944 109.33 295.842 109.1 295.637 108.915C295.436 108.729 295.128 108.589 294.711 108.494L293.234 108.17C292.419 107.985 291.817 107.689 291.427 107.284C291.04 106.879 290.847 106.366 290.847 105.744C290.847 105.229 290.991 104.778 291.279 104.392C291.567 104.006 291.965 103.705 292.472 103.489C292.98 103.269 293.561 103.159 294.217 103.159C295.16 103.159 295.902 103.364 296.444 103.773C296.986 104.178 297.344 104.722 297.518 105.403Z" fill="black"/>
<rect x="113" y="205" width="277" height="44" fill="white"/>
<path d="M231.597 233H229.734L233.921 221.364H235.95L240.137 233H238.273L234.984 223.477H234.893L231.597 233ZM231.91 228.443H237.955V229.92H231.91V228.443ZM241.817 233V221.364H245.965C246.871 221.364 247.621 221.528 248.215 221.858C248.81 222.187 249.255 222.638 249.55 223.21C249.846 223.778 249.994 224.419 249.994 225.131C249.994 225.847 249.844 226.491 249.545 227.062C249.249 227.631 248.802 228.081 248.204 228.415C247.609 228.744 246.861 228.909 245.96 228.909H243.107V227.42H245.8C246.372 227.42 246.836 227.322 247.192 227.125C247.549 226.924 247.81 226.652 247.977 226.307C248.143 225.962 248.227 225.57 248.227 225.131C248.227 224.691 248.143 224.301 247.977 223.96C247.81 223.619 247.547 223.352 247.187 223.159C246.831 222.966 246.361 222.869 245.778 222.869H243.573V233H241.817ZM253.808 221.364V233H252.052V221.364H253.808ZM262.768 226.403L261.228 226.676C261.164 226.479 261.061 226.292 260.921 226.114C260.785 225.936 260.599 225.79 260.364 225.676C260.129 225.562 259.836 225.506 259.484 225.506C259.003 225.506 258.601 225.614 258.279 225.83C257.957 226.042 257.796 226.316 257.796 226.653C257.796 226.945 257.904 227.18 258.12 227.358C258.336 227.536 258.684 227.682 259.165 227.795L260.552 228.114C261.355 228.299 261.953 228.585 262.347 228.972C262.741 229.358 262.938 229.86 262.938 230.477C262.938 231 262.787 231.466 262.484 231.875C262.184 232.28 261.766 232.598 261.228 232.83C260.694 233.061 260.075 233.176 259.37 233.176C258.393 233.176 257.595 232.968 256.978 232.551C256.361 232.131 255.982 231.534 255.842 230.761L257.484 230.511C257.586 230.939 257.796 231.263 258.114 231.483C258.433 231.699 258.847 231.807 259.359 231.807C259.915 231.807 260.361 231.691 260.694 231.46C261.027 231.225 261.194 230.939 261.194 230.602C261.194 230.33 261.092 230.1 260.887 229.915C260.686 229.729 260.378 229.589 259.961 229.494L258.484 229.17C257.669 228.985 257.067 228.689 256.677 228.284C256.29 227.879 256.097 227.366 256.097 226.744C256.097 226.229 256.241 225.778 256.529 225.392C256.817 225.006 257.215 224.705 257.722 224.489C258.23 224.269 258.811 224.159 259.467 224.159C260.41 224.159 261.152 224.364 261.694 224.773C262.236 225.178 262.594 225.722 262.768 226.403Z" fill="black"/>
<rect x="113" y="286" width="277" height="44" fill="white"/>
<path d="M177.2 313V301.364H181.462C182.287 301.364 182.971 301.5 183.513 301.773C184.054 302.042 184.46 302.407 184.729 302.869C184.998 303.328 185.132 303.845 185.132 304.42C185.132 304.905 185.043 305.314 184.865 305.648C184.687 305.977 184.448 306.242 184.149 306.443C183.854 306.64 183.528 306.784 183.172 306.875V306.989C183.558 307.008 183.935 307.133 184.303 307.364C184.674 307.591 184.981 307.915 185.223 308.335C185.465 308.756 185.587 309.267 185.587 309.869C185.587 310.464 185.446 310.998 185.166 311.472C184.89 311.941 184.462 312.314 183.882 312.591C183.303 312.864 182.562 313 181.661 313H177.2ZM178.956 311.494H181.49C182.331 311.494 182.933 311.331 183.297 311.006C183.661 310.68 183.842 310.273 183.842 309.784C183.842 309.417 183.75 309.08 183.564 308.773C183.378 308.466 183.113 308.222 182.768 308.04C182.428 307.858 182.022 307.767 181.553 307.767H178.956V311.494ZM178.956 306.398H181.308C181.702 306.398 182.056 306.322 182.371 306.17C182.689 306.019 182.941 305.807 183.126 305.534C183.316 305.258 183.411 304.932 183.411 304.557C183.411 304.076 183.242 303.672 182.905 303.347C182.568 303.021 182.051 302.858 181.354 302.858H178.956V306.398ZM189.232 301.364V313H187.533V301.364H189.232ZM195.193 313.176C194.375 313.176 193.661 312.989 193.051 312.614C192.441 312.239 191.968 311.714 191.631 311.04C191.294 310.366 191.125 309.578 191.125 308.676C191.125 307.771 191.294 306.979 191.631 306.301C191.968 305.623 192.441 305.097 193.051 304.722C193.661 304.347 194.375 304.159 195.193 304.159C196.011 304.159 196.725 304.347 197.335 304.722C197.945 305.097 198.419 305.623 198.756 306.301C199.093 306.979 199.261 307.771 199.261 308.676C199.261 309.578 199.093 310.366 198.756 311.04C198.419 311.714 197.945 312.239 197.335 312.614C196.725 312.989 196.011 313.176 195.193 313.176ZM195.199 311.75C195.729 311.75 196.169 311.61 196.517 311.33C196.866 311.049 197.123 310.676 197.29 310.21C197.46 309.744 197.545 309.231 197.545 308.67C197.545 308.114 197.46 307.602 197.29 307.136C197.123 306.667 196.866 306.29 196.517 306.006C196.169 305.722 195.729 305.58 195.199 305.58C194.665 305.58 194.222 305.722 193.869 306.006C193.521 306.29 193.261 306.667 193.091 307.136C192.924 307.602 192.841 308.114 192.841 308.67C192.841 309.231 192.924 309.744 193.091 310.21C193.261 310.676 193.521 311.049 193.869 311.33C194.222 311.61 194.665 311.75 195.199 311.75ZM204.834 313.176C203.989 313.176 203.262 312.985 202.652 312.602C202.046 312.216 201.58 311.684 201.254 311.006C200.929 310.328 200.766 309.551 200.766 308.676C200.766 307.79 200.932 307.008 201.266 306.33C201.599 305.648 202.069 305.116 202.675 304.733C203.281 304.35 203.995 304.159 204.817 304.159C205.48 304.159 206.071 304.282 206.589 304.528C207.108 304.771 207.527 305.112 207.845 305.551C208.167 305.991 208.358 306.504 208.419 307.091H206.766C206.675 306.682 206.466 306.33 206.141 306.034C205.819 305.739 205.387 305.591 204.845 305.591C204.372 305.591 203.957 305.716 203.601 305.966C203.249 306.212 202.974 306.564 202.777 307.023C202.58 307.477 202.482 308.015 202.482 308.636C202.482 309.273 202.578 309.822 202.771 310.284C202.964 310.746 203.237 311.104 203.589 311.358C203.946 311.612 204.364 311.739 204.845 311.739C205.167 311.739 205.459 311.68 205.72 311.562C205.985 311.441 206.207 311.269 206.385 311.045C206.567 310.822 206.694 310.553 206.766 310.239H208.419C208.358 310.803 208.175 311.307 207.868 311.75C207.561 312.193 207.15 312.542 206.635 312.795C206.124 313.049 205.523 313.176 204.834 313.176ZM211.798 310.04L211.787 307.966H212.082L215.56 304.273H217.594L213.628 308.477H213.361L211.798 310.04ZM210.236 313V301.364H211.935V313H210.236ZM215.747 313L212.622 308.852L213.793 307.665L217.832 313H215.747ZM222.459 313.176C221.614 313.176 220.887 312.985 220.277 312.602C219.671 312.216 219.205 311.684 218.879 311.006C218.554 310.328 218.391 309.551 218.391 308.676C218.391 307.79 218.557 307.008 218.891 306.33C219.224 305.648 219.694 305.116 220.3 304.733C220.906 304.35 221.62 304.159 222.442 304.159C223.105 304.159 223.696 304.282 224.214 304.528C224.733 304.771 225.152 305.112 225.47 305.551C225.792 305.991 225.983 306.504 226.044 307.091H224.391C224.3 306.682 224.091 306.33 223.766 306.034C223.444 305.739 223.012 305.591 222.47 305.591C221.997 305.591 221.582 305.716 221.226 305.966C220.874 306.212 220.599 306.564 220.402 307.023C220.205 307.477 220.107 308.015 220.107 308.636C220.107 309.273 220.203 309.822 220.396 310.284C220.589 310.746 220.862 311.104 221.214 311.358C221.571 311.612 221.989 311.739 222.47 311.739C222.792 311.739 223.084 311.68 223.345 311.562C223.61 311.441 223.832 311.269 224.01 311.045C224.192 310.822 224.319 310.553 224.391 310.239H226.044C225.983 310.803 225.8 311.307 225.493 311.75C225.186 312.193 224.775 312.542 224.26 312.795C223.749 313.049 223.148 313.176 222.459 313.176ZM229.56 307.818V313H227.861V301.364H229.537V305.693H229.645C229.849 305.223 230.162 304.85 230.582 304.574C231.003 304.297 231.552 304.159 232.23 304.159C232.829 304.159 233.351 304.282 233.798 304.528C234.249 304.775 234.598 305.142 234.844 305.631C235.094 306.116 235.219 306.722 235.219 307.449V313H233.52V307.653C233.52 307.013 233.355 306.517 233.026 306.165C232.696 305.809 232.238 305.631 231.651 305.631C231.249 305.631 230.889 305.716 230.571 305.886C230.257 306.057 230.009 306.307 229.827 306.636C229.649 306.962 229.56 307.356 229.56 307.818ZM240.026 313.193C239.473 313.193 238.973 313.091 238.526 312.886C238.079 312.678 237.724 312.377 237.463 311.983C237.205 311.589 237.077 311.106 237.077 310.534C237.077 310.042 237.171 309.636 237.361 309.318C237.55 309 237.806 308.748 238.128 308.562C238.45 308.377 238.81 308.237 239.207 308.142C239.605 308.047 240.01 307.975 240.423 307.926C240.946 307.866 241.37 307.816 241.696 307.778C242.022 307.737 242.259 307.67 242.406 307.58C242.554 307.489 242.628 307.341 242.628 307.136V307.097C242.628 306.6 242.488 306.216 242.207 305.943C241.931 305.67 241.518 305.534 240.969 305.534C240.397 305.534 239.946 305.661 239.616 305.915C239.291 306.165 239.065 306.443 238.94 306.75L237.344 306.386C237.533 305.856 237.81 305.428 238.173 305.102C238.541 304.773 238.963 304.534 239.44 304.386C239.918 304.235 240.42 304.159 240.946 304.159C241.295 304.159 241.664 304.201 242.054 304.284C242.448 304.364 242.815 304.511 243.156 304.727C243.501 304.943 243.783 305.252 244.003 305.653C244.223 306.051 244.332 306.568 244.332 307.205V313H242.673V311.807H242.605C242.495 312.027 242.33 312.242 242.111 312.455C241.891 312.667 241.609 312.843 241.264 312.983C240.92 313.123 240.507 313.193 240.026 313.193ZM240.395 311.83C240.865 311.83 241.266 311.737 241.599 311.551C241.937 311.366 242.192 311.123 242.366 310.824C242.545 310.521 242.634 310.197 242.634 309.852V308.727C242.573 308.788 242.455 308.845 242.281 308.898C242.111 308.947 241.916 308.991 241.696 309.028C241.476 309.062 241.262 309.095 241.054 309.125C240.846 309.152 240.671 309.174 240.531 309.193C240.202 309.235 239.901 309.305 239.628 309.403C239.359 309.502 239.143 309.644 238.98 309.83C238.821 310.011 238.741 310.254 238.741 310.557C238.741 310.977 238.897 311.295 239.207 311.511C239.518 311.723 239.914 311.83 240.395 311.83ZM246.595 313V304.273H248.294V313H246.595ZM247.453 302.926C247.158 302.926 246.904 302.828 246.692 302.631C246.483 302.43 246.379 302.191 246.379 301.915C246.379 301.634 246.483 301.396 246.692 301.199C246.904 300.998 247.158 300.898 247.453 300.898C247.749 300.898 248 300.998 248.209 301.199C248.421 301.396 248.527 301.634 248.527 301.915C248.527 302.191 248.421 302.43 248.209 302.631C248 302.828 247.749 302.926 247.453 302.926ZM252.278 307.818V313H250.58V304.273H252.21V305.693H252.318C252.519 305.231 252.833 304.86 253.261 304.58C253.693 304.299 254.237 304.159 254.892 304.159C255.487 304.159 256.008 304.284 256.455 304.534C256.902 304.78 257.248 305.148 257.494 305.636C257.741 306.125 257.864 306.729 257.864 307.449V313H256.165V307.653C256.165 307.021 256 306.527 255.67 306.17C255.341 305.811 254.888 305.631 254.312 305.631C253.919 305.631 253.568 305.716 253.261 305.886C252.958 306.057 252.718 306.307 252.54 306.636C252.366 306.962 252.278 307.356 252.278 307.818ZM264.513 313V301.364H266.268V311.489H271.541V313H264.513ZM277.169 313.176C276.309 313.176 275.569 312.992 274.947 312.625C274.33 312.254 273.853 311.733 273.516 311.062C273.182 310.388 273.016 309.598 273.016 308.693C273.016 307.799 273.182 307.011 273.516 306.33C273.853 305.648 274.322 305.116 274.925 304.733C275.531 304.35 276.239 304.159 277.05 304.159C277.542 304.159 278.019 304.241 278.482 304.403C278.944 304.566 279.358 304.822 279.726 305.17C280.093 305.519 280.383 305.972 280.595 306.528C280.807 307.081 280.913 307.754 280.913 308.545V309.148H273.976V307.875H279.249C279.249 307.428 279.158 307.032 278.976 306.688C278.794 306.339 278.538 306.064 278.209 305.864C277.883 305.663 277.5 305.562 277.061 305.562C276.584 305.562 276.167 305.68 275.811 305.915C275.459 306.146 275.186 306.449 274.993 306.824C274.804 307.195 274.709 307.598 274.709 308.034V309.028C274.709 309.612 274.811 310.108 275.016 310.517C275.224 310.926 275.514 311.239 275.885 311.455C276.256 311.667 276.69 311.773 277.186 311.773C277.508 311.773 277.802 311.727 278.067 311.636C278.332 311.542 278.561 311.402 278.754 311.216C278.947 311.03 279.095 310.801 279.197 310.528L280.805 310.818C280.677 311.292 280.446 311.706 280.112 312.062C279.783 312.415 279.368 312.689 278.868 312.886C278.372 313.08 277.805 313.176 277.169 313.176ZM286.065 313.17C285.361 313.17 284.732 312.991 284.179 312.631C283.63 312.267 283.198 311.75 282.884 311.08C282.573 310.405 282.418 309.597 282.418 308.653C282.418 307.71 282.575 306.903 282.889 306.233C283.207 305.562 283.643 305.049 284.196 304.693C284.749 304.337 285.376 304.159 286.077 304.159C286.618 304.159 287.054 304.25 287.384 304.432C287.717 304.61 287.974 304.818 288.156 305.057C288.342 305.295 288.486 305.506 288.588 305.688H288.69V301.364H290.389V313H288.73V311.642H288.588C288.486 311.828 288.338 312.04 288.145 312.278C287.955 312.517 287.694 312.725 287.361 312.903C287.027 313.081 286.596 313.17 286.065 313.17ZM286.44 311.722C286.929 311.722 287.342 311.593 287.679 311.335C288.02 311.074 288.277 310.712 288.452 310.25C288.63 309.788 288.719 309.25 288.719 308.636C288.719 308.03 288.632 307.5 288.457 307.045C288.283 306.591 288.027 306.237 287.69 305.983C287.353 305.729 286.937 305.602 286.44 305.602C285.929 305.602 285.503 305.735 285.162 306C284.821 306.265 284.563 306.627 284.389 307.085C284.219 307.544 284.134 308.061 284.134 308.636C284.134 309.22 284.221 309.744 284.395 310.21C284.569 310.676 284.827 311.045 285.168 311.318C285.512 311.587 285.937 311.722 286.44 311.722ZM296.473 316.455C295.78 316.455 295.183 316.364 294.683 316.182C294.187 316 293.782 315.759 293.467 315.46C293.153 315.161 292.918 314.833 292.763 314.477L294.223 313.875C294.325 314.042 294.462 314.218 294.632 314.403C294.806 314.593 295.041 314.754 295.337 314.886C295.636 315.019 296.02 315.085 296.49 315.085C297.134 315.085 297.666 314.928 298.087 314.614C298.507 314.303 298.717 313.807 298.717 313.125V311.409H298.609C298.507 311.595 298.359 311.801 298.166 312.028C297.977 312.256 297.715 312.453 297.382 312.619C297.049 312.786 296.615 312.869 296.081 312.869C295.392 312.869 294.77 312.708 294.217 312.386C293.668 312.061 293.232 311.581 292.911 310.949C292.592 310.312 292.433 309.53 292.433 308.602C292.433 307.674 292.59 306.879 292.905 306.216C293.223 305.553 293.659 305.045 294.212 304.693C294.765 304.337 295.392 304.159 296.092 304.159C296.634 304.159 297.071 304.25 297.405 304.432C297.738 304.61 297.998 304.818 298.183 305.057C298.373 305.295 298.518 305.506 298.621 305.688H298.746V304.273H300.411V313.193C300.411 313.943 300.236 314.559 299.888 315.04C299.539 315.521 299.068 315.877 298.473 316.108C297.882 316.339 297.215 316.455 296.473 316.455ZM296.456 311.46C296.945 311.46 297.357 311.347 297.695 311.119C298.036 310.888 298.293 310.559 298.467 310.131C298.645 309.699 298.734 309.182 298.734 308.58C298.734 307.992 298.647 307.475 298.473 307.028C298.299 306.581 298.043 306.233 297.706 305.983C297.369 305.729 296.952 305.602 296.456 305.602C295.945 305.602 295.518 305.735 295.178 306C294.837 306.261 294.579 306.617 294.405 307.068C294.234 307.519 294.149 308.023 294.149 308.58C294.149 309.152 294.236 309.653 294.411 310.085C294.585 310.517 294.842 310.854 295.183 311.097C295.528 311.339 295.952 311.46 296.456 311.46ZM306.45 313.176C305.59 313.176 304.85 312.992 304.229 312.625C303.611 312.254 303.134 311.733 302.797 311.062C302.464 310.388 302.297 309.598 302.297 308.693C302.297 307.799 302.464 307.011 302.797 306.33C303.134 305.648 303.604 305.116 304.206 304.733C304.812 304.35 305.52 304.159 306.331 304.159C306.823 304.159 307.301 304.241 307.763 304.403C308.225 304.566 308.64 304.822 309.007 305.17C309.375 305.519 309.664 305.972 309.876 306.528C310.089 307.081 310.195 307.754 310.195 308.545V309.148H303.257V307.875H308.53C308.53 307.428 308.439 307.032 308.257 306.688C308.075 306.339 307.82 306.064 307.49 305.864C307.164 305.663 306.782 305.562 306.342 305.562C305.865 305.562 305.448 305.68 305.092 305.915C304.74 306.146 304.467 306.449 304.274 306.824C304.085 307.195 303.99 307.598 303.99 308.034V309.028C303.99 309.612 304.092 310.108 304.297 310.517C304.505 310.926 304.795 311.239 305.166 311.455C305.537 311.667 305.971 311.773 306.467 311.773C306.789 311.773 307.083 311.727 307.348 311.636C307.613 311.542 307.842 311.402 308.036 311.216C308.229 311.03 308.376 310.801 308.479 310.528L310.087 310.818C309.958 311.292 309.727 311.706 309.393 312.062C309.064 312.415 308.649 312.689 308.149 312.886C307.653 313.08 307.087 313.176 306.45 313.176ZM312.08 313V304.273H313.722V305.659H313.812C313.972 305.189 314.252 304.82 314.653 304.551C315.059 304.278 315.517 304.142 316.028 304.142C316.134 304.142 316.259 304.146 316.403 304.153C316.551 304.161 316.667 304.17 316.75 304.182V305.807C316.682 305.788 316.561 305.767 316.386 305.744C316.212 305.718 316.038 305.705 315.864 305.705C315.462 305.705 315.104 305.79 314.79 305.96C314.479 306.127 314.233 306.36 314.051 306.659C313.869 306.955 313.778 307.292 313.778 307.67V313H312.08Z" fill="black"/>
<rect x="113" y="368" width="277" height="44" fill="white"/>
<path d="M211.714 383.364V395H209.958V383.364H211.714ZM217.81 395.176C216.992 395.176 216.278 394.989 215.668 394.614C215.058 394.239 214.585 393.714 214.248 393.04C213.911 392.366 213.742 391.578 213.742 390.676C213.742 389.771 213.911 388.979 214.248 388.301C214.585 387.623 215.058 387.097 215.668 386.722C216.278 386.347 216.992 386.159 217.81 386.159C218.629 386.159 219.343 386.347 219.952 386.722C220.562 387.097 221.036 387.623 221.373 388.301C221.71 388.979 221.879 389.771 221.879 390.676C221.879 391.578 221.71 392.366 221.373 393.04C221.036 393.714 220.562 394.239 219.952 394.614C219.343 394.989 218.629 395.176 217.81 395.176ZM217.816 393.75C218.346 393.75 218.786 393.61 219.134 393.33C219.483 393.049 219.74 392.676 219.907 392.21C220.077 391.744 220.163 391.231 220.163 390.67C220.163 390.114 220.077 389.602 219.907 389.136C219.74 388.667 219.483 388.29 219.134 388.006C218.786 387.722 218.346 387.58 217.816 387.58C217.282 387.58 216.839 387.722 216.487 388.006C216.138 388.29 215.879 388.667 215.708 389.136C215.541 389.602 215.458 390.114 215.458 390.67C215.458 391.231 215.541 391.744 215.708 392.21C215.879 392.676 216.138 393.049 216.487 393.33C216.839 393.61 217.282 393.75 217.816 393.75ZM222.697 384.875V383.364H231.702V384.875H228.072V395H226.322V384.875H222.697ZM239.683 383.364V395H237.927V383.364H239.683ZM243.802 389.818V395H242.103V386.273H243.734V387.693H243.842C244.042 387.231 244.357 386.86 244.785 386.58C245.217 386.299 245.76 386.159 246.415 386.159C247.01 386.159 247.531 386.284 247.978 386.534C248.425 386.78 248.772 387.148 249.018 387.636C249.264 388.125 249.387 388.729 249.387 389.449V395H247.688V389.653C247.688 389.021 247.523 388.527 247.194 388.17C246.864 387.811 246.412 387.631 245.836 387.631C245.442 387.631 245.092 387.716 244.785 387.886C244.482 388.057 244.241 388.307 244.063 388.636C243.889 388.962 243.802 389.356 243.802 389.818ZM255.325 398.455C254.631 398.455 254.035 398.364 253.535 398.182C253.039 398 252.633 397.759 252.319 397.46C252.004 397.161 251.77 396.833 251.614 396.477L253.075 395.875C253.177 396.042 253.313 396.218 253.484 396.403C253.658 396.593 253.893 396.754 254.188 396.886C254.487 397.019 254.872 397.085 255.342 397.085C255.986 397.085 256.518 396.928 256.938 396.614C257.359 396.303 257.569 395.807 257.569 395.125V393.409H257.461C257.359 393.595 257.211 393.801 257.018 394.028C256.828 394.256 256.567 394.453 256.234 394.619C255.9 394.786 255.467 394.869 254.933 394.869C254.243 394.869 253.622 394.708 253.069 394.386C252.52 394.061 252.084 393.581 251.762 392.949C251.444 392.312 251.285 391.53 251.285 390.602C251.285 389.674 251.442 388.879 251.756 388.216C252.075 387.553 252.51 387.045 253.063 386.693C253.616 386.337 254.243 386.159 254.944 386.159C255.486 386.159 255.923 386.25 256.256 386.432C256.59 386.61 256.849 386.818 257.035 387.057C257.224 387.295 257.37 387.506 257.472 387.688H257.597V386.273H259.262V395.193C259.262 395.943 259.088 396.559 258.739 397.04C258.391 397.521 257.919 397.877 257.325 398.108C256.734 398.339 256.067 398.455 255.325 398.455ZM255.308 393.46C255.796 393.46 256.209 393.347 256.546 393.119C256.887 392.888 257.145 392.559 257.319 392.131C257.497 391.699 257.586 391.182 257.586 390.58C257.586 389.992 257.499 389.475 257.325 389.028C257.15 388.581 256.895 388.233 256.558 387.983C256.22 387.729 255.804 387.602 255.308 387.602C254.796 387.602 254.37 387.735 254.029 388C253.688 388.261 253.431 388.617 253.256 389.068C253.086 389.519 253.001 390.023 253.001 390.58C253.001 391.152 253.088 391.653 253.262 392.085C253.436 392.517 253.694 392.854 254.035 393.097C254.379 393.339 254.804 393.46 255.308 393.46ZM265.302 395.176C264.442 395.176 263.701 394.992 263.08 394.625C262.463 394.254 261.986 393.733 261.648 393.062C261.315 392.388 261.148 391.598 261.148 390.693C261.148 389.799 261.315 389.011 261.648 388.33C261.986 387.648 262.455 387.116 263.058 386.733C263.664 386.35 264.372 386.159 265.183 386.159C265.675 386.159 266.152 386.241 266.614 386.403C267.076 386.566 267.491 386.822 267.859 387.17C268.226 387.519 268.516 387.972 268.728 388.528C268.94 389.081 269.046 389.754 269.046 390.545V391.148H262.109V389.875H267.381C267.381 389.428 267.29 389.032 267.109 388.688C266.927 388.339 266.671 388.064 266.342 387.864C266.016 387.663 265.633 387.562 265.194 387.562C264.717 387.562 264.3 387.68 263.944 387.915C263.592 388.146 263.319 388.449 263.126 388.824C262.936 389.195 262.842 389.598 262.842 390.034V391.028C262.842 391.612 262.944 392.108 263.148 392.517C263.357 392.926 263.647 393.239 264.018 393.455C264.389 393.667 264.823 393.773 265.319 393.773C265.641 393.773 265.934 393.727 266.2 393.636C266.465 393.542 266.694 393.402 266.887 393.216C267.08 393.03 267.228 392.801 267.33 392.528L268.938 392.818C268.809 393.292 268.578 393.706 268.245 394.062C267.915 394.415 267.501 394.689 267.001 394.886C266.504 395.08 265.938 395.176 265.302 395.176ZM277.471 388.403L275.931 388.676C275.867 388.479 275.764 388.292 275.624 388.114C275.488 387.936 275.302 387.79 275.067 387.676C274.833 387.562 274.539 387.506 274.187 387.506C273.706 387.506 273.304 387.614 272.982 387.83C272.66 388.042 272.499 388.316 272.499 388.653C272.499 388.945 272.607 389.18 272.823 389.358C273.039 389.536 273.388 389.682 273.869 389.795L275.255 390.114C276.058 390.299 276.656 390.585 277.05 390.972C277.444 391.358 277.641 391.86 277.641 392.477C277.641 393 277.49 393.466 277.187 393.875C276.888 394.28 276.469 394.598 275.931 394.83C275.397 395.061 274.778 395.176 274.073 395.176C273.096 395.176 272.299 394.968 271.681 394.551C271.064 394.131 270.685 393.534 270.545 392.761L272.187 392.511C272.289 392.939 272.499 393.263 272.817 393.483C273.136 393.699 273.55 393.807 274.062 393.807C274.619 393.807 275.064 393.691 275.397 393.46C275.73 393.225 275.897 392.939 275.897 392.602C275.897 392.33 275.795 392.1 275.59 391.915C275.389 391.729 275.081 391.589 274.664 391.494L273.187 391.17C272.372 390.985 271.77 390.689 271.38 390.284C270.994 389.879 270.8 389.366 270.8 388.744C270.8 388.229 270.944 387.778 271.232 387.392C271.52 387.006 271.918 386.705 272.425 386.489C272.933 386.269 273.514 386.159 274.17 386.159C275.113 386.159 275.855 386.364 276.397 386.773C276.939 387.178 277.297 387.722 277.471 388.403ZM283.583 386.273V387.636H278.816V386.273H283.583ZM280.094 384.182H281.793V392.438C281.793 392.767 281.843 393.015 281.941 393.182C282.04 393.345 282.166 393.456 282.322 393.517C282.481 393.574 282.653 393.602 282.839 393.602C282.975 393.602 283.094 393.593 283.197 393.574C283.299 393.555 283.379 393.54 283.435 393.528L283.742 394.932C283.644 394.97 283.504 395.008 283.322 395.045C283.14 395.087 282.913 395.11 282.64 395.114C282.193 395.121 281.776 395.042 281.39 394.875C281.004 394.708 280.691 394.451 280.452 394.102C280.214 393.754 280.094 393.316 280.094 392.79V384.182Z" fill="black"/>
<rect x="96" y="466" width="310" height="44" fill="black"/>
<path d="M221.458 486.04C221.348 485.695 221.201 485.386 221.015 485.114C220.833 484.837 220.615 484.602 220.362 484.409C220.108 484.212 219.818 484.062 219.492 483.96C219.17 483.858 218.816 483.807 218.43 483.807C217.774 483.807 217.183 483.975 216.657 484.312C216.13 484.65 215.714 485.144 215.407 485.795C215.104 486.443 214.952 487.237 214.952 488.176C214.952 489.119 215.106 489.917 215.413 490.568C215.719 491.22 216.14 491.714 216.674 492.051C217.208 492.388 217.816 492.557 218.498 492.557C219.13 492.557 219.682 492.428 220.151 492.17C220.625 491.913 220.99 491.549 221.248 491.08C221.509 490.606 221.64 490.049 221.64 489.409L222.094 489.494H218.765V488.045H223.339V489.369C223.339 490.347 223.13 491.195 222.714 491.915C222.301 492.631 221.729 493.184 220.998 493.574C220.271 493.964 219.437 494.159 218.498 494.159C217.445 494.159 216.521 493.917 215.725 493.432C214.933 492.947 214.316 492.259 213.873 491.369C213.43 490.475 213.208 489.415 213.208 488.188C213.208 487.259 213.337 486.426 213.594 485.688C213.852 484.949 214.214 484.322 214.68 483.807C215.149 483.288 215.701 482.892 216.333 482.619C216.969 482.343 217.665 482.205 218.418 482.205C219.047 482.205 219.632 482.297 220.174 482.483C220.719 482.669 221.204 482.932 221.629 483.273C222.057 483.614 222.411 484.019 222.691 484.489C222.971 484.955 223.161 485.472 223.259 486.04H221.458ZM227.971 494.193C227.418 494.193 226.918 494.091 226.471 493.886C226.024 493.678 225.67 493.377 225.408 492.983C225.151 492.589 225.022 492.106 225.022 491.534C225.022 491.042 225.117 490.636 225.306 490.318C225.496 490 225.751 489.748 226.073 489.562C226.395 489.377 226.755 489.237 227.153 489.142C227.55 489.047 227.956 488.975 228.369 488.926C228.891 488.866 229.316 488.816 229.641 488.778C229.967 488.737 230.204 488.67 230.352 488.58C230.499 488.489 230.573 488.341 230.573 488.136V488.097C230.573 487.6 230.433 487.216 230.153 486.943C229.876 486.67 229.463 486.534 228.914 486.534C228.342 486.534 227.891 486.661 227.562 486.915C227.236 487.165 227.011 487.443 226.886 487.75L225.289 487.386C225.478 486.856 225.755 486.428 226.119 486.102C226.486 485.773 226.908 485.534 227.386 485.386C227.863 485.235 228.365 485.159 228.891 485.159C229.24 485.159 229.609 485.201 229.999 485.284C230.393 485.364 230.761 485.511 231.102 485.727C231.446 485.943 231.728 486.252 231.948 486.653C232.168 487.051 232.278 487.568 232.278 488.205V494H230.619V492.807H230.55C230.441 493.027 230.276 493.242 230.056 493.455C229.836 493.667 229.554 493.843 229.21 493.983C228.865 494.123 228.452 494.193 227.971 494.193ZM228.34 492.83C228.81 492.83 229.211 492.737 229.545 492.551C229.882 492.366 230.138 492.123 230.312 491.824C230.49 491.521 230.579 491.197 230.579 490.852V489.727C230.518 489.788 230.401 489.845 230.227 489.898C230.056 489.947 229.861 489.991 229.641 490.028C229.422 490.062 229.208 490.095 228.999 490.125C228.791 490.152 228.617 490.174 228.477 490.193C228.147 490.235 227.846 490.305 227.573 490.403C227.304 490.502 227.088 490.644 226.925 490.83C226.766 491.011 226.687 491.254 226.687 491.557C226.687 491.977 226.842 492.295 227.153 492.511C227.463 492.723 227.859 492.83 228.34 492.83ZM238.614 485.273V486.636H233.847V485.273H238.614ZM235.126 483.182H236.825V491.438C236.825 491.767 236.874 492.015 236.972 492.182C237.071 492.345 237.198 492.456 237.353 492.517C237.512 492.574 237.684 492.602 237.87 492.602C238.006 492.602 238.126 492.593 238.228 492.574C238.33 492.555 238.41 492.54 238.467 492.528L238.773 493.932C238.675 493.97 238.535 494.008 238.353 494.045C238.171 494.087 237.944 494.11 237.671 494.114C237.224 494.121 236.808 494.042 236.421 493.875C236.035 493.708 235.722 493.451 235.484 493.102C235.245 492.754 235.126 492.316 235.126 491.79V483.182ZM244.161 494.176C243.301 494.176 242.561 493.992 241.94 493.625C241.322 493.254 240.845 492.733 240.508 492.062C240.174 491.388 240.008 490.598 240.008 489.693C240.008 488.799 240.174 488.011 240.508 487.33C240.845 486.648 241.315 486.116 241.917 485.733C242.523 485.35 243.231 485.159 244.042 485.159C244.534 485.159 245.012 485.241 245.474 485.403C245.936 485.566 246.351 485.822 246.718 486.17C247.085 486.519 247.375 486.972 247.587 487.528C247.799 488.081 247.906 488.754 247.906 489.545V490.148H240.968V488.875H246.241C246.241 488.428 246.15 488.032 245.968 487.688C245.786 487.339 245.531 487.064 245.201 486.864C244.875 486.663 244.493 486.562 244.053 486.562C243.576 486.562 243.159 486.68 242.803 486.915C242.451 487.146 242.178 487.449 241.985 487.824C241.796 488.195 241.701 488.598 241.701 489.034V490.028C241.701 490.612 241.803 491.108 242.008 491.517C242.216 491.926 242.506 492.239 242.877 492.455C243.248 492.667 243.682 492.773 244.178 492.773C244.5 492.773 244.794 492.727 245.059 492.636C245.324 492.542 245.553 492.402 245.746 492.216C245.94 492.03 246.087 491.801 246.19 491.528L247.798 491.818C247.669 492.292 247.438 492.706 247.104 493.062C246.775 493.415 246.36 493.689 245.86 493.886C245.364 494.08 244.798 494.176 244.161 494.176ZM251.667 494L249.099 485.273H250.854L252.565 491.682H252.65L254.366 485.273H256.121L257.826 491.653H257.911L259.61 485.273H261.366L258.803 494H257.07L255.298 487.699H255.167L253.394 494H251.667ZM265.518 494.193C264.965 494.193 264.465 494.091 264.018 493.886C263.571 493.678 263.217 493.377 262.955 492.983C262.698 492.589 262.569 492.106 262.569 491.534C262.569 491.042 262.664 490.636 262.853 490.318C263.042 490 263.298 489.748 263.62 489.562C263.942 489.377 264.302 489.237 264.7 489.142C265.097 489.047 265.503 488.975 265.915 488.926C266.438 488.866 266.862 488.816 267.188 488.778C267.514 488.737 267.751 488.67 267.898 488.58C268.046 488.489 268.12 488.341 268.12 488.136V488.097C268.12 487.6 267.98 487.216 267.7 486.943C267.423 486.67 267.01 486.534 266.461 486.534C265.889 486.534 265.438 486.661 265.109 486.915C264.783 487.165 264.558 487.443 264.433 487.75L262.836 487.386C263.025 486.856 263.302 486.428 263.665 486.102C264.033 485.773 264.455 485.534 264.933 485.386C265.41 485.235 265.912 485.159 266.438 485.159C266.787 485.159 267.156 485.201 267.546 485.284C267.94 485.364 268.308 485.511 268.648 485.727C268.993 485.943 269.275 486.252 269.495 486.653C269.715 487.051 269.825 487.568 269.825 488.205V494H268.165V492.807H268.097C267.987 493.027 267.823 493.242 267.603 493.455C267.383 493.667 267.101 493.843 266.756 493.983C266.412 494.123 265.999 494.193 265.518 494.193ZM265.887 492.83C266.357 492.83 266.758 492.737 267.092 492.551C267.429 492.366 267.684 492.123 267.859 491.824C268.037 491.521 268.126 491.197 268.126 490.852V489.727C268.065 489.788 267.948 489.845 267.773 489.898C267.603 489.947 267.408 489.991 267.188 490.028C266.969 490.062 266.754 490.095 266.546 490.125C266.338 490.152 266.164 490.174 266.023 490.193C265.694 490.235 265.393 490.305 265.12 490.403C264.851 490.502 264.635 490.644 264.472 490.83C264.313 491.011 264.234 491.254 264.234 491.557C264.234 491.977 264.389 492.295 264.7 492.511C265.01 492.723 265.406 492.83 265.887 492.83ZM272.849 497.273C272.595 497.273 272.364 497.252 272.156 497.21C271.947 497.172 271.792 497.131 271.69 497.085L272.099 495.693C272.409 495.777 272.686 495.813 272.928 495.801C273.171 495.79 273.385 495.699 273.57 495.528C273.76 495.358 273.926 495.08 274.07 494.693L274.281 494.114L271.087 485.273H272.906L275.116 492.045H275.207L277.417 485.273H279.241L275.644 495.165C275.478 495.619 275.265 496.004 275.008 496.318C274.75 496.636 274.443 496.875 274.087 497.034C273.731 497.193 273.318 497.273 272.849 497.273Z" fill="white"/>
<circle cx="153.53" cy="155.53" r="8.03008" fill="#FF8300" stroke="#FF8300"/>
<line x1="153.676" y1="152.971" x2="153.676" y2="193.915" stroke="#FF8300" stroke-width="2"/>
<circle cx="219.245" cy="155.53" r="8.03008" fill="#FF8300" stroke="#FF8300"/>
<line x1="219.391" y1="152.971" x2="219.391" y2="193.915" stroke="#FF8300" stroke-width="2"/>
<circle cx="284.245" cy="155.53" r="8.03008" fill="#FF8300" stroke="#FF8300"/>
<line x1="284.391" y1="152.971" x2="284.391" y2="193.915" stroke="#FF8300" stroke-width="2"/>
<circle cx="349.245" cy="155.53" r="8.03008" fill="#FF8300" stroke="#FF8300"/>
<line x1="349.391" y1="152.971" x2="349.391" y2="193.915" stroke="#FF8300" stroke-width="2"/>
<path d="M250.061 256.939C249.475 256.354 248.525 256.354 247.939 256.939L238.393 266.485C237.808 267.071 237.808 268.021 238.393 268.607C238.979 269.192 239.929 269.192 240.515 268.607L249 260.121L257.485 268.607C258.071 269.192 259.021 269.192 259.607 268.607C260.192 268.021 260.192 267.071 259.607 266.485L250.061 256.939ZM250.5 286L250.5 258L247.5 258L247.5 286L250.5 286Z" fill="white"/>
<path d="M250.061 338.939C249.475 338.354 248.525 338.354 247.939 338.939L238.393 348.485C237.808 349.071 237.808 350.021 238.393 350.607C238.979 351.192 239.929 351.192 240.515 350.607L249 342.121L257.485 350.607C258.071 351.192 259.021 351.192 259.607 350.607C260.192 350.021 260.192 349.071 259.607 348.485L250.061 338.939ZM250.5 368L250.5 340L247.5 340L247.5 368L250.5 368Z" fill="white"/>
<path d="M250.061 436.939C249.475 436.354 248.525 436.354 247.939 436.939L238.393 446.485C237.808 447.071 237.808 448.021 238.393 448.607C238.979 449.192 239.929 449.192 240.515 448.607L249 440.121L257.485 448.607C258.071 449.192 259.021 449.192 259.607 448.607C260.192 448.021 260.192 447.071 259.607 446.485L250.061 436.939ZM250.5 466L250.5 438L247.5 438L247.5 466L250.5 466Z" fill="black"/>
<rect x="96" y="553" width="310" height="46" fill="black"/>
<path d="M315.261 581H313.398L317.585 569.364H319.614L323.801 581H321.938L318.648 571.477H318.557L315.261 581ZM315.574 576.443H321.619V577.92H315.574V576.443ZM327.044 575.818V581H325.345V572.273H326.976V573.693H327.084C327.285 573.231 327.599 572.86 328.027 572.58C328.459 572.299 329.002 572.159 329.658 572.159C330.252 572.159 330.773 572.284 331.22 572.534C331.667 572.78 332.014 573.148 332.26 573.636C332.506 574.125 332.629 574.729 332.629 575.449V581H330.93V575.653C330.93 575.021 330.766 574.527 330.436 574.17C330.107 573.811 329.654 573.631 329.078 573.631C328.684 573.631 328.334 573.716 328.027 573.886C327.724 574.057 327.483 574.307 327.305 574.636C327.131 574.962 327.044 575.356 327.044 575.818ZM338.584 581.176C337.739 581.176 337.012 580.985 336.402 580.602C335.796 580.216 335.33 579.684 335.004 579.006C334.679 578.328 334.516 577.551 334.516 576.676C334.516 575.79 334.682 575.008 335.016 574.33C335.349 573.648 335.819 573.116 336.425 572.733C337.031 572.35 337.745 572.159 338.567 572.159C339.23 572.159 339.821 572.282 340.339 572.528C340.858 572.771 341.277 573.112 341.595 573.551C341.917 573.991 342.108 574.504 342.169 575.091H340.516C340.425 574.682 340.216 574.33 339.891 574.034C339.569 573.739 339.137 573.591 338.595 573.591C338.122 573.591 337.707 573.716 337.351 573.966C336.999 574.212 336.724 574.564 336.527 575.023C336.33 575.477 336.232 576.015 336.232 576.636C336.232 577.273 336.328 577.822 336.521 578.284C336.714 578.746 336.987 579.104 337.339 579.358C337.696 579.612 338.114 579.739 338.595 579.739C338.917 579.739 339.209 579.68 339.47 579.562C339.735 579.441 339.957 579.269 340.135 579.045C340.317 578.822 340.444 578.553 340.516 578.239H342.169C342.108 578.803 341.925 579.307 341.618 579.75C341.311 580.193 340.9 580.542 340.385 580.795C339.874 581.049 339.273 581.176 338.584 581.176ZM345.685 575.818V581H343.986V569.364H345.662V573.693H345.77C345.974 573.223 346.287 572.85 346.707 572.574C347.128 572.297 347.677 572.159 348.355 572.159C348.954 572.159 349.476 572.282 349.923 572.528C350.374 572.775 350.723 573.142 350.969 573.631C351.219 574.116 351.344 574.722 351.344 575.449V581H349.645V575.653C349.645 575.013 349.48 574.517 349.151 574.165C348.821 573.809 348.363 573.631 347.776 573.631C347.374 573.631 347.014 573.716 346.696 573.886C346.382 574.057 346.134 574.307 345.952 574.636C345.774 574.962 345.685 575.356 345.685 575.818ZM357.287 581.176C356.469 581.176 355.755 580.989 355.145 580.614C354.535 580.239 354.062 579.714 353.724 579.04C353.387 578.366 353.219 577.578 353.219 576.676C353.219 575.771 353.387 574.979 353.724 574.301C354.062 573.623 354.535 573.097 355.145 572.722C355.755 572.347 356.469 572.159 357.287 572.159C358.105 572.159 358.819 572.347 359.429 572.722C360.039 573.097 360.512 573.623 360.849 574.301C361.187 574.979 361.355 575.771 361.355 576.676C361.355 577.578 361.187 578.366 360.849 579.04C360.512 579.714 360.039 580.239 359.429 580.614C358.819 580.989 358.105 581.176 357.287 581.176ZM357.293 579.75C357.823 579.75 358.262 579.61 358.611 579.33C358.959 579.049 359.217 578.676 359.384 578.21C359.554 577.744 359.639 577.231 359.639 576.67C359.639 576.114 359.554 575.602 359.384 575.136C359.217 574.667 358.959 574.29 358.611 574.006C358.262 573.722 357.823 573.58 357.293 573.58C356.759 573.58 356.315 573.722 355.963 574.006C355.615 574.29 355.355 574.667 355.185 575.136C355.018 575.602 354.935 576.114 354.935 576.67C354.935 577.231 355.018 577.744 355.185 578.21C355.355 578.676 355.615 579.049 355.963 579.33C356.315 579.61 356.759 579.75 357.293 579.75ZM363.251 581V572.273H364.893V573.659H364.984C365.143 573.189 365.424 572.82 365.825 572.551C366.231 572.278 366.689 572.142 367.2 572.142C367.306 572.142 367.431 572.146 367.575 572.153C367.723 572.161 367.839 572.17 367.922 572.182V573.807C367.854 573.788 367.732 573.767 367.558 573.744C367.384 573.718 367.21 573.705 367.036 573.705C366.634 573.705 366.276 573.79 365.962 573.96C365.651 574.127 365.405 574.36 365.223 574.659C365.041 574.955 364.95 575.292 364.95 575.67V581H363.251Z" fill="white"/>
<path d="M145.334 573.148H143.561C143.493 572.769 143.366 572.436 143.18 572.148C142.995 571.86 142.768 571.616 142.499 571.415C142.23 571.214 141.929 571.062 141.595 570.96C141.266 570.858 140.915 570.807 140.544 570.807C139.874 570.807 139.273 570.975 138.743 571.312C138.216 571.65 137.8 572.144 137.493 572.795C137.19 573.447 137.038 574.242 137.038 575.182C137.038 576.129 137.19 576.928 137.493 577.58C137.8 578.231 138.218 578.723 138.749 579.057C139.279 579.39 139.875 579.557 140.538 579.557C140.906 579.557 141.254 579.508 141.584 579.409C141.917 579.307 142.218 579.157 142.487 578.96C142.756 578.763 142.983 578.523 143.169 578.239C143.358 577.951 143.489 577.621 143.561 577.25L145.334 577.256C145.239 577.828 145.055 578.354 144.783 578.835C144.514 579.312 144.167 579.725 143.743 580.074C143.322 580.419 142.841 580.686 142.3 580.875C141.758 581.064 141.167 581.159 140.527 581.159C139.519 581.159 138.622 580.92 137.834 580.443C137.046 579.962 136.425 579.275 135.97 578.381C135.519 577.487 135.294 576.42 135.294 575.182C135.294 573.939 135.521 572.873 135.976 571.983C136.43 571.089 137.052 570.403 137.839 569.926C138.627 569.445 139.523 569.205 140.527 569.205C141.144 569.205 141.72 569.294 142.254 569.472C142.792 569.646 143.275 569.903 143.703 570.244C144.131 570.581 144.485 570.994 144.766 571.483C145.046 571.968 145.235 572.523 145.334 573.148ZM147.298 581V572.273H148.94V573.659H149.031C149.19 573.189 149.471 572.82 149.872 572.551C150.277 572.278 150.736 572.142 151.247 572.142C151.353 572.142 151.478 572.146 151.622 572.153C151.77 572.161 151.885 572.17 151.969 572.182V573.807C151.901 573.788 151.779 573.767 151.605 573.744C151.431 573.718 151.257 573.705 151.082 573.705C150.681 573.705 150.323 573.79 150.009 573.96C149.698 574.127 149.452 574.36 149.27 574.659C149.088 574.955 148.997 575.292 148.997 575.67V581H147.298ZM154.778 584.273C154.525 584.273 154.294 584.252 154.085 584.21C153.877 584.172 153.722 584.131 153.619 584.085L154.028 582.693C154.339 582.777 154.616 582.813 154.858 582.801C155.1 582.79 155.314 582.699 155.5 582.528C155.689 582.358 155.856 582.08 156 581.693L156.21 581.114L153.017 572.273H154.835L157.045 579.045H157.136L159.347 572.273H161.17L157.574 582.165C157.407 582.619 157.195 583.004 156.938 583.318C156.68 583.636 156.373 583.875 156.017 584.034C155.661 584.193 155.248 584.273 154.778 584.273ZM162.767 584.273V572.273H164.426V573.688H164.568C164.667 573.506 164.809 573.295 164.994 573.057C165.18 572.818 165.438 572.61 165.767 572.432C166.097 572.25 166.532 572.159 167.074 572.159C167.778 572.159 168.407 572.337 168.96 572.693C169.513 573.049 169.947 573.562 170.261 574.233C170.58 574.903 170.739 575.71 170.739 576.653C170.739 577.597 170.581 578.405 170.267 579.08C169.953 579.75 169.521 580.267 168.972 580.631C168.422 580.991 167.795 581.17 167.091 581.17C166.561 581.17 166.127 581.081 165.79 580.903C165.456 580.725 165.195 580.517 165.006 580.278C164.816 580.04 164.67 579.828 164.568 579.642H164.466V584.273H162.767ZM164.432 576.636C164.432 577.25 164.521 577.788 164.699 578.25C164.877 578.712 165.134 579.074 165.472 579.335C165.809 579.593 166.222 579.722 166.71 579.722C167.218 579.722 167.642 579.587 167.983 579.318C168.324 579.045 168.581 578.676 168.756 578.21C168.934 577.744 169.023 577.22 169.023 576.636C169.023 576.061 168.936 575.544 168.761 575.085C168.591 574.627 168.333 574.265 167.989 574C167.648 573.735 167.222 573.602 166.71 573.602C166.218 573.602 165.801 573.729 165.46 573.983C165.123 574.237 164.867 574.591 164.693 575.045C164.519 575.5 164.432 576.03 164.432 576.636ZM176.716 572.273V573.636H171.949V572.273H176.716ZM173.227 570.182H174.926V578.438C174.926 578.767 174.975 579.015 175.074 579.182C175.172 579.345 175.299 579.456 175.455 579.517C175.614 579.574 175.786 579.602 175.972 579.602C176.108 579.602 176.227 579.593 176.33 579.574C176.432 579.555 176.511 579.54 176.568 579.528L176.875 580.932C176.777 580.97 176.636 581.008 176.455 581.045C176.273 581.087 176.045 581.11 175.773 581.114C175.326 581.121 174.909 581.042 174.523 580.875C174.136 580.708 173.824 580.451 173.585 580.102C173.347 579.754 173.227 579.316 173.227 578.79V570.182ZM182.178 581.176C181.359 581.176 180.645 580.989 180.036 580.614C179.426 580.239 178.952 579.714 178.615 579.04C178.278 578.366 178.109 577.578 178.109 576.676C178.109 575.771 178.278 574.979 178.615 574.301C178.952 573.623 179.426 573.097 180.036 572.722C180.645 572.347 181.359 572.159 182.178 572.159C182.996 572.159 183.71 572.347 184.32 572.722C184.929 573.097 185.403 573.623 185.74 574.301C186.077 574.979 186.246 575.771 186.246 576.676C186.246 577.578 186.077 578.366 185.74 579.04C185.403 579.714 184.929 580.239 184.32 580.614C183.71 580.989 182.996 581.176 182.178 581.176ZM182.183 579.75C182.714 579.75 183.153 579.61 183.501 579.33C183.85 579.049 184.107 578.676 184.274 578.21C184.445 577.744 184.53 577.231 184.53 576.67C184.53 576.114 184.445 575.602 184.274 575.136C184.107 574.667 183.85 574.29 183.501 574.006C183.153 573.722 182.714 573.58 182.183 573.58C181.649 573.58 181.206 573.722 180.854 574.006C180.505 574.29 180.246 574.667 180.075 575.136C179.909 575.602 179.825 576.114 179.825 576.67C179.825 577.231 179.909 577.744 180.075 578.21C180.246 578.676 180.505 579.049 180.854 579.33C181.206 579.61 181.649 579.75 182.183 579.75Z" fill="white"/>
<g clip-path="url(#clip0_1255_462)">
<path d="M249.449 528.834L199.869 578.414C198.727 579.556 198.727 581.409 199.869 582.551L249.449 632.13C250.591 633.273 252.444 633.273 253.586 632.13L303.166 582.551C304.308 581.409 304.308 579.556 303.166 578.414L253.586 528.834C252.444 527.692 250.591 527.692 249.449 528.834Z" fill="#FFAA00"/>
<path d="M259.075 621.273L300.058 580.364L251.488 531.793L202.942 580.364L243.728 621.273H259.075Z" fill="black"/>
<path d="M251.512 611.405C251.356 611.399 251.203 611.356 251.066 611.281L224.314 595.835C224.187 595.756 224.082 595.647 224.008 595.517C223.935 595.387 223.895 595.24 223.893 595.091V564.793C223.895 564.643 223.936 564.497 224.013 564.368C224.089 564.239 224.197 564.131 224.327 564.056C224.456 563.982 224.603 563.942 224.753 563.94C224.903 563.939 225.051 563.977 225.182 564.05L251.934 579.471C252.067 579.545 252.178 579.653 252.257 579.783C252.335 579.914 252.378 580.063 252.38 580.215V610.512C252.378 610.665 252.335 610.813 252.257 610.944C252.178 611.075 252.067 611.182 251.934 611.256C251.809 611.343 251.664 611.394 251.512 611.405ZM225.628 594.57L250.645 609.025V580.736L225.628 566.306V594.57Z" fill="#58595B"/>
<path d="M251.512 611.405C251.356 611.399 251.203 611.356 251.066 611.281C250.936 611.206 250.828 611.097 250.754 610.967C250.68 610.836 250.642 610.688 250.645 610.537V580.24C250.642 580.089 250.68 579.941 250.754 579.81C250.828 579.68 250.936 579.571 251.066 579.496L277.818 564.05C277.951 563.976 278.1 563.937 278.252 563.937C278.404 563.937 278.553 563.976 278.686 564.05C278.819 564.124 278.93 564.231 279.009 564.362C279.087 564.492 279.13 564.641 279.132 564.793V595.091C279.13 595.243 279.087 595.392 279.009 595.523C278.93 595.653 278.819 595.761 278.686 595.835L251.934 611.281C251.807 611.359 251.661 611.402 251.512 611.405ZM252.38 580.736V609.025L277.397 594.57V566.306L252.38 580.736Z" fill="#58595B"/>
<path d="M251.513 581.107C251.355 581.113 251.199 581.07 251.067 580.983L224.314 565.537C224.181 565.463 224.07 565.356 223.992 565.225C223.913 565.094 223.871 564.946 223.868 564.793C223.868 564.641 223.91 564.491 223.988 564.36C224.067 564.229 224.18 564.121 224.314 564.05L251.067 548.603C251.196 548.519 251.346 548.474 251.5 548.474C251.654 548.474 251.805 548.519 251.934 548.603L278.686 564.05C278.817 564.125 278.924 564.233 278.998 564.364C279.072 564.495 279.11 564.643 279.108 564.793C279.11 564.947 279.072 565.098 278.998 565.233C278.924 565.368 278.817 565.481 278.686 565.562L251.934 580.983C251.813 581.073 251.663 581.117 251.513 581.107ZM226.471 564.793L251.513 579.248L276.505 564.793L251.488 550.339L226.471 564.793Z" fill="#58595B"/>
<path d="M224.76 595.959C224.613 595.992 224.461 595.992 224.314 595.959C224.185 595.876 224.079 595.762 224.006 595.628C223.932 595.494 223.893 595.343 223.893 595.19V564.793C223.893 564.644 223.932 564.496 224.005 564.366C224.079 564.236 224.186 564.127 224.314 564.05L251.066 548.603C251.195 548.519 251.346 548.474 251.5 548.474C251.654 548.474 251.805 548.519 251.934 548.603C252.067 548.677 252.178 548.785 252.257 548.915C252.335 549.046 252.378 549.195 252.38 549.347V579.645C252.378 579.797 252.335 579.946 252.257 580.076C252.178 580.207 252.067 580.314 251.934 580.388L225.182 595.835C225.055 595.913 224.909 595.955 224.76 595.959ZM225.628 565.289V593.579L250.645 579.124V550.859L225.628 565.289Z" fill="#58595B"/>
<path d="M278.339 595.959C278.192 595.992 278.04 595.992 277.893 595.959L251.066 580.388C250.936 580.313 250.828 580.205 250.754 580.074C250.68 579.943 250.642 579.795 250.645 579.645V549.347C250.642 549.197 250.68 549.049 250.754 548.918C250.828 548.787 250.936 548.678 251.066 548.603C251.195 548.519 251.346 548.474 251.5 548.474C251.654 548.474 251.805 548.519 251.934 548.603L278.686 564.05C278.821 564.121 278.934 564.229 279.012 564.36C279.091 564.491 279.132 564.641 279.132 564.793V595.066C279.134 595.223 279.094 595.377 279.015 595.512C278.936 595.647 278.823 595.759 278.686 595.835C278.581 595.901 278.462 595.943 278.339 595.959ZM252.455 579.124L277.471 593.579V565.289L252.455 550.859V579.124Z" fill="#58595B"/>
<path d="M251.488 611.405C251.339 611.402 251.194 611.359 251.067 611.281L224.314 595.835C224.181 595.761 224.07 595.653 223.992 595.523C223.913 595.392 223.871 595.243 223.868 595.091C223.871 594.935 223.914 594.783 223.992 594.649C224.07 594.515 224.181 594.402 224.314 594.322L251.067 578.876C251.199 578.802 251.349 578.763 251.5 578.763C251.652 578.763 251.802 578.802 251.934 578.876L278.686 594.347C278.817 594.422 278.924 594.531 278.998 594.662C279.072 594.792 279.11 594.941 279.108 595.091C279.11 595.244 279.072 595.396 278.998 595.531C278.924 595.665 278.817 595.778 278.686 595.859L251.934 611.306C251.796 611.376 251.643 611.41 251.488 611.405ZM226.471 595.091L251.488 609.521L276.505 595.066L251.513 580.636L226.471 595.091Z" fill="#58595B"/>
<path d="M251.339 598.934C261.541 598.934 269.81 590.664 269.81 580.463C269.81 570.262 261.541 561.992 251.339 561.992C241.138 561.992 232.868 570.262 232.868 580.463C232.868 590.664 241.138 598.934 251.339 598.934Z" fill="white"/>
<path d="M246.107 589.612H242.289L249.231 569.926H253.62L260.562 589.612H256.768L251.487 573.967H251.339L246.107 589.612ZM246.231 581.901H256.595V584.752H246.231V581.901Z" fill="black"/>
</g>
<defs>
<clipPath id="clip0_1255_462">
<rect width="105" height="105" fill="white" transform="translate(199 528)"/>
</clipPath>
</defs>
</svg>
