<svg width="148" height="148" viewBox="0 0 148 148" fill="none" xmlns="http://www.w3.org/2000/svg">
<g clip-path="url(#clip0_1179_22329)">
<path d="M71.1096 1.19456L1.22645 71.0778C-0.38397 72.6882 -0.38397 75.2991 1.22645 76.9096L71.1096 146.793C72.72 148.403 75.3311 148.403 76.9415 146.793L146.825 76.9096C148.435 75.2992 148.435 72.6882 146.825 71.0777L76.9414 1.19457C75.331 -0.415852 72.7201 -0.415854 71.1096 1.19456Z" fill="#FFAA00"/>
<path d="M84.6764 131.47L142.444 73.8078L73.9826 5.34692L5.55664 73.8078L63.0442 131.47H84.6764Z" fill="black"/>
<path d="M73.9125 100.962C73.559 100.976 73.2178 101.095 72.9324 101.304C72.6469 101.513 72.4301 101.803 72.3096 102.135C72.1892 102.468 72.1704 102.829 72.2558 103.172C72.3412 103.516 72.5268 103.826 72.789 104.063C73.0513 104.301 73.3782 104.455 73.7283 104.506C74.0784 104.557 74.4358 104.503 74.7549 104.35C75.074 104.197 75.3405 103.953 75.5203 103.648C75.7002 103.343 75.7852 102.992 75.7647 102.639C75.729 102.175 75.5172 101.743 75.1726 101.431C74.8281 101.119 74.3772 100.951 73.9125 100.962V100.962Z" fill="white"/>
<path d="M84.5717 92.3297C85.3057 91.9053 85.8423 91.2082 86.0649 90.39C86.2874 89.5719 86.1778 88.699 85.7598 87.9613C85.4447 87.419 84.9762 86.982 84.4134 86.7053C83.8506 86.4286 83.2185 86.3245 82.5966 86.406C81.9748 86.4876 81.3909 86.7513 80.9185 87.1638C80.4461 87.5763 80.1062 88.1193 79.9416 88.7245C79.777 89.3297 79.7949 89.9701 79.9933 90.5651C80.1917 91.16 80.5616 91.6831 81.0565 92.0684C81.5514 92.4537 82.1491 92.6841 82.7745 92.7306C83.4 92.7771 84.0253 92.6376 84.5717 92.3297V92.3297Z" fill="white"/>
<path d="M80.9372 99.7035C81.2947 99.6031 81.6286 99.4326 81.9194 99.2018C82.2102 98.971 82.4521 98.6845 82.631 98.3592C82.81 98.0339 82.9224 97.6762 82.9615 97.307C83.0007 96.9378 82.9659 96.5644 82.8593 96.2088C82.7632 95.8487 82.5953 95.5119 82.3655 95.2185C82.1357 94.9251 81.8488 94.6813 81.5223 94.5017C81.1958 94.3221 80.8364 94.2104 80.4655 94.1735C80.0947 94.1366 79.7201 94.1751 79.3646 94.2868C78.6555 94.4814 78.053 94.9497 77.6892 95.5887C77.3255 96.2277 77.2304 96.9851 77.4251 97.6941C77.6197 98.4031 78.088 99.0058 78.727 99.3696C79.366 99.7333 80.1234 99.8283 80.8324 99.6336L80.9372 99.7035Z" fill="white"/>
<path d="M74.0529 47.0036C74.4068 46.9964 74.7505 46.884 75.0402 46.6807C75.3299 46.4775 75.5527 46.1926 75.6799 45.8623C75.8071 45.532 75.833 45.1713 75.7545 44.8262C75.676 44.4811 75.4966 44.1672 75.239 43.9245C74.9814 43.6818 74.6574 43.5212 74.3083 43.4633C73.9591 43.4054 73.6006 43.4528 73.2784 43.5994C72.9563 43.746 72.6851 43.9852 72.4994 44.2865C72.3137 44.5877 72.2219 44.9376 72.2357 45.2912C72.2402 45.5237 72.291 45.7529 72.3853 45.9655C72.4795 46.1782 72.6152 46.3698 72.7844 46.5293C72.9537 46.6888 73.1531 46.8129 73.3709 46.8944C73.5887 46.9758 73.8206 47.0129 74.0529 47.0036Z" fill="white"/>
<path d="M63.2547 55.4605C62.6924 55.7605 62.2318 56.221 61.9316 56.7832C61.6315 57.3455 61.5052 57.9842 61.5688 58.6184C61.6324 59.2526 61.8832 59.8536 62.2891 60.345C62.695 60.8364 63.2378 61.1961 63.8485 61.3783C64.4593 61.5605 65.1105 61.5571 65.7193 61.3685C66.3281 61.1799 66.8672 60.8146 67.2679 60.319C67.6687 59.8233 67.9131 59.2198 67.9701 58.5849C68.0271 57.9501 67.8941 57.3128 67.5881 56.7537C67.3902 56.3826 67.1206 56.0543 66.7951 55.7881C66.4695 55.5218 66.0944 55.3229 65.6913 55.2027C65.2883 55.0824 64.8654 55.0432 64.4472 55.0875C64.0289 55.1318 63.6236 55.2586 63.2547 55.4605V55.4605Z" fill="white"/>
<path d="M67.1331 48.1219C66.7703 48.2002 66.4271 48.3509 66.1238 48.5649C65.8206 48.7789 65.5637 49.0518 65.3683 49.3674C65.173 49.6829 65.0434 50.0347 64.9871 50.4015C64.9307 50.7684 64.9489 51.1427 65.0406 51.5024C65.1323 51.862 65.2955 52.1995 65.5205 52.4946C65.7456 52.7898 66.0278 53.0364 66.3504 53.22C66.6729 53.4035 67.0292 53.5202 67.3979 53.5629C67.7665 53.6057 68.14 53.5737 68.496 53.4688C69.1815 53.2668 69.7619 52.8069 70.1153 52.1859C70.4687 51.5648 70.5676 50.831 70.3911 50.1385C70.2146 49.4461 69.7765 48.8491 69.1689 48.473C68.5613 48.0969 67.8315 47.9711 67.1331 48.1219V48.1219Z" fill="white"/>
<path d="M87.4015 97.397C87.207 97.5239 87.0397 97.6884 86.9095 97.8808C86.7793 98.0732 86.6889 98.2896 86.6433 98.5174C86.5977 98.7452 86.5981 98.9798 86.6443 99.2074C86.6904 99.4351 86.7815 99.6512 86.9122 99.8433C87.167 100.233 87.5661 100.505 88.0216 100.6C88.4771 100.695 88.9517 100.605 89.341 100.35C89.7303 100.095 90.0023 99.6961 90.0973 99.2406C90.1924 98.7851 90.1026 98.3105 89.8477 97.9212C89.5905 97.5301 89.1898 97.2558 88.732 97.1577C88.2743 97.0597 87.7964 97.1456 87.4015 97.397V97.397Z" fill="white"/>
<path d="M92.3306 84.5715C92.5436 84.2095 92.6828 83.8088 92.7401 83.3926C92.7974 82.9765 92.7717 82.5531 92.6645 82.147C92.5573 81.7408 92.3706 81.3599 92.1153 81.0263C91.8601 80.6927 91.5412 80.4129 91.1773 80.2032C90.445 79.7768 89.5735 79.6589 88.7543 79.8751C87.9351 80.0914 87.2353 80.6242 86.8089 81.3564C86.3826 82.0886 86.2646 82.9602 86.4808 83.7795C86.6971 84.5987 87.23 85.2984 87.9622 85.7247C88.323 85.9426 88.7238 86.0857 89.141 86.1456C89.5582 86.2054 89.9831 86.1809 90.3906 86.0733C90.7981 85.9657 91.1797 85.7773 91.513 85.5193C91.8462 85.2614 92.1243 84.9391 92.3306 84.5715V84.5715Z" fill="white"/>
<path d="M92.9594 92.749C93.2172 92.4924 93.4219 92.1875 93.5615 91.8516C93.7011 91.5158 93.7729 91.1557 93.7729 90.792C93.7729 90.4283 93.7011 90.0681 93.5615 89.7323C93.4219 89.3964 93.2172 89.0915 92.9594 88.8349C92.7059 88.5782 92.4039 88.3743 92.0709 88.2352C91.738 88.096 91.3807 88.0244 91.0199 88.0244C90.659 88.0244 90.3018 88.096 89.9689 88.2352C89.6359 88.3743 89.3339 88.5782 89.0804 88.8349C88.8257 89.0942 88.6244 89.4011 88.4884 89.7382C88.3523 90.0752 88.284 90.4358 88.2872 90.7992C88.2905 91.1627 88.3653 91.5219 88.5073 91.8564C88.6494 92.191 88.856 92.4943 89.1152 92.749C89.3745 93.0037 89.6815 93.2048 90.0186 93.3409C90.3556 93.477 90.7161 93.5454 91.0795 93.5421C91.443 93.5389 91.8022 93.4641 92.1367 93.322C92.4713 93.1799 92.7746 92.9733 93.0293 92.714L92.9594 92.749Z" fill="white"/>
<path d="M60.5632 50.568C60.7582 50.4464 60.9274 50.2876 61.061 50.1006C61.1947 49.9136 61.2902 49.7021 61.3422 49.4782C61.3941 49.2543 61.4013 49.0224 61.3636 48.7956C61.3259 48.5689 61.244 48.3517 61.1224 48.1567C61.0007 47.9616 60.8418 47.7925 60.6548 47.6588C60.4678 47.5252 60.2563 47.4296 60.0324 47.3777C59.8085 47.3258 59.5766 47.3186 59.3499 47.3563C59.1231 47.394 58.9061 47.4759 58.711 47.5975C58.3171 47.8431 58.0368 48.2353 57.9319 48.6875C57.8271 49.1397 57.9062 49.6149 58.1519 50.0089C58.3975 50.4028 58.7895 50.6831 59.2417 50.7879C59.6939 50.8928 60.1693 50.8136 60.5632 50.568V50.568Z" fill="white"/>
<path d="M55.5647 63.2539C55.1013 63.9768 54.944 64.8543 55.1275 65.6932C55.3111 66.532 55.8203 67.2636 56.5432 67.7271C57.2661 68.1905 58.1436 68.3477 58.9825 68.1642C59.8214 67.9807 60.553 67.4715 61.0164 66.7486C61.2459 66.3906 61.4027 65.991 61.4777 65.5724C61.5527 65.1539 61.5445 64.7247 61.4537 64.3093C61.3628 63.8939 61.1909 63.5006 60.948 63.1516C60.7051 62.8026 60.3959 62.5048 60.0379 62.2754C59.6799 62.0459 59.2803 61.8892 58.8618 61.8142C58.4432 61.7392 58.0141 61.7473 57.5987 61.8382C57.1833 61.9291 56.7899 62.1008 56.4409 62.3437C56.0919 62.5866 55.7942 62.8959 55.5647 63.2539V63.2539Z" fill="white"/>
<path d="M55.1807 54.9715C54.9229 55.228 54.7183 55.533 54.5787 55.8688C54.4391 56.2046 54.3672 56.5648 54.3672 56.9285C54.3672 57.2922 54.4391 57.6523 54.5787 57.9881C54.7183 58.324 54.9229 58.6289 55.1807 58.8855C55.7033 59.3977 56.4059 59.6847 57.1377 59.6847C57.8695 59.6847 58.5721 59.3977 59.0947 58.8855C59.5361 58.3544 59.7653 57.6787 59.7382 56.9886C59.711 56.2986 59.4294 55.6431 58.9477 55.1483C58.4659 54.6535 57.8181 54.3545 57.129 54.3089C56.4399 54.2634 55.7584 54.4745 55.2157 54.9016L55.1807 54.9715Z" fill="white"/>
<path d="M97.3272 87.5768C97.2197 87.7802 97.1544 88.0032 97.135 88.2324C97.1156 88.4616 97.1427 88.6923 97.2144 88.9108C97.2862 89.1293 97.4012 89.3312 97.5526 89.5043C97.7041 89.6774 97.8889 89.8182 98.096 89.9183C98.302 90.0264 98.5275 90.0923 98.7593 90.1121C98.9911 90.1319 99.2245 90.1052 99.4459 90.0336C99.6672 89.962 99.8721 89.8469 100.048 89.6951C100.225 89.5433 100.369 89.3578 100.472 89.1495C100.679 88.7274 100.71 88.2409 100.559 87.7959C100.409 87.3509 100.089 86.9833 99.6687 86.7731C99.4622 86.6717 99.2377 86.612 99.0082 86.5976C98.7786 86.5831 98.5485 86.6142 98.331 86.6889C98.1134 86.7635 97.9128 86.8804 97.7405 87.0328C97.5683 87.1852 97.4278 87.37 97.3272 87.5768V87.5768Z" fill="white"/>
<path d="M95.1944 73.9825C95.1852 73.1359 94.8423 72.3271 94.2404 71.7317C93.6384 71.1363 92.8259 70.8023 91.9792 70.8023C91.5603 70.7976 91.1446 70.8767 90.7567 71.0348C90.3687 71.193 90.0163 71.4271 89.72 71.7233C89.4238 72.0196 89.1897 72.372 89.0315 72.76C88.8734 73.1479 88.7943 73.5636 88.799 73.9825C88.8818 74.7729 89.2543 75.5047 89.8448 76.0366C90.4353 76.5685 91.2019 76.8629 91.9967 76.8629C92.7914 76.8629 93.558 76.5685 94.1485 76.0366C94.739 75.5047 95.1116 74.7729 95.1944 73.9825V73.9825Z" fill="white"/>
<path d="M99.8789 80.7272C100.06 80.0135 99.9495 79.2573 99.5726 78.6248C99.1958 77.9924 98.5831 77.5356 97.8694 77.3549C97.1558 77.1741 96.3995 77.2843 95.7671 77.6611C95.1346 78.038 94.6778 78.6507 94.4971 79.3643C94.4076 79.7177 94.3885 80.0853 94.4411 80.446C94.4936 80.8067 94.6168 81.1535 94.8034 81.4666C94.99 81.7798 95.2364 82.0532 95.5286 82.2711C95.8208 82.489 96.1532 82.6472 96.5066 82.7367C96.8599 82.8262 97.2275 82.8451 97.5882 82.7926C97.9489 82.74 98.2957 82.617 98.6088 82.4304C98.922 82.2438 99.1954 81.9973 99.4133 81.7051C99.6312 81.4128 99.7894 81.0806 99.8789 80.7272V80.7272Z" fill="white"/>
<path d="M50.6729 60.4232C50.8844 60.0095 50.9261 59.5296 50.789 59.0858C50.6519 58.6419 50.3469 58.2691 49.939 58.0468C49.7351 57.9374 49.5115 57.8696 49.2812 57.8474C49.0509 57.8251 48.8185 57.8487 48.5975 57.917C48.3764 57.9853 48.171 58.0968 47.9934 58.2451C47.8158 58.3933 47.6694 58.5753 47.5626 58.7806C47.3483 59.1901 47.3014 59.6668 47.4318 60.1101C47.5622 60.5535 47.8597 60.9288 48.2615 61.157C48.468 61.2671 48.6943 61.3355 48.9272 61.3583C49.1602 61.381 49.3953 61.3576 49.6192 61.2895C49.8431 61.2213 50.0514 61.1097 50.2322 60.9611C50.413 60.8124 50.5627 60.6297 50.6729 60.4232V60.4232Z" fill="white"/>
<path d="M52.7706 73.8777C52.743 74.5158 52.906 75.1476 53.239 75.6926C53.572 76.2377 54.0597 76.6712 54.64 76.938C55.2204 77.2047 55.8671 77.2925 56.4976 77.1902C57.128 77.0879 57.7137 76.8002 58.1799 76.3637C58.6462 75.9272 58.9719 75.3617 59.1155 74.7394C59.2591 74.117 59.214 73.4659 58.9861 72.8693C58.7582 72.2726 58.3577 71.7575 57.8358 71.3893C57.3139 71.0212 56.6941 70.8168 56.0556 70.8023C55.6379 70.7883 55.2216 70.8568 54.8304 71.0038C54.4392 71.1508 54.0807 71.3735 53.7756 71.6591C53.4706 71.9448 53.2248 72.2877 53.0524 72.6684C52.8799 73.049 52.7841 73.46 52.7706 73.8777V73.8777Z" fill="white"/>
<path d="M48.2964 66.8883C48.1889 67.2396 48.1528 67.6089 48.1899 67.9745C48.2271 68.34 48.3368 68.6945 48.5127 69.0171C48.6886 69.3397 48.9271 69.6239 49.2143 69.8531C49.5015 70.0823 49.8315 70.2519 50.185 70.3519C50.5386 70.4519 50.9086 70.4803 51.2733 70.4355C51.638 70.3907 51.99 70.2736 52.3088 70.0909C52.6277 69.9083 52.9068 69.6639 53.1299 69.372C53.3531 69.0801 53.5157 68.7465 53.6083 68.3909C53.7902 67.6921 53.6911 66.9498 53.3321 66.3231C52.9732 65.6965 52.3829 65.2354 51.688 65.0389C50.9931 64.8423 50.2489 64.9257 49.6149 65.2715C48.9808 65.6172 48.5075 66.1976 48.2964 66.8883V66.8883Z" fill="white"/>
<g opacity="0.55">
<path d="M100.996 74.0873C101.017 74.432 101.14 74.7626 101.349 75.0374C101.558 75.3123 101.844 75.519 102.171 75.6315C102.497 75.744 102.85 75.7572 103.184 75.6696C103.518 75.5819 103.818 75.3972 104.047 75.1389C104.277 74.8805 104.424 74.56 104.471 74.218C104.518 73.8759 104.463 73.5274 104.312 73.2167C104.161 72.906 103.922 72.647 103.624 72.4723C103.326 72.2976 102.983 72.2151 102.639 72.2351C102.407 72.2438 102.18 72.2991 101.971 72.398C101.762 72.4968 101.575 72.6371 101.421 72.8102C101.268 72.9833 101.151 73.1857 101.078 73.4052C101.005 73.6247 100.977 73.8567 100.996 74.0873Z" fill="white"/>
<path d="M92.3299 63.3937C91.9122 62.662 91.2213 62.126 90.4089 61.9032C89.5964 61.6805 88.7288 61.7892 87.9964 62.2055C87.589 62.3906 87.2247 62.6587 86.9269 62.9927C86.6291 63.3266 86.4043 63.7191 86.2668 64.1449C86.1294 64.5707 86.0823 65.0206 86.1286 65.4657C86.175 65.9107 86.3137 66.3412 86.536 66.7296C86.7583 67.1179 87.0592 67.4557 87.4195 67.7211C87.7798 67.9865 88.1915 68.1738 88.6283 68.271C89.0651 68.3681 89.5174 68.3731 89.9562 68.2855C90.395 68.1978 90.8106 68.0195 91.1766 67.762C91.5441 67.5558 91.8664 67.2777 92.1243 66.9445C92.3823 66.6112 92.5707 66.2296 92.6783 65.8221C92.7859 65.4146 92.8104 64.9896 92.7506 64.5725C92.6907 64.1553 92.5477 63.7545 92.3299 63.3937V63.3937Z" fill="white"/>
<path d="M99.8432 66.8534C99.7516 66.4906 99.5863 66.1506 99.3576 65.8545C99.1289 65.5584 98.8417 65.3126 98.5139 65.1323C98.1861 64.952 97.8247 64.841 97.4521 64.8065C97.0796 64.7719 96.7039 64.8144 96.3485 64.9313C95.9911 65.0317 95.6572 65.2023 95.3664 65.4331C95.0756 65.6639 94.8336 65.9503 94.6547 66.2757C94.4758 66.601 94.3634 66.9587 94.3242 67.3279C94.285 67.6971 94.3198 68.0704 94.4265 68.426C94.6376 69.1166 95.1108 69.697 95.7449 70.0427C96.3789 70.3885 97.1232 70.472 97.8181 70.2754C98.513 70.0788 99.1033 69.6178 99.4622 68.9912C99.8212 68.3645 99.9203 67.6222 99.7384 66.9233L99.8432 66.8534Z" fill="white"/>
</g>
<g opacity="0.55">
<path d="M47.003 73.9127C46.9889 73.5675 46.8728 73.2342 46.6694 72.955C46.466 72.6758 46.1843 72.4631 45.86 72.3439C45.5358 72.2247 45.1835 72.2043 44.8476 72.2852C44.5118 72.3662 44.2074 72.5449 43.9731 72.7987C43.7388 73.0526 43.585 73.3702 43.5311 73.7115C43.4773 74.0527 43.5258 74.4022 43.6705 74.7159C43.8153 75.0296 44.0496 75.2934 44.3442 75.4738C44.6388 75.6543 44.9803 75.7434 45.3255 75.7299C45.555 75.7209 45.7805 75.6667 45.9891 75.5705C46.1977 75.4742 46.3852 75.3378 46.541 75.169C46.6968 75.0002 46.8178 74.8024 46.8971 74.5868C46.9764 74.3712 47.0124 74.1422 47.003 73.9127V73.9127Z" fill="white"/>
<path d="M55.4945 84.5714C55.799 85.1207 56.2593 85.5675 56.8175 85.8556C57.3756 86.1436 58.0066 86.26 58.6307 86.1899C59.2549 86.1198 59.8442 85.8664 60.3246 85.4618C60.805 85.0572 61.1548 84.5194 61.3299 83.9162C61.505 83.3131 61.4977 82.6716 61.3087 82.0726C61.1197 81.4736 60.7575 80.944 60.2679 80.5506C59.7783 80.1572 59.1832 79.9175 58.5575 79.8619C57.9319 79.8062 57.3039 79.9372 56.7526 80.238C56.3845 80.4389 56.0596 80.7106 55.7969 81.0376C55.5342 81.3645 55.3388 81.7401 55.2219 82.1429C55.1049 82.5457 55.0688 82.9676 55.1155 83.3844C55.1623 83.8012 55.2911 84.2046 55.4945 84.5714V84.5714Z" fill="white"/>
<path d="M48.2607 80.6573C48.4171 81.1718 48.7205 81.6294 49.1333 81.9739C49.5462 82.3185 50.0507 82.5348 50.5848 82.5967C51.119 82.6585 51.6596 82.563 52.1402 82.3218C52.6208 82.0807 53.0205 81.7045 53.2903 81.2393C53.5601 80.7742 53.6882 80.2404 53.6589 79.7035C53.6295 79.1666 53.444 78.6498 53.1251 78.2169C52.8062 77.7839 52.3678 77.4535 51.8638 77.2662C51.3597 77.0789 50.8119 77.043 50.2877 77.1627C49.9208 77.2516 49.5757 77.4139 49.2732 77.6398C48.9708 77.8657 48.7172 78.1504 48.5278 78.477C48.3384 78.8036 48.217 79.1652 48.1711 79.5399C48.1252 79.9146 48.1557 80.2947 48.2607 80.6573Z" fill="white"/>
</g>
<g opacity="0.7">
<path d="M97.4332 60.563C97.5541 60.7591 97.7133 60.9289 97.9013 61.0621C98.0893 61.1953 98.3022 61.2891 98.5273 61.338C98.7525 61.3869 98.9852 61.39 99.2115 61.3469C99.4378 61.3037 99.6532 61.2154 99.8446 61.0872C100.037 60.961 100.203 60.798 100.333 60.6077C100.463 60.4173 100.554 60.2032 100.601 59.9777C100.648 59.7522 100.65 59.5196 100.607 59.2932C100.564 59.0668 100.477 58.8511 100.351 58.6583C100.225 58.4656 100.062 58.2996 99.8718 58.1698C99.6814 58.04 99.4673 57.949 99.2418 57.902C99.0162 57.8549 98.7837 57.8527 98.5573 57.8956C98.3309 57.9384 98.1153 58.0254 97.9225 58.1516C97.7292 58.2753 97.5626 58.4366 97.4328 58.6259C97.303 58.8152 97.2127 59.0287 97.167 59.2536C97.1214 59.4786 97.1214 59.7104 97.1671 59.9354C97.2129 60.1603 97.3034 60.3737 97.4332 60.563V60.563Z" fill="white"/>
<path d="M84.6069 55.6354C83.8735 55.2145 83.0038 55.0995 82.1861 55.3154C81.3685 55.5312 80.6687 56.0605 80.2386 56.7886C79.8122 57.5208 79.6943 58.3925 79.9105 59.2117C80.1268 60.0309 80.6597 60.7306 81.3919 61.157C82.1241 61.5833 82.9956 61.7014 83.8149 61.4851C84.6341 61.2689 85.3339 60.736 85.7603 60.0038C86.1812 59.2703 86.2962 58.4005 86.0803 57.5828C85.8645 56.7652 85.335 56.0656 84.6069 55.6354V55.6354Z" fill="white"/>
<path d="M92.8898 54.8317C92.6363 54.5749 92.3343 54.3711 92.0013 54.232C91.6684 54.0928 91.3111 54.0211 90.9502 54.0211C90.5894 54.0211 90.2321 54.0928 89.8992 54.232C89.5662 54.3711 89.2642 54.5749 89.0107 54.8317C88.621 55.2163 88.3546 55.7083 88.2452 56.2448C88.1357 56.7813 88.1883 57.3382 88.3962 57.8447C88.6041 58.3513 88.958 58.7845 89.4128 59.0894C89.8675 59.3944 90.4027 59.5572 90.9502 59.5572C91.4978 59.5572 92.033 59.3944 92.4878 59.0894C92.9426 58.7845 93.2963 58.3513 93.5043 57.8447C93.7122 57.3382 93.7648 56.7813 93.6554 56.2448C93.546 55.7083 93.2795 55.2163 92.8898 54.8317V54.8317Z" fill="white"/>
</g>
<g opacity="0.7">
<path d="M50.6024 87.4021C50.3567 87.0089 49.9675 86.7269 49.5173 86.616C49.0671 86.5051 48.5913 86.5739 48.1911 86.808C47.9577 86.9104 47.749 87.0618 47.579 87.2517C47.4091 87.4417 47.2819 87.6658 47.206 87.9091C47.13 88.1524 47.1071 88.4092 47.1389 88.6621C47.1706 88.9149 47.2563 89.1581 47.39 89.3751C47.5238 89.5921 47.7025 89.7778 47.9141 89.9199C48.1257 90.0619 48.3654 90.1569 48.6168 90.1984C48.8683 90.24 49.1257 90.2271 49.3718 90.1607C49.6179 90.0943 49.8469 89.9759 50.0433 89.8134C50.2386 89.6921 50.4081 89.5334 50.542 89.3464C50.6758 89.1594 50.7715 88.9478 50.8234 88.7238C50.8753 88.4998 50.8826 88.2677 50.8446 88.0409C50.8067 87.8141 50.7244 87.597 50.6024 87.4021Z" fill="white"/>
<path d="M63.2536 92.3995C63.7898 92.7289 64.4116 92.8919 65.0404 92.8678C65.6692 92.8436 66.2767 92.6335 66.786 92.2639C67.2954 91.8944 67.6837 91.382 67.9017 90.7917C68.1197 90.2014 68.1577 89.5597 68.0108 88.9478C67.8639 88.3358 67.5388 87.7813 67.0767 87.3542C66.6145 86.9271 66.036 86.6468 65.4144 86.5487C64.7928 86.4505 64.1561 86.539 63.5848 86.8029C63.0136 87.0668 62.5335 87.4942 62.2052 88.0311C61.7659 88.7497 61.6295 89.6132 61.8261 90.4321C62.0226 91.251 62.536 91.9586 63.2536 92.3995V92.3995Z" fill="white"/>
<path d="M55.1454 92.6091C55.5321 92.9939 56.024 93.2555 56.5592 93.3609C57.0944 93.4663 57.6489 93.4108 58.1525 93.2015C58.6562 92.9921 59.0865 92.6383 59.3892 92.1846C59.692 91.7308 59.8536 91.1976 59.8536 90.6521C59.8536 90.1067 59.692 89.5735 59.3892 89.1198C59.0865 88.6661 58.6562 88.3121 58.1525 88.1028C57.6489 87.8934 57.0944 87.838 56.5592 87.9434C56.024 88.0488 55.5321 88.3104 55.1454 88.6951C54.8876 88.9516 54.6831 89.2566 54.5435 89.5924C54.4039 89.9283 54.332 90.2884 54.332 90.6521C54.332 91.0158 54.4039 91.3759 54.5435 91.7118C54.6831 92.0476 54.8876 92.3526 55.1454 92.6091V92.6091Z" fill="white"/>
</g>
<g opacity="0.85">
<path d="M74.0868 52.63C73.4498 52.6094 72.8211 52.7785 72.2804 53.1159C71.7398 53.4533 71.3117 53.9438 71.0503 54.525C70.789 55.1063 70.7063 55.752 70.8127 56.3803C70.9191 57.0086 71.2099 57.5912 71.648 58.054C72.0861 58.5167 72.652 58.8388 73.2736 58.9794C73.8951 59.1199 74.5444 59.0726 75.1391 58.8434C75.7337 58.6142 76.2468 58.2135 76.6132 57.6921C76.9796 57.1707 77.1828 56.5521 77.197 55.915C77.2068 55.0707 76.8877 54.2558 76.3072 53.6426C75.7267 53.0295 74.9303 52.6662 74.0868 52.63V52.63Z" fill="white"/>
<path d="M87.717 50.6729C88.1391 50.8792 88.6256 50.9105 89.0706 50.76C89.5156 50.6094 89.8831 50.2893 90.0934 49.8692C90.1948 49.6628 90.2544 49.4383 90.2689 49.2087C90.2834 48.9792 90.2523 48.7492 90.1776 48.5316C90.1029 48.3141 89.9861 48.1134 89.8337 47.9411C89.6813 47.7688 89.4965 47.6284 89.2897 47.5277C89.0863 47.4203 88.8633 47.3549 88.6341 47.3355C88.4049 47.3162 88.1742 47.3432 87.9557 47.415C87.7372 47.4868 87.5353 47.6018 87.3622 47.7533C87.1891 47.9048 87.0483 48.0895 86.9482 48.2966C86.8401 48.5026 86.7742 48.7281 86.7544 48.9599C86.7346 49.1917 86.7613 49.4251 86.8329 49.6464C86.9045 49.8678 87.0196 50.0726 87.1714 50.2489C87.3232 50.4252 87.5087 50.5693 87.717 50.6729V50.6729Z" fill="white"/>
<path d="M80.9009 47.9122C80.3691 47.7766 79.8093 47.8003 79.291 47.9807C78.7727 48.1611 78.3189 48.49 77.9862 48.9265C77.6536 49.3629 77.4568 49.8876 77.4203 50.4351C77.3837 50.9827 77.5092 51.5289 77.7809 52.0056C78.0527 52.4824 78.4587 52.8686 78.9484 53.1162C79.4382 53.3638 79.99 53.4618 80.5351 53.398C81.0801 53.3341 81.5943 53.1113 82.0135 52.7572C82.4328 52.4031 82.7386 51.9336 82.8929 51.4069C82.9934 51.0466 83.0216 50.6699 82.9757 50.2987C82.9299 49.9275 82.8108 49.5691 82.6256 49.2442C82.4404 48.9192 82.1926 48.6342 81.8965 48.4056C81.6005 48.177 81.2621 48.0093 80.9009 47.9122V47.9122Z" fill="white"/>
</g>
<g opacity="0.85">
<path d="M73.9831 95.1603C74.6219 95.1672 75.2482 94.9836 75.7823 94.633C76.3163 94.2824 76.7339 93.7806 76.9815 93.1917C77.2292 92.6029 77.2958 91.9536 77.1729 91.3267C77.0499 90.6997 76.743 90.1236 76.2913 89.6719C75.8396 89.2202 75.2635 88.9133 74.6365 88.7903C74.0096 88.6674 73.3603 88.734 72.7715 88.9817C72.1826 89.2293 71.6808 89.6468 71.3302 90.1808C70.9796 90.7149 70.796 91.3413 70.8029 91.9801C70.812 92.8207 71.15 93.6243 71.7444 94.2188C72.3389 94.8132 73.1425 95.1512 73.9831 95.1603V95.1603Z" fill="white"/>
<path d="M60.4587 97.3271C60.2569 97.2163 60.0352 97.1466 59.8063 97.1219C59.5775 97.0971 59.3461 97.1177 59.1253 97.1826C58.9044 97.2476 58.6986 97.3555 58.5196 97.5002C58.3406 97.645 58.192 97.8237 58.0822 98.026C57.9335 98.2317 57.8304 98.4667 57.7799 98.7154C57.7293 98.9641 57.7324 99.2207 57.7891 99.4681C57.8457 99.7155 57.9545 99.948 58.1083 100.15C58.262 100.352 58.4571 100.519 58.6804 100.639C58.9038 100.76 59.1503 100.831 59.4035 100.849C59.6567 100.866 59.9107 100.829 60.1486 100.741C60.3864 100.652 60.6026 100.514 60.7826 100.335C60.9626 100.156 61.1024 99.9407 61.1926 99.7034C61.4041 99.2898 61.4457 98.81 61.3086 98.3661C61.1715 97.9223 60.8666 97.5494 60.4587 97.3271Z" fill="white"/>
<path d="M67.0644 99.4938C67.4176 99.606 67.7898 99.646 68.1588 99.6113C68.5278 99.5766 68.8861 99.468 69.2122 99.2919C69.5383 99.1158 69.8257 98.8758 70.057 98.5863C70.2884 98.2968 70.4592 97.9636 70.559 97.6067C70.7647 96.8884 70.6781 96.1179 70.318 95.4633C69.958 94.8086 69.3537 94.323 68.637 94.112C68.2814 94.0054 67.908 93.9706 67.5388 94.0097C67.1696 94.0489 66.812 94.1613 66.4866 94.3403C66.1613 94.5192 65.8748 94.7611 65.644 95.0519C65.4132 95.3427 65.2427 95.6766 65.1423 96.0341C65.0361 96.3874 65.0017 96.7585 65.0413 97.1253C65.0809 97.4921 65.1936 97.8473 65.3728 98.1698C65.552 98.4923 65.794 98.7757 66.0846 99.0031C66.3751 99.2305 66.7082 99.3973 67.0644 99.4938V99.4938Z" fill="white"/>
</g>
</g>
<defs>
<clipPath id="clip0_1179_22329">
<rect width="148" height="148" fill="white"/>
</clipPath>
</defs>
</svg>
