<svg width="334" height="261" viewBox="0 0 334 261" fill="none" xmlns="http://www.w3.org/2000/svg">
<rect width="333.3" height="261" fill="black"/>
<g clip-path="url(#clip0_1301_909)">
<path d="M166.781 192.971C166.25 193.002 165.731 193.137 165.253 193.37C164.774 193.602 164.347 193.926 163.994 194.324C163.641 194.722 163.371 195.185 163.198 195.688C163.024 196.191 162.952 196.723 162.985 197.253C162.962 197.816 163.057 198.376 163.263 198.9C163.47 199.424 163.784 199.898 164.184 200.294C164.585 200.689 165.064 200.996 165.59 201.195C166.117 201.395 166.679 201.482 167.241 201.451C167.803 201.421 168.352 201.273 168.854 201.017C169.355 200.762 169.798 200.404 170.153 199.968C170.508 199.531 170.769 199.026 170.917 198.483C171.065 197.94 171.099 197.372 171.014 196.815C170.952 195.748 170.473 194.748 169.682 194.029C168.89 193.311 167.849 192.931 166.781 192.971Z" fill="white"/>
<path d="M191.307 173.117C192.829 172.071 193.903 170.491 194.313 168.69C194.722 166.889 194.439 164.999 193.518 163.398C192.598 161.796 191.108 160.6 189.346 160.048C187.583 159.495 185.677 159.627 184.007 160.416C183.09 160.85 182.273 161.468 181.607 162.233C180.94 162.998 180.44 163.893 180.136 164.861C179.833 165.829 179.733 166.849 179.843 167.858C179.954 168.866 180.271 169.841 180.777 170.72C181.282 171.6 181.965 172.365 182.78 172.968C183.596 173.571 184.528 173.999 185.517 174.224C186.506 174.449 187.531 174.467 188.528 174.276C189.524 174.086 190.47 173.691 191.307 173.117Z" fill="white"/>
<path d="M182.937 190.003C184.138 189.659 185.21 188.966 186.019 188.014C186.827 187.061 187.335 185.89 187.479 184.649C187.623 183.408 187.396 182.152 186.827 181.04C186.258 179.928 185.372 179.009 184.282 178.399C183.191 177.789 181.945 177.516 180.699 177.614C179.454 177.712 178.265 178.177 177.283 178.95C176.301 179.722 175.57 180.768 175.182 181.956C174.794 183.144 174.766 184.42 175.102 185.623C175.327 186.426 175.708 187.177 176.224 187.833C176.74 188.489 177.38 189.036 178.108 189.443C178.837 189.85 179.638 190.109 180.467 190.205C181.296 190.301 182.135 190.232 182.937 190.003V190.003Z" fill="white"/>
<path d="M167.122 69.078C167.65 69.0655 168.17 68.9481 168.653 68.7327C169.136 68.5174 169.571 68.2084 169.933 67.8236C170.295 67.4388 170.577 66.9859 170.763 66.4912C170.949 65.9965 171.034 65.4698 171.015 64.9417C171.057 64.377 170.981 63.8097 170.79 63.2765C170.599 62.7434 170.298 62.2562 169.907 61.8469C169.515 61.4375 169.042 61.1151 168.518 60.9005C167.994 60.6858 167.431 60.5836 166.865 60.6008C166.299 60.6179 165.743 60.754 165.233 61C164.722 61.246 164.27 61.5965 163.904 62.0288C163.538 62.4611 163.267 62.9655 163.109 63.5092C162.951 64.053 162.909 64.6239 162.985 65.185C162.991 65.7153 163.104 66.239 163.317 66.7247C163.53 67.2103 163.839 67.648 164.225 68.0114C164.612 68.3749 165.067 68.6567 165.565 68.8399C166.062 69.0232 166.592 69.1042 167.122 69.078V69.078Z" fill="white"/>
<path d="M142.693 88.4939C140.984 89.4302 139.714 91.0034 139.158 92.8713C138.602 94.7393 138.806 96.751 139.725 98.4695C140.418 99.7455 141.474 100.788 142.76 101.464C144.045 102.14 145.502 102.42 146.946 102.269C148.391 102.118 149.758 101.542 150.875 100.615C151.992 99.6869 152.81 98.4489 153.224 97.0569C153.638 95.6649 153.631 94.1813 153.202 92.7937C152.774 91.406 151.944 90.1764 150.817 89.2601C149.69 88.3439 148.317 87.7822 146.871 87.6458C145.426 87.5094 143.972 87.8045 142.693 88.4939Z" fill="white"/>
<path d="M151.258 71.6569C150.453 71.8614 149.696 72.2224 149.03 72.7195C148.365 73.2165 147.803 73.8399 147.379 74.5538C146.954 75.2678 146.674 76.0584 146.555 76.8806C146.436 77.7027 146.479 78.5403 146.684 79.3454C146.888 80.1506 147.249 80.9077 147.746 81.5733C148.244 82.2389 148.867 82.8002 149.581 83.225C150.295 83.6497 151.085 83.9297 151.908 84.0489C152.73 84.1681 153.567 84.1242 154.372 83.9197C155.178 83.7152 155.935 83.3542 156.6 82.8571C157.266 82.3601 157.827 81.7367 158.252 81.0228C158.677 80.3088 158.957 79.5182 159.076 78.696C159.195 77.8739 159.151 77.0363 158.947 76.2312C158.742 75.426 158.381 74.6689 157.884 74.0033C157.387 73.3377 156.764 72.7764 156.05 72.3516C155.336 71.9269 154.545 71.6469 153.723 71.5277C152.901 71.4085 152.063 71.4524 151.258 71.6569V71.6569Z" fill="white"/>
<path d="M197.779 184.747C197.111 185.185 196.588 185.811 196.276 186.546C195.964 187.281 195.877 188.092 196.026 188.877C196.175 189.661 196.552 190.384 197.112 190.954C197.671 191.524 198.387 191.915 199.169 192.078C199.951 192.241 200.763 192.169 201.504 191.87C202.244 191.572 202.88 191.061 203.33 190.401C203.78 189.741 204.025 188.963 204.033 188.165C204.041 187.366 203.812 186.583 203.375 185.915C202.78 185.027 201.861 184.408 200.815 184.19C199.769 183.972 198.679 184.172 197.779 184.747V184.747Z" fill="white"/>
<path d="M209.117 155.355C209.855 154.101 210.203 152.656 210.119 151.204C210.035 149.751 209.521 148.356 208.643 147.196C207.765 146.036 206.563 145.162 205.188 144.686C203.813 144.21 202.328 144.153 200.92 144.522C199.513 144.891 198.247 145.669 197.282 146.758C196.318 147.848 195.698 149.199 195.502 150.641C195.307 152.083 195.543 153.55 196.183 154.857C196.822 156.164 197.834 157.252 199.092 157.983C200.771 158.958 202.768 159.23 204.647 158.737C206.525 158.245 208.132 157.029 209.117 155.355V155.355Z" fill="white"/>
<path d="M210.479 174.041C211.074 173.457 211.546 172.76 211.868 171.992C212.19 171.223 212.356 170.398 212.356 169.565C212.356 168.731 212.19 167.906 211.868 167.137C211.546 166.369 211.074 165.672 210.479 165.088C209.594 164.204 208.467 163.603 207.24 163.359C206.013 163.116 204.742 163.242 203.586 163.721C202.431 164.2 201.444 165.011 200.749 166.051C200.054 167.091 199.684 168.314 199.684 169.565C199.684 170.815 200.054 172.038 200.749 173.078C201.444 174.118 202.431 174.929 203.586 175.408C204.742 175.887 206.013 176.013 207.24 175.77C208.467 175.527 209.594 174.925 210.479 174.041V174.041Z" fill="white"/>
<path d="M136.173 77.3018C136.852 76.8695 137.386 76.244 137.707 75.506C138.028 74.7679 138.121 73.9508 137.974 73.1595C137.828 72.3681 137.448 71.6386 136.884 71.0645C136.32 70.4904 135.597 70.0981 134.808 69.9375C134.02 69.777 133.201 69.8558 132.458 70.1637C131.714 70.4716 131.079 70.9946 130.635 71.6657C130.191 72.3368 129.957 73.1253 129.964 73.9301C129.971 74.7349 130.218 75.5192 130.674 76.1826C131.267 77.0454 132.171 77.6443 133.197 77.8531C134.223 78.0619 135.29 77.8643 136.173 77.3018V77.3018Z" fill="white"/>
<path d="M124.688 106.353C123.919 107.589 123.534 109.025 123.582 110.48C123.63 111.935 124.11 113.343 124.96 114.525C125.809 115.707 126.991 116.61 128.354 117.119C129.718 117.629 131.202 117.722 132.619 117.386C134.035 117.051 135.32 116.303 136.311 115.236C137.301 114.169 137.953 112.832 138.182 111.395C138.412 109.957 138.209 108.484 137.6 107.162C136.991 105.84 136.003 104.728 134.761 103.968C133.107 102.956 131.12 102.639 129.233 103.086C127.347 103.532 125.713 104.707 124.688 106.353V106.353Z" fill="white"/>
<path d="M123.861 87.4234C122.977 88.3085 122.376 89.4357 122.133 90.6625C121.889 91.8894 122.015 93.1609 122.494 94.3162C122.973 95.4715 123.784 96.4589 124.824 97.1535C125.864 97.8482 127.087 98.2189 128.338 98.2189C129.588 98.2189 130.811 97.8482 131.851 97.1535C132.891 96.4589 133.702 95.4715 134.181 94.3162C134.66 93.1609 134.786 91.8894 134.543 90.6625C134.3 89.4357 133.698 88.3085 132.815 87.4234C132.227 86.8348 131.529 86.368 130.761 86.0494C129.993 85.7308 129.169 85.5668 128.338 85.5668C127.506 85.5668 126.683 85.7308 125.914 86.0494C125.146 86.368 124.449 86.8348 123.861 87.4234V87.4234Z" fill="white"/>
<path d="M220.503 162.168C220.148 162.882 220.013 163.685 220.113 164.475C220.214 165.266 220.546 166.009 221.068 166.612C221.59 167.214 222.279 167.648 223.048 167.86C223.816 168.072 224.63 168.051 225.387 167.801C226.144 167.551 226.81 167.083 227.301 166.455C227.792 165.827 228.087 165.068 228.147 164.273C228.208 163.478 228.032 162.683 227.642 161.988C227.251 161.293 226.664 160.729 225.954 160.367C224.991 159.891 223.879 159.813 222.859 160.15C221.839 160.487 220.993 161.212 220.503 162.168V162.168Z" fill="white"/>
<path d="M215.637 131.024C215.647 129.569 215.224 128.144 214.422 126.929C213.621 125.714 212.477 124.765 211.135 124.201C209.793 123.638 208.314 123.485 206.886 123.763C205.457 124.041 204.143 124.737 203.111 125.763C202.078 126.788 201.374 128.098 201.086 129.524C200.799 130.951 200.941 132.431 201.496 133.776C202.051 135.122 202.992 136.272 204.202 137.082C205.411 137.891 206.834 138.324 208.289 138.324C210.226 138.311 212.08 137.54 213.454 136.175C214.828 134.81 215.612 132.961 215.637 131.024V131.024Z" fill="white"/>
<path d="M226.392 146.499C226.793 144.867 226.538 143.143 225.683 141.697C224.828 140.25 223.44 139.197 221.817 138.762C220.596 138.444 219.307 138.496 218.115 138.911C216.923 139.327 215.881 140.087 215.121 141.095C214.361 142.103 213.918 143.315 213.848 144.575C213.777 145.835 214.083 147.088 214.725 148.175C215.368 149.262 216.318 150.133 217.457 150.679C218.595 151.225 219.87 151.42 221.119 151.241C222.369 151.061 223.537 150.515 224.476 149.671C225.414 148.826 226.081 147.723 226.392 146.499V146.499Z" fill="white"/>
<path d="M113.448 99.9295C113.821 99.2255 113.978 98.4267 113.899 97.6336C113.819 96.8406 113.507 96.0888 113.001 95.4729C112.495 94.857 111.818 94.4047 111.056 94.1726C110.293 93.9406 109.479 93.9393 108.716 94.1689C107.953 94.3985 107.275 94.8489 106.767 95.4631C106.259 96.0774 105.944 96.8281 105.862 97.6209C105.78 98.4136 105.935 99.2129 106.306 99.9181C106.677 100.623 107.249 101.203 107.949 101.584C108.418 101.839 108.933 101.999 109.464 102.054C109.995 102.109 110.532 102.058 111.043 101.904C111.555 101.75 112.031 101.497 112.443 101.158C112.856 100.819 113.197 100.401 113.448 99.9295V99.9295Z" fill="white"/>
<path d="M118.022 130.83C117.984 132.282 118.378 133.713 119.153 134.942C119.928 136.171 121.051 137.143 122.378 137.734C123.705 138.325 125.178 138.509 126.61 138.264C128.042 138.018 129.37 137.353 130.424 136.353C131.478 135.353 132.212 134.063 132.534 132.646C132.855 131.229 132.749 129.749 132.229 128.392C131.709 127.035 130.798 125.863 129.612 125.023C128.426 124.184 127.017 123.715 125.565 123.676C124.6 123.651 123.639 123.815 122.737 124.161C121.836 124.506 121.012 125.026 120.311 125.69C119.611 126.354 119.048 127.15 118.655 128.032C118.262 128.914 118.047 129.865 118.022 130.83Z" fill="white"/>
<path d="M107.997 114.771C107.539 116.391 107.743 118.126 108.565 119.596C109.386 121.065 110.757 122.148 112.377 122.606C113.997 123.064 115.732 122.86 117.201 122.039C118.671 121.217 119.753 119.846 120.212 118.226C120.438 117.424 120.505 116.586 120.408 115.758C120.31 114.93 120.051 114.129 119.644 113.402C119.238 112.674 118.692 112.034 118.038 111.518C117.384 111.001 116.634 110.619 115.832 110.392C115.03 110.165 114.191 110.098 113.364 110.196C112.536 110.293 111.735 110.552 111.008 110.959C110.28 111.366 109.64 111.912 109.123 112.566C108.607 113.22 108.224 113.969 107.997 114.771V114.771Z" fill="white"/>
<g opacity="0.55">
<path d="M228.922 131.268C228.997 132.335 229.488 133.33 230.288 134.04C231.089 134.749 232.136 135.117 233.204 135.063C234.001 135.014 234.765 134.729 235.4 134.246C236.035 133.763 236.513 133.102 236.773 132.347C237.033 131.592 237.063 130.777 236.86 130.005C236.657 129.233 236.23 128.539 235.633 128.009C235.036 127.48 234.295 127.139 233.504 127.031C232.713 126.922 231.908 127.05 231.19 127.399C230.472 127.747 229.873 128.301 229.47 128.989C229.066 129.678 228.875 130.471 228.922 131.268V131.268Z" fill="white"/>
<path d="M209.117 106.693C208.087 105.123 206.496 104.006 204.668 103.572C202.841 103.138 200.917 103.42 199.291 104.361C197.666 105.301 196.462 106.829 195.927 108.629C195.392 110.429 195.567 112.366 196.416 114.041C196.89 114.877 197.526 115.611 198.286 116.199C199.046 116.787 199.916 117.218 200.844 117.467C201.772 117.716 202.74 117.778 203.693 117.649C204.645 117.521 205.563 117.204 206.392 116.718C208.082 115.749 209.318 114.149 209.829 112.27C210.34 110.39 210.084 108.384 209.117 106.693V106.693Z" fill="white"/>
<path d="M226.343 114.674C226.119 113.872 225.74 113.122 225.226 112.466C224.713 111.811 224.075 111.263 223.35 110.854C222.624 110.445 221.826 110.183 220.999 110.083C220.173 109.983 219.334 110.046 218.532 110.27C217.73 110.494 216.98 110.873 216.325 111.387C215.67 111.9 215.122 112.538 214.713 113.263C214.304 113.988 214.042 114.787 213.942 115.613C213.841 116.44 213.905 117.278 214.128 118.08C214.58 119.7 215.657 121.074 217.122 121.9C218.586 122.726 220.319 122.936 221.939 122.484C223.558 122.032 224.932 120.956 225.758 119.491C226.584 118.026 226.794 116.294 226.343 114.674V114.674Z" fill="white"/>
</g>
<g opacity="0.55">
<path d="M105.078 130.878C105.059 130.348 104.936 129.826 104.715 129.343C104.494 128.861 104.181 128.426 103.792 128.064C103.404 127.703 102.947 127.421 102.45 127.236C101.952 127.051 101.423 126.966 100.893 126.985C100.365 126.998 99.844 127.115 99.3614 127.331C98.8789 127.546 98.4438 127.855 98.0816 128.24C97.7195 128.625 97.4374 129.078 97.2516 129.572C97.0659 130.067 96.9803 130.594 96.9998 131.122C97.0158 131.652 97.1361 132.174 97.3538 132.658C97.5716 133.142 97.8826 133.578 98.2689 133.942C98.6552 134.306 99.1094 134.59 99.6056 134.778C100.102 134.966 100.63 135.055 101.16 135.039C101.691 135.023 102.213 134.903 102.697 134.685C103.181 134.467 103.617 134.156 103.981 133.77C104.345 133.384 104.629 132.929 104.817 132.433C105.005 131.937 105.094 131.409 105.078 130.878V130.878Z" fill="white"/>
<path d="M124.494 155.307C125.157 156.615 126.195 157.695 127.476 158.408C128.757 159.121 130.223 159.434 131.683 159.308C133.144 159.181 134.533 158.621 135.673 157.698C136.813 156.776 137.65 155.533 138.078 154.131C138.506 152.728 138.504 151.23 138.073 149.829C137.642 148.427 136.802 147.186 135.661 146.266C134.519 145.346 133.129 144.789 131.668 144.665C130.207 144.542 128.742 144.859 127.462 145.574C125.798 146.491 124.557 148.021 124.003 149.838C123.449 151.655 123.625 153.617 124.494 155.307Z" fill="white"/>
<path d="M107.949 146.353C108.254 147.565 108.911 148.659 109.838 149.497C110.765 150.336 111.919 150.881 113.155 151.065C114.391 151.248 115.654 151.061 116.784 150.528C117.914 149.994 118.86 149.138 119.504 148.067C120.148 146.996 120.461 145.758 120.402 144.51C120.343 143.261 119.916 142.058 119.175 141.053C118.433 140.047 117.41 139.283 116.235 138.858C115.06 138.433 113.785 138.366 112.571 138.664C111.762 138.863 111 139.221 110.329 139.715C109.658 140.21 109.091 140.833 108.661 141.547C108.232 142.262 107.948 143.054 107.825 143.879C107.703 144.704 107.745 145.544 107.949 146.353Z" fill="white"/>
</g>
<g opacity="0.7">
<path d="M220.748 100.513C221.037 100.959 221.413 101.342 221.853 101.641C222.294 101.939 222.789 102.146 223.31 102.251C223.831 102.355 224.368 102.354 224.889 102.248C225.41 102.142 225.905 101.933 226.344 101.633C226.788 101.342 227.171 100.967 227.47 100.528C227.77 100.09 227.979 99.5965 228.088 99.0767C228.196 98.5569 228.201 98.0208 228.102 97.4991C228.003 96.9775 227.803 96.4804 227.511 96.0364C227.222 95.5907 226.846 95.2074 226.406 94.9091C225.966 94.6107 225.47 94.4034 224.949 94.2992C224.428 94.1949 223.891 94.1959 223.37 94.302C222.849 94.4081 222.354 94.6173 221.915 94.9173C221.471 95.2077 221.088 95.583 220.789 96.0215C220.489 96.4601 220.28 96.9534 220.171 97.4732C220.063 97.9929 220.058 98.5289 220.157 99.0506C220.256 99.5722 220.456 100.069 220.748 100.513V100.513Z" fill="white"/>
<path d="M191.307 88.9318C190.056 88.2169 188.622 87.8879 187.185 87.9863C185.748 88.0848 184.372 88.6063 183.231 89.4852C182.09 90.364 181.234 91.5607 180.771 92.925C180.309 94.2892 180.26 95.7598 180.632 97.1515C181.003 98.5433 181.778 99.7938 182.859 100.746C183.94 101.698 185.279 102.309 186.706 102.502C188.134 102.695 189.586 102.461 190.881 101.83C192.176 101.199 193.256 100.199 193.983 98.9562C194.955 97.2712 195.218 95.27 194.717 93.391C194.215 91.5119 192.989 89.9084 191.307 88.9318V88.9318Z" fill="white"/>
<path d="M210.382 87.1313C209.788 86.5498 209.085 86.0911 208.313 85.7812C207.541 85.4714 206.716 85.3166 205.885 85.3256C205.054 85.3347 204.232 85.5073 203.467 85.8338C202.703 86.1603 202.01 86.6343 201.428 87.2286C200.847 87.8229 200.388 88.5259 200.078 89.2975C199.768 90.0691 199.613 90.8943 199.622 91.7257C199.631 92.5571 199.804 93.3787 200.131 94.1434C200.457 94.908 200.931 95.6008 201.526 96.1823C202.718 97.3591 204.327 98.019 206.002 98.019C207.678 98.019 209.286 97.3591 210.479 96.1823C211.082 95.59 211.56 94.8821 211.882 94.1009C212.205 93.3197 212.367 92.4814 212.358 91.6362C212.349 90.7909 212.169 89.9562 211.83 89.1821C211.49 88.408 210.998 87.7105 210.382 87.1313V87.1313Z" fill="white"/>
</g>
<g opacity="0.7">
<path d="M113.301 161.876C112.883 161.195 112.272 160.653 111.545 160.32C110.819 159.986 110.009 159.876 109.22 160.002C108.431 160.129 107.697 160.487 107.111 161.031C106.525 161.576 106.114 162.281 105.93 163.059C105.746 163.837 105.796 164.652 106.076 165.401C106.355 166.151 106.851 166.8 107.499 167.267C108.148 167.735 108.921 167.999 109.72 168.027C110.519 168.055 111.308 167.844 111.988 167.423C112.896 166.861 113.544 165.961 113.79 164.921C114.037 163.881 113.861 162.786 113.301 161.876V161.876Z" fill="white"/>
<path d="M142.352 173.506C143.592 174.268 145.03 174.645 146.484 174.589C147.938 174.533 149.342 174.046 150.519 173.191C151.696 172.336 152.593 171.15 153.096 169.785C153.598 168.419 153.684 166.935 153.343 165.521C153.001 164.107 152.247 162.826 151.177 161.84C150.106 160.855 148.767 160.209 147.33 159.986C145.892 159.762 144.42 159.97 143.101 160.584C141.782 161.198 140.674 162.189 139.919 163.433C139.414 164.253 139.076 165.165 138.924 166.117C138.773 167.068 138.812 168.04 139.038 168.976C139.264 169.913 139.674 170.795 140.242 171.572C140.811 172.35 141.528 173.007 142.352 173.506V173.506Z" fill="white"/>
<path d="M123.716 173.749C124.601 174.633 125.728 175.235 126.955 175.478C128.182 175.721 129.453 175.595 130.608 175.116C131.764 174.637 132.751 173.826 133.446 172.786C134.14 171.746 134.511 170.523 134.511 169.273C134.511 168.022 134.14 166.799 133.446 165.759C132.751 164.719 131.764 163.908 130.608 163.429C129.453 162.95 128.182 162.824 126.955 163.067C125.728 163.311 124.601 163.912 123.716 164.796C122.539 165.989 121.879 167.597 121.879 169.273C121.879 170.948 122.539 172.557 123.716 173.749V173.749Z" fill="white"/>
</g>
<g opacity="0.85">
<path d="M167.17 82.0705C166.21 82.038 165.252 82.1968 164.354 82.5375C163.456 82.8782 162.634 83.3942 161.937 84.0552C161.239 84.7163 160.68 85.5093 160.292 86.3882C159.904 87.2672 159.695 88.2146 159.676 89.1752C159.628 90.6316 160.014 92.0693 160.785 93.3057C161.557 94.5421 162.678 95.5213 164.007 96.1188C165.336 96.7163 166.813 96.9051 168.249 96.6613C169.686 96.4175 171.018 95.7519 172.075 94.7493C173.133 93.7467 173.868 92.4524 174.188 91.0308C174.508 89.6092 174.398 88.1246 173.873 86.7656C173.347 85.4066 172.429 84.2345 171.235 83.3985C170.042 82.5625 168.627 82.1002 167.17 82.0705V82.0705Z" fill="white"/>
<path d="M198.168 77.4963C199.118 77.9411 200.204 77.9986 201.196 77.6566C202.188 77.3146 203.008 76.5999 203.483 75.6639C203.957 74.728 204.048 73.6441 203.737 72.6419C203.427 71.6397 202.738 70.7979 201.817 70.2945C201.343 70.0349 200.821 69.8733 200.282 69.8194C199.744 69.7655 199.2 69.8203 198.683 69.9805C198.167 70.1408 197.687 70.4033 197.274 70.7523C196.861 71.1014 196.522 71.5299 196.277 72.0125C196.033 72.4951 195.887 73.022 195.85 73.5617C195.813 74.1015 195.885 74.6432 196.061 75.1547C196.238 75.6662 196.515 76.1371 196.877 76.5394C197.239 76.9416 197.678 77.267 198.168 77.4963Z" fill="white"/>
<path d="M182.79 71.3163C181.58 71.0112 180.306 71.0713 179.129 71.489C177.952 71.9067 176.925 72.6634 176.178 73.6635C175.43 74.6637 174.995 75.8626 174.928 77.1094C174.861 78.3562 175.164 79.5952 175.799 80.6701C176.435 81.7449 177.374 82.6077 178.499 83.1497C179.624 83.6917 180.884 83.8886 182.121 83.7158C183.357 83.5429 184.515 83.0079 185.448 82.1783C186.381 81.3486 187.048 80.2614 187.365 79.0535C187.576 78.245 187.626 77.4026 187.51 76.5749C187.394 75.7472 187.116 74.9507 186.691 74.2312C186.265 73.5118 185.702 72.8837 185.032 72.3834C184.363 71.8831 183.601 71.5204 182.79 71.3163V71.3163Z" fill="white"/>
</g>
<g opacity="0.85">
<path d="M166.976 179.638C168.431 179.647 169.857 179.224 171.071 178.423C172.286 177.621 173.236 176.477 173.799 175.135C174.363 173.794 174.515 172.315 174.237 170.886C173.959 169.457 173.263 168.144 172.238 167.111C171.212 166.079 169.903 165.374 168.476 165.086C167.05 164.799 165.57 164.942 164.224 165.496C162.879 166.051 161.728 166.993 160.919 168.202C160.109 169.412 159.677 170.834 159.677 172.29C159.677 174.23 160.444 176.092 161.812 177.468C163.179 178.845 165.036 179.625 166.976 179.638V179.638Z" fill="white"/>
<path d="M135.929 184.601C134.997 184.19 133.945 184.146 132.982 184.479C132.019 184.811 131.217 185.495 130.737 186.393C130.257 187.292 130.135 188.338 130.393 189.323C130.652 190.308 131.274 191.159 132.134 191.706C132.603 192.004 133.129 192.202 133.678 192.287C134.228 192.373 134.789 192.344 135.327 192.203C135.864 192.061 136.367 191.81 136.803 191.466C137.24 191.121 137.6 190.69 137.862 190.2C138.124 189.709 138.282 189.17 138.326 188.616C138.37 188.061 138.299 187.504 138.118 186.978C137.936 186.453 137.648 185.971 137.272 185.561C136.895 185.152 136.438 184.825 135.929 184.601V184.601Z" fill="white"/>
<path d="M151.063 189.613C152.266 189.949 153.542 189.922 154.73 189.534C155.917 189.146 156.963 188.414 157.736 187.433C158.509 186.451 158.973 185.262 159.071 184.017C159.169 182.771 158.896 181.524 158.287 180.434C157.677 179.343 156.758 178.457 155.646 177.888C154.533 177.319 153.278 177.093 152.036 177.236C150.795 177.38 149.625 177.888 148.672 178.697C147.719 179.505 147.027 180.578 146.683 181.779C146.233 183.398 146.44 185.13 147.261 186.597C148.081 188.065 149.447 189.149 151.063 189.613Z" fill="white"/>
</g>
</g>
<defs>
<clipPath id="clip0_1301_909">
<rect width="140" height="140" fill="white" transform="translate(97 61)"/>
</clipPath>
</defs>
</svg>
