<svg width="138" height="138" viewBox="0 0 138 138" fill="none" xmlns="http://www.w3.org/2000/svg">
<g clip-path="url(#clip0_1130_2195)">
<path d="M66.292 1.11724L1.12258 66.2867C-0.375447 67.7847 -0.375469 70.2135 1.12256 71.7115L66.292 136.881C67.79 138.379 70.2188 138.379 71.7168 136.881L136.886 71.7115C138.384 70.2135 138.384 67.7847 136.886 66.2867L71.7168 1.11723C70.2188 -0.380803 67.79 -0.380793 66.292 1.11724Z" fill="#FFAA00"/>
<path d="M78.9494 122.582L132.821 68.8186L69.0002 4.99817L5.17969 68.8186L58.7956 122.582H78.9494Z" fill="black"/>
<path d="M69.0074 108.461L33.8457 88.1596V48.3558L69.0074 68.6507V108.461Z" stroke="#58595B" stroke-width="3" stroke-linejoin="round"/>
<path d="M69.0059 108.461L104.168 88.1596V48.3558L69.0059 68.6507V108.461Z" stroke="#58595B" stroke-width="3" stroke-linejoin="round"/>
<path d="M104.149 48.3558L69.0072 68.6507L33.832 48.3491L68.9937 28.0474L104.149 48.3558Z" stroke="#58595B" stroke-width="3" stroke-linejoin="round"/>
<path d="M69.0074 28.0474L33.8457 48.3491V88.1529L69.0074 67.8512V28.0474Z" stroke="#58595B" stroke-width="3" stroke-linejoin="round"/>
<path d="M69.0059 28.0474L104.168 48.3491V88.1529L69.0059 67.8512V28.0474Z" stroke="#58595B" stroke-width="3" stroke-linejoin="round"/>
<path d="M104.149 88.1462L69.0072 67.858L33.832 88.1596L68.9937 108.461L104.149 88.1462Z" stroke="#58595B" stroke-width="3" stroke-linejoin="round"/>
<path d="M68.8058 93.2316C82.2219 93.2316 93.0978 82.3557 93.0978 68.9395C93.0978 55.5234 82.2219 44.6475 68.8058 44.6475C55.3896 44.6475 44.5137 55.5234 44.5137 68.9395C44.5137 82.3557 55.3896 93.2316 68.8058 93.2316Z" fill="white"/>
<path d="M61.1976 81.3931H55.9945L65.4679 54.484H71.4856L80.9721 81.3931H75.769L68.5819 60.0024H68.3716L61.1976 81.3931ZM61.3684 70.8423H75.5588V74.7578H61.3684V70.8423Z" fill="black"/>
</g>
<defs>
<clipPath id="clip0_1130_2195">
<rect width="138" height="138" fill="white"/>
</clipPath>
</defs>
</svg>
