<svg width="147" height="148" viewBox="0 0 147 148" fill="none" xmlns="http://www.w3.org/2000/svg">
<g clip-path="url(#clip0_1130_2368)">
<path d="M73.5 148C114.093 148 147 114.869 147 74C147 33.1309 114.093 0 73.5 0C32.9071 0 0 33.1309 0 74C0 114.869 32.9071 148 73.5 148Z" fill="black"/>
<path d="M63.5906 103.392V102.339H54.178V103.392H53.1322V104.38H53.0547V111.679H53.158C53.2354 112.934 53.6551 113.226 55.0947 113.239H58.129V128.41C58.129 129.307 58.2452 130.184 59.4202 130.165C60.5951 130.145 60.6661 129.3 60.6661 128.397C60.6661 124.666 60.6661 118.985 60.6661 115.261V113.239H63.2872C65.3725 113.239 65.6372 112.973 65.6372 110.899V103.425L63.5906 103.392Z" fill="#FFAA00"/>
<path d="M91.9969 103.392V102.339H82.5843V103.392H81.5384V104.38H81.4609V111.679H81.5642C81.6417 112.934 82.0613 113.226 83.501 113.239H86.5352V128.41C86.5352 129.307 86.6514 130.184 87.7941 130.165C88.9368 130.145 89.0401 129.3 89.0401 128.397C89.0401 124.666 89.0401 118.985 89.0401 115.261V113.239H91.6612C93.7464 113.239 94.0111 112.973 94.0111 110.899V103.425L91.9969 103.392Z" fill="#FFAA00"/>
<path d="M109.389 39.4277H37.6447C35.9975 39.4277 34.6621 40.7721 34.6621 42.4306V105.563C34.6621 107.221 35.9975 108.566 37.6447 108.566H109.389C111.036 108.566 112.371 107.221 112.371 105.563V42.4306C112.371 40.7721 111.036 39.4277 109.389 39.4277Z" fill="#FFAA00"/>
<path d="M108.645 104.815V43.1846H38.3926L38.625 104.672L108.645 104.815Z" fill="black"/>
<path d="M84.7083 57.202L69.8858 72.1253C69.5455 72.468 69.5455 73.0236 69.8858 73.3663L84.7083 88.2896C85.0487 88.6323 85.6005 88.6322 85.9409 88.2896L100.763 73.3662C101.104 73.0236 101.104 72.468 100.763 72.1253L85.9409 57.202C85.6005 56.8593 85.0487 56.8593 84.7083 57.202Z" fill="#FFAA00"/>
<path d="M87.5874 85.0106L99.8406 72.7001L85.3278 58.0886L70.8086 72.7001L83.0037 85.0106H87.5874Z" fill="black"/>
<path d="M85.3269 81.7802L77.3281 77.1329V68.0137L85.3269 72.661V81.7802Z" stroke="#58595B" stroke-width="0.71" stroke-linejoin="round"/>
<path d="M85.3262 81.7802L93.325 77.1329V68.0137L85.3262 72.661V81.7802Z" stroke="#58595B" stroke-width="0.71" stroke-linejoin="round"/>
<path d="M93.3193 68.0137L85.3269 72.661L77.3281 68.0137L85.3269 63.3663L93.3193 68.0137Z" stroke="#58595B" stroke-width="0.71" stroke-linejoin="round"/>
<path d="M85.3269 63.3663L77.3281 68.0137V77.1264L85.3269 72.479V63.3663Z" stroke="#58595B" stroke-width="0.71" stroke-linejoin="round"/>
<path d="M85.3262 63.3663L93.325 68.0137V77.1264L85.3262 72.479V63.3663Z" stroke="#58595B" stroke-width="0.71" stroke-linejoin="round"/>
<path d="M93.3193 77.1264L85.3269 72.4791L77.3281 77.1329L85.3269 81.7802L93.3193 77.1264Z" stroke="#58595B" stroke-width="0.71" stroke-linejoin="round"/>
<path d="M85.3265 82.0077C85.2858 82.006 85.2461 81.9949 85.2103 81.9752L77.2115 77.3279C77.1766 77.3076 77.1479 77.2782 77.1286 77.2426C77.1092 77.2071 77.1 77.1669 77.1018 77.1264V68.0267C77.1 67.9862 77.1092 67.946 77.1286 67.9104C77.1479 67.8749 77.1766 67.8454 77.2115 67.8252C77.2472 67.8058 77.2872 67.7957 77.3277 67.7957C77.3683 67.7957 77.4082 67.8058 77.4439 67.8252L85.4427 72.4725C85.4767 72.4938 85.5047 72.5235 85.5239 72.5588C85.5431 72.5941 85.553 72.6337 85.5525 72.674V81.7737C85.5543 81.8142 85.5451 81.8544 85.5257 81.89C85.5063 81.9255 85.4776 81.955 85.4427 81.9752C85.407 81.9949 85.3673 82.006 85.3265 82.0077ZM77.5795 76.9964L85.1135 81.3772V72.791L77.5795 68.4101V76.9964Z" fill="#58595B"/>
<path d="M85.3281 82.0078C85.2874 82.0061 85.2477 81.995 85.2119 81.9753C85.1763 81.9553 85.1467 81.9261 85.1263 81.8906C85.1058 81.8551 85.0952 81.8147 85.0957 81.7737V72.674C85.0965 72.6333 85.1076 72.5934 85.128 72.5582C85.1483 72.523 85.1772 72.4935 85.2119 72.4726L93.2107 67.8252C93.2453 67.8059 93.2842 67.7957 93.3237 67.7957C93.3633 67.7957 93.4021 67.8059 93.4367 67.8252C93.4723 67.8452 93.5019 67.8744 93.5223 67.9099C93.5428 67.9453 93.5534 67.9857 93.5529 68.0267V77.1264C93.5534 77.1674 93.5428 77.2078 93.5223 77.2433C93.5019 77.2788 93.4723 77.308 93.4367 77.3279L85.4443 81.9753C85.4086 81.995 85.3688 82.0061 85.3281 82.0078ZM85.5541 72.7911V81.3773L93.0945 76.9964V68.4102L85.5541 72.7911Z" fill="#58595B"/>
<path d="M85.3269 72.8885C85.2887 72.8976 85.2489 72.8976 85.2107 72.8885L77.2119 68.2347C77.1773 68.2153 77.1483 68.1871 77.1279 68.1528C77.1075 68.1186 77.0964 68.0796 77.0957 68.0397C77.0952 67.9987 77.1058 67.9583 77.1263 67.9228C77.1467 67.8874 77.1763 67.8581 77.2119 67.8382L85.243 63.1649C85.2766 63.1428 85.3159 63.131 85.356 63.131C85.3961 63.131 85.4354 63.1428 85.469 63.1649L93.4678 67.8122C93.5026 67.8329 93.5314 67.8623 93.5515 67.8977C93.5715 67.933 93.582 67.973 93.582 68.0137C93.582 68.0544 93.5715 68.0943 93.5515 68.1297C93.5314 68.165 93.5026 68.1945 93.4678 68.2152L85.4754 72.8625C85.4297 72.8862 85.3779 72.8953 85.3269 72.8885V72.8885ZM77.7865 68.0137L85.3269 72.3945L92.8609 68.0137L85.3205 63.6263L77.7865 68.0137Z" fill="#58595B"/>
<path d="M77.3277 77.3539C77.2895 77.363 77.2497 77.363 77.2115 77.3539C77.1776 77.3326 77.1496 77.3029 77.1304 77.2676C77.1112 77.2323 77.1013 77.1926 77.1018 77.1524V68.0527C77.1 68.0122 77.1092 67.972 77.1286 67.9364C77.1479 67.9009 77.1766 67.8714 77.2115 67.8512L85.2426 63.1649C85.2772 63.1422 85.3176 63.1301 85.3588 63.1301C85.4001 63.1301 85.4404 63.1422 85.475 63.1649C85.5089 63.1846 85.537 63.213 85.5563 63.2473C85.5756 63.2816 85.5854 63.3205 85.5848 63.3599V72.4596C85.5847 72.4997 85.5745 72.5391 85.5554 72.5743C85.5362 72.6095 85.5086 72.6394 85.475 72.661L77.4762 77.3084C77.4327 77.3389 77.3807 77.3548 77.3277 77.3539V77.3539ZM77.5601 68.1437V76.7234L85.0941 72.3426V63.7628L77.5601 68.1437Z" fill="#58595B"/>
<path d="M93.3259 77.3539C93.2878 77.3635 93.2479 77.3635 93.2097 77.3539L85.2432 72.6805C85.2088 72.6592 85.1802 72.6296 85.16 72.5945C85.1397 72.5593 85.1284 72.5197 85.127 72.479V63.3794C85.1276 63.3394 85.1387 63.3004 85.1591 63.2662C85.1795 63.232 85.2085 63.2038 85.2432 63.1844C85.2777 63.1617 85.3181 63.1497 85.3594 63.1497C85.4006 63.1497 85.441 63.1617 85.4756 63.1844L93.4679 67.8317C93.5035 67.8516 93.5331 67.8809 93.5536 67.9163C93.574 67.9518 93.5846 67.9922 93.5841 68.0332V77.1329C93.5833 77.1737 93.5722 77.2135 93.5519 77.2488C93.5316 77.284 93.5027 77.3135 93.4679 77.3344C93.4242 77.3572 93.3741 77.3641 93.3259 77.3539ZM85.5789 72.3426L93.1193 76.7234V68.1437L85.5789 63.7629V72.3426Z" fill="#58595B"/>
<path d="M85.3205 82.0077C85.2817 82.0068 85.2438 81.9956 85.2107 81.9752L77.2119 77.3279C77.1763 77.3079 77.1467 77.2787 77.1263 77.2432C77.1058 77.2078 77.0952 77.1674 77.0957 77.1264C77.0971 77.0858 77.1085 77.0461 77.1287 77.011C77.149 76.9758 77.1776 76.9462 77.2119 76.9249L85.243 72.2775C85.2787 72.2582 85.3187 72.248 85.3592 72.248C85.3998 72.248 85.4397 72.2582 85.4754 72.2775L93.4678 76.9249C93.5034 76.9448 93.533 76.974 93.5534 77.0095C93.5739 77.045 93.5844 77.0854 93.584 77.1264C93.5833 77.1663 93.5722 77.2053 93.5518 77.2395C93.5314 77.2737 93.5024 77.302 93.4678 77.3214L85.469 81.9752C85.4247 82.003 85.3722 82.0145 85.3205 82.0077V82.0077ZM77.7865 77.1264L85.3205 81.5072L92.8609 77.1264L85.3269 72.7455L77.7865 77.1264Z" fill="#58595B"/>
<path d="M85.2821 78.2963C88.3341 78.2963 90.8083 75.8053 90.8083 72.7325C90.8083 69.6597 88.3341 67.1687 85.2821 67.1687C82.23 67.1687 79.7559 69.6597 79.7559 72.7325C79.7559 75.8053 82.23 78.2963 85.2821 78.2963Z" fill="white"/>
<path d="M83.7267 75.4819H82.584L84.6563 69.5541H85.9475L88.0263 75.4819H86.8836L85.3148 70.7696H85.2696L83.7267 75.4819ZM83.7654 73.1615H86.8642V74.0195H83.7654V73.1615Z" fill="black"/>
<path d="M59.5369 61.4294H63.1521V76.9834C63.1752 78.1531 62.89 79.3081 62.3258 80.3308C61.7933 81.2609 61.0038 82.0152 60.0533 82.5018C58.995 83.0222 57.8286 83.2806 56.6511 83.2557C55.5562 83.2713 54.4707 83.0496 53.4683 82.6057C52.5578 82.2028 51.7822 81.5438 51.2346 80.7078C50.6544 79.7725 50.3665 78.6834 50.4083 77.5814H54.0365C54.0308 78.0776 54.1555 78.5664 54.398 78.9984C54.6269 79.3894 54.9632 79.7054 55.3664 79.9083C55.8104 80.1261 56.2993 80.2352 56.7931 80.2268C57.3125 80.243 57.8262 80.1149 58.278 79.8563C58.6941 79.5939 59.0189 79.2078 59.2076 78.7514C59.4369 78.1775 59.5488 77.5629 59.5369 76.9444V61.4294Z" fill="white"/>
</g>
<defs>
<clipPath id="clip0_1130_2368">
<rect width="147" height="148" fill="white"/>
</clipPath>
</defs>
</svg>
