<svg width="500" height="750" viewBox="0 0 500 750" fill="none" xmlns="http://www.w3.org/2000/svg">
<rect width="500" height="750" fill="#F0F0F0"/>
<rect x="96" y="548" width="32" height="63" fill="#D9D9D9"/>
<rect x="136" y="548" width="32" height="63" fill="#D9D9D9"/>
<rect x="175" y="548" width="32" height="63" fill="#D9D9D9"/>
<rect x="216" y="548" width="32" height="63" fill="#D9D9D9"/>
<rect x="254" y="548" width="33" height="63" fill="#D9D9D9"/>
<rect x="294" y="548" width="32" height="63" fill="#D9D9D9"/>
<rect x="333" y="548" width="33" height="63" fill="#D9D9D9"/>
<rect x="374" y="548" width="32" height="63" fill="#D9D9D9"/>
<path d="M75.1985 72V61.0909H82.038V62.5078H76.8445V65.8317H81.6811V67.2433H76.8445V70.5831H82.1019V72H75.1985ZM85.3659 63.8182L87.1716 67.0036L88.9933 63.8182H90.7352L88.1837 67.9091L90.7565 72H89.0146L87.1716 68.9425L85.3339 72H83.5867L86.1329 67.9091L83.6187 63.8182H85.3659ZM92.3705 75.0682V63.8182H93.9259V65.1445H94.059C94.1514 64.9741 94.2845 64.777 94.4585 64.5533C94.6325 64.3295 94.874 64.1342 95.183 63.9673C95.4919 63.7969 95.9003 63.7116 96.4081 63.7116C97.0686 63.7116 97.6581 63.8786 98.1766 64.2124C98.695 64.5462 99.1017 65.0273 99.3964 65.6559C99.6947 66.2844 99.8438 67.0408 99.8438 67.9251C99.8438 68.8093 99.6965 69.5675 99.4017 70.1996C99.107 70.8281 98.7021 71.3129 98.1872 71.6538C97.6723 71.9911 97.0846 72.1598 96.4241 72.1598C95.9269 72.1598 95.5203 72.0763 95.2043 71.9094C94.8918 71.7425 94.6468 71.5472 94.4692 71.3235C94.2916 71.0998 94.1549 70.9009 94.059 70.7269H93.9632V75.0682H92.3705ZM93.9312 67.9091C93.9312 68.4844 94.0146 68.9886 94.1816 69.4219C94.3485 69.8551 94.5899 70.1942 94.906 70.4393C95.222 70.6808 95.6091 70.8015 96.0672 70.8015C96.5431 70.8015 96.9408 70.6754 97.2604 70.4233C97.58 70.1676 97.8215 69.8214 97.9848 69.3846C98.1517 68.9478 98.2352 68.456 98.2352 67.9091C98.2352 67.3693 98.1535 66.8846 97.9901 66.4549C97.8303 66.0252 97.5889 65.6861 97.2657 65.4375C96.9461 65.1889 96.5466 65.0646 96.0672 65.0646C95.6056 65.0646 95.2149 65.1836 94.8953 65.4215C94.5793 65.6594 94.3396 65.9915 94.1762 66.4176C94.0129 66.8437 93.9312 67.3409 93.9312 67.9091ZM104.009 72.1811C103.491 72.1811 103.022 72.0852 102.603 71.8935C102.184 71.6982 101.852 71.4158 101.607 71.0465C101.366 70.6772 101.245 70.2244 101.245 69.6882C101.245 69.2266 101.334 68.8466 101.511 68.5483C101.689 68.25 101.928 68.0138 102.23 67.8398C102.532 67.6658 102.869 67.5344 103.242 67.4457C103.615 67.3569 103.995 67.2894 104.382 67.2433C104.872 67.1864 105.27 67.1403 105.575 67.1048C105.881 67.0657 106.103 67.0036 106.241 66.9183C106.38 66.8331 106.449 66.6946 106.449 66.5028V66.4656C106.449 66.0004 106.318 65.6399 106.055 65.3842C105.796 65.1286 105.408 65.0007 104.894 65.0007C104.357 65.0007 103.935 65.1197 103.626 65.3576C103.32 65.592 103.109 65.853 102.992 66.1406L101.495 65.7997C101.673 65.3026 101.932 64.9013 102.273 64.5959C102.617 64.2869 103.013 64.0632 103.461 63.9247C103.908 63.7827 104.379 63.7116 104.872 63.7116C105.199 63.7116 105.545 63.7507 105.911 63.8288C106.28 63.9034 106.625 64.0419 106.944 64.2443C107.267 64.4467 107.532 64.7362 107.738 65.1126C107.944 65.4854 108.047 65.9702 108.047 66.5668V72H106.492V70.8814H106.428C106.325 71.0874 106.17 71.2898 105.964 71.4886C105.758 71.6875 105.494 71.8526 105.171 71.984C104.847 72.1154 104.46 72.1811 104.009 72.1811ZM104.356 70.9027C104.796 70.9027 105.172 70.8157 105.485 70.6417C105.801 70.4677 106.041 70.2404 106.204 69.9599C106.371 69.6758 106.454 69.3722 106.454 69.049V67.9943C106.397 68.0511 106.287 68.1044 106.124 68.1541C105.964 68.2003 105.781 68.2411 105.575 68.2766C105.369 68.3086 105.169 68.3388 104.973 68.3672C104.778 68.392 104.615 68.4134 104.483 68.4311C104.174 68.4702 103.892 68.5359 103.636 68.6282C103.384 68.7205 103.182 68.8537 103.029 69.0277C102.88 69.1982 102.805 69.4254 102.805 69.7095C102.805 70.1037 102.951 70.402 103.242 70.6044C103.533 70.8033 103.905 70.9027 104.356 70.9027ZM111.761 67.142V72H110.168V63.8182H111.697V65.1499H111.798C111.987 64.7166 112.281 64.3686 112.683 64.1058C113.087 63.843 113.597 63.7116 114.211 63.7116C114.769 63.7116 115.257 63.8288 115.676 64.0632C116.095 64.294 116.42 64.6385 116.651 65.0966C116.882 65.5547 116.997 66.1211 116.997 66.7958V72H115.404V66.9876C115.404 66.3945 115.25 65.9311 114.941 65.5973C114.632 65.2599 114.208 65.0913 113.668 65.0913C113.299 65.0913 112.97 65.1712 112.683 65.331C112.398 65.4908 112.173 65.7251 112.006 66.0341C111.843 66.3395 111.761 66.7088 111.761 67.142ZM122.196 72.1598C121.536 72.1598 120.946 71.9911 120.428 71.6538C119.913 71.3129 119.508 70.8281 119.213 70.1996C118.922 69.5675 118.776 68.8093 118.776 67.9251C118.776 67.0408 118.924 66.2844 119.218 65.6559C119.517 65.0273 119.925 64.5462 120.444 64.2124C120.962 63.8786 121.55 63.7116 122.207 63.7116C122.714 63.7116 123.123 63.7969 123.432 63.9673C123.744 64.1342 123.986 64.3295 124.156 64.5533C124.33 64.777 124.465 64.9741 124.561 65.1445H124.657V61.0909H126.25V72H124.694V70.7269H124.561C124.465 70.9009 124.327 71.0998 124.146 71.3235C123.968 71.5472 123.723 71.7425 123.411 71.9094C123.098 72.0763 122.693 72.1598 122.196 72.1598ZM122.548 70.8015C123.006 70.8015 123.393 70.6808 123.709 70.4393C124.028 70.1942 124.27 69.8551 124.433 69.4219C124.6 68.9886 124.684 68.4844 124.684 67.9091C124.684 67.3409 124.602 66.8437 124.439 66.4176C124.275 65.9915 124.036 65.6594 123.719 65.4215C123.403 65.1836 123.013 65.0646 122.548 65.0646C122.068 65.0646 121.669 65.1889 121.349 65.4375C121.029 65.6861 120.788 66.0252 120.625 66.4549C120.465 66.8846 120.385 67.3693 120.385 67.9091C120.385 68.456 120.467 68.9478 120.63 69.3846C120.793 69.8214 121.035 70.1676 121.354 70.4233C121.678 70.6754 122.075 70.8015 122.548 70.8015ZM132.049 72.1651C131.243 72.1651 130.549 71.9929 129.966 71.6484C129.388 71.3004 128.94 70.8121 128.624 70.1836C128.312 69.5515 128.155 68.8111 128.155 67.9624C128.155 67.1243 128.312 66.3857 128.624 65.7464C128.94 65.1072 129.38 64.6083 129.945 64.2496C130.513 63.891 131.177 63.7116 131.937 63.7116C132.399 63.7116 132.846 63.788 133.28 63.9407C133.713 64.0934 134.102 64.3331 134.446 64.6598C134.791 64.9865 135.062 65.4109 135.261 65.9329C135.46 66.4513 135.559 67.0817 135.559 67.8239V68.3885H129.055V67.1953H133.999C133.999 66.7763 133.913 66.4052 133.743 66.082C133.573 65.7553 133.333 65.4979 133.024 65.3097C132.718 65.1214 132.36 65.0273 131.948 65.0273C131.5 65.0273 131.11 65.1374 130.776 65.3576C130.446 65.5742 130.19 65.8583 130.009 66.2099C129.831 66.5579 129.743 66.9361 129.743 67.3445V68.2766C129.743 68.8235 129.839 69.2887 130.03 69.6722C130.226 70.0558 130.497 70.3487 130.845 70.5511C131.193 70.75 131.6 70.8494 132.065 70.8494C132.367 70.8494 132.642 70.8068 132.891 70.7216C133.139 70.6328 133.354 70.5014 133.535 70.3274C133.716 70.1534 133.855 69.9386 133.951 69.6829L135.458 69.9545C135.337 70.3984 135.121 70.7873 134.808 71.1211C134.499 71.4513 134.111 71.7088 133.642 71.8935C133.177 72.0746 132.646 72.1651 132.049 72.1651ZM140.389 72.1598C139.729 72.1598 139.139 71.9911 138.621 71.6538C138.106 71.3129 137.701 70.8281 137.406 70.1996C137.115 69.5675 136.97 68.8093 136.97 67.9251C136.97 67.0408 137.117 66.2844 137.412 65.6559C137.71 65.0273 138.118 64.5462 138.637 64.2124C139.155 63.8786 139.743 63.7116 140.4 63.7116C140.908 63.7116 141.316 63.7969 141.625 63.9673C141.938 64.1342 142.179 64.3295 142.35 64.5533C142.524 64.777 142.659 64.9741 142.754 65.1445H142.85V61.0909H144.443V72H142.888V70.7269H142.754C142.659 70.9009 142.52 71.0998 142.339 71.3235C142.161 71.5472 141.916 71.7425 141.604 71.9094C141.291 72.0763 140.887 72.1598 140.389 72.1598ZM140.741 70.8015C141.199 70.8015 141.586 70.6808 141.902 70.4393C142.222 70.1942 142.463 69.8551 142.627 69.4219C142.794 68.9886 142.877 68.4844 142.877 67.9091C142.877 67.3409 142.795 66.8437 142.632 66.4176C142.469 65.9915 142.229 65.6594 141.913 65.4215C141.597 65.1836 141.206 65.0646 140.741 65.0646C140.262 65.0646 139.862 65.1889 139.542 65.4375C139.223 65.6861 138.981 66.0252 138.818 66.4549C138.658 66.8846 138.578 67.3693 138.578 67.9091C138.578 68.456 138.66 68.9478 138.823 69.3846C138.987 69.8214 139.228 70.1676 139.548 70.4233C139.871 70.6754 140.269 70.8015 140.741 70.8015ZM154.505 63.8182V65.0966H150.036V63.8182H154.505ZM151.235 61.858H152.827V69.5977C152.827 69.9066 152.873 70.1392 152.966 70.2955C153.058 70.4482 153.177 70.5529 153.323 70.6097C153.472 70.663 153.633 70.6896 153.807 70.6896C153.935 70.6896 154.047 70.6808 154.143 70.663C154.239 70.6452 154.313 70.631 154.367 70.6204L154.654 71.9361C154.562 71.9716 154.431 72.0071 154.26 72.0426C154.09 72.0817 153.877 72.103 153.621 72.1065C153.202 72.1136 152.811 72.0391 152.449 71.8828C152.087 71.7266 151.794 71.4851 151.57 71.1584C151.346 70.8317 151.235 70.4215 151.235 69.9279V61.858ZM159.705 72.1651C158.899 72.1651 158.205 71.9929 157.623 71.6484C157.044 71.3004 156.596 70.8121 156.28 70.1836C155.968 69.5515 155.812 68.8111 155.812 67.9624C155.812 67.1243 155.968 66.3857 156.28 65.7464C156.596 65.1072 157.037 64.6083 157.601 64.2496C158.169 63.891 158.834 63.7116 159.593 63.7116C160.055 63.7116 160.503 63.788 160.936 63.9407C161.369 64.0934 161.758 64.3331 162.102 64.6598C162.447 64.9865 162.718 65.4109 162.917 65.9329C163.116 66.4513 163.216 67.0817 163.216 67.8239V68.3885H156.712V67.1953H161.655C161.655 66.7763 161.57 66.4052 161.399 66.082C161.229 65.7553 160.989 65.4979 160.68 65.3097C160.375 65.1214 160.016 65.0273 159.604 65.0273C159.157 65.0273 158.766 65.1374 158.432 65.3576C158.102 65.5742 157.846 65.8583 157.665 66.2099C157.488 66.5579 157.399 66.9361 157.399 67.3445V68.2766C157.399 68.8235 157.495 69.2887 157.687 69.6722C157.882 70.0558 158.153 70.3487 158.502 70.5511C158.85 70.75 159.256 70.8494 159.721 70.8494C160.023 70.8494 160.298 70.8068 160.547 70.7216C160.796 70.6328 161.01 70.5014 161.191 70.3274C161.373 70.1534 161.511 69.9386 161.607 69.6829L163.114 69.9545C162.994 70.3984 162.777 70.7873 162.465 71.1211C162.156 71.4513 161.767 71.7088 161.298 71.8935C160.833 72.0746 160.302 72.1651 159.705 72.1651ZM168.429 72.1651C167.637 72.1651 166.955 71.9858 166.384 71.6271C165.816 71.2649 165.379 70.766 165.073 70.1303C164.768 69.4947 164.615 68.7667 164.615 67.9464C164.615 67.1154 164.771 66.3821 165.084 65.7464C165.396 65.1072 165.837 64.6083 166.405 64.2496C166.973 63.891 167.643 63.7116 168.413 63.7116C169.035 63.7116 169.589 63.8271 170.075 64.0579C170.562 64.2852 170.954 64.6048 171.252 65.0167C171.554 65.4286 171.733 65.9098 171.79 66.4602H170.24C170.155 66.0767 169.96 65.7464 169.654 65.4695C169.352 65.1925 168.948 65.054 168.44 65.054C167.996 65.054 167.607 65.1712 167.273 65.4055C166.943 65.6364 166.686 65.9666 166.501 66.3963C166.316 66.8224 166.224 67.3267 166.224 67.9091C166.224 68.5057 166.314 69.0206 166.496 69.4538C166.677 69.8871 166.932 70.2227 167.263 70.4606C167.596 70.6985 167.989 70.8175 168.44 70.8175C168.742 70.8175 169.015 70.7624 169.26 70.6523C169.509 70.5387 169.716 70.3771 169.883 70.1676C170.054 69.9581 170.173 69.706 170.24 69.4112H171.79C171.733 69.9403 171.561 70.4126 171.274 70.8281C170.986 71.2436 170.601 71.5703 170.118 71.8082C169.638 72.0462 169.075 72.1651 168.429 72.1651ZM175.086 67.142V72H173.494V61.0909H175.065V65.1499H175.166C175.358 64.7095 175.651 64.3597 176.045 64.1005C176.439 63.8413 176.954 63.7116 177.59 63.7116C178.151 63.7116 178.641 63.8271 179.06 64.0579C179.483 64.2887 179.809 64.6332 180.04 65.0913C180.274 65.5458 180.392 66.114 180.392 66.7958V72H178.799V66.9876C178.799 66.3874 178.644 65.9222 178.335 65.592C178.027 65.2582 177.597 65.0913 177.046 65.0913C176.67 65.0913 176.333 65.1712 176.034 65.331C175.74 65.4908 175.507 65.7251 175.337 66.0341C175.17 66.3395 175.086 66.7088 175.086 67.142ZM192.618 65.8157L191.174 66.0714C191.114 65.8867 191.018 65.7109 190.887 65.544C190.759 65.3771 190.585 65.2404 190.365 65.1339C190.144 65.0273 189.869 64.9741 189.539 64.9741C189.088 64.9741 188.711 65.0753 188.41 65.2777C188.108 65.4766 187.957 65.734 187.957 66.0501C187.957 66.3235 188.058 66.5437 188.26 66.7106C188.463 66.8775 188.79 67.0142 189.241 67.1207L190.54 67.419C191.293 67.593 191.854 67.8612 192.224 68.2234C192.593 68.5856 192.778 69.0561 192.778 69.6349C192.778 70.125 192.635 70.5618 192.351 70.9453C192.071 71.3253 191.678 71.6236 191.174 71.8402C190.673 72.0568 190.093 72.1651 189.432 72.1651C188.516 72.1651 187.769 71.9698 187.19 71.5792C186.611 71.185 186.256 70.6257 186.124 69.9013L187.664 69.6669C187.76 70.0682 187.957 70.3718 188.255 70.5778C188.553 70.7802 188.942 70.8814 189.422 70.8814C189.944 70.8814 190.361 70.7731 190.673 70.5565C190.986 70.3363 191.142 70.0682 191.142 69.7521C191.142 69.4964 191.046 69.2816 190.855 69.1076C190.666 68.9336 190.377 68.8022 189.986 68.7134L188.601 68.4098C187.838 68.2358 187.273 67.9588 186.907 67.5788C186.545 67.1989 186.364 66.7177 186.364 66.1353C186.364 65.6523 186.499 65.2298 186.769 64.8675C187.039 64.5053 187.412 64.223 187.888 64.0206C188.363 63.8146 188.909 63.7116 189.523 63.7116C190.407 63.7116 191.103 63.9034 191.611 64.2869C192.119 64.6669 192.454 65.1765 192.618 65.8157ZM198.348 63.8182V65.0966H193.879V63.8182H198.348ZM195.077 61.858H196.67V69.5977C196.67 69.9066 196.716 70.1392 196.809 70.2955C196.901 70.4482 197.02 70.5529 197.165 70.6097C197.315 70.663 197.476 70.6896 197.65 70.6896C197.778 70.6896 197.89 70.6808 197.986 70.663C198.082 70.6452 198.156 70.631 198.209 70.6204L198.497 71.9361C198.405 71.9716 198.273 72.0071 198.103 72.0426C197.932 72.0817 197.719 72.103 197.464 72.1065C197.045 72.1136 196.654 72.0391 196.292 71.8828C195.93 71.7266 195.637 71.4851 195.413 71.1584C195.189 70.8317 195.077 70.4215 195.077 69.9279V61.858ZM202.491 72.1811C201.972 72.1811 201.504 72.0852 201.085 71.8935C200.665 71.6982 200.333 71.4158 200.088 71.0465C199.847 70.6772 199.726 70.2244 199.726 69.6882C199.726 69.2266 199.815 68.8466 199.993 68.5483C200.17 68.25 200.41 68.0138 200.712 67.8398C201.013 67.6658 201.351 67.5344 201.724 67.4457C202.097 67.3569 202.477 67.2894 202.864 67.2433C203.354 67.1864 203.751 67.1403 204.057 67.1048C204.362 67.0657 204.584 67.0036 204.723 66.9183C204.861 66.8331 204.93 66.6946 204.93 66.5028V66.4656C204.93 66.0004 204.799 65.6399 204.536 65.3842C204.277 65.1286 203.89 65.0007 203.375 65.0007C202.839 65.0007 202.416 65.1197 202.107 65.3576C201.802 65.592 201.591 65.853 201.473 66.1406L199.977 65.7997C200.154 65.3026 200.413 64.9013 200.754 64.5959C201.099 64.2869 201.495 64.0632 201.942 63.9247C202.39 63.7827 202.86 63.7116 203.354 63.7116C203.68 63.7116 204.027 63.7507 204.392 63.8288C204.762 63.9034 205.106 64.0419 205.426 64.2443C205.749 64.4467 206.013 64.7362 206.219 65.1126C206.425 65.4854 206.528 65.9702 206.528 66.5668V72H204.973V70.8814H204.909C204.806 71.0874 204.652 71.2898 204.446 71.4886C204.24 71.6875 203.975 71.8526 203.652 71.984C203.329 72.1154 202.942 72.1811 202.491 72.1811ZM202.837 70.9027C203.277 70.9027 203.654 70.8157 203.966 70.6417C204.282 70.4677 204.522 70.2404 204.685 69.9599C204.852 69.6758 204.936 69.3722 204.936 69.049V67.9943C204.879 68.0511 204.769 68.1044 204.605 68.1541C204.446 68.2003 204.263 68.2411 204.057 68.2766C203.851 68.3086 203.65 68.3388 203.455 68.3672C203.26 68.392 203.096 68.4134 202.965 68.4311C202.656 68.4702 202.374 68.5359 202.118 68.6282C201.866 68.7205 201.663 68.8537 201.511 69.0277C201.362 69.1982 201.287 69.4254 201.287 69.7095C201.287 70.1037 201.433 70.402 201.724 70.6044C202.015 70.8033 202.386 70.9027 202.837 70.9027ZM212.096 72.1651C211.304 72.1651 210.622 71.9858 210.051 71.6271C209.483 71.2649 209.046 70.766 208.74 70.1303C208.435 69.4947 208.282 68.7667 208.282 67.9464C208.282 67.1154 208.438 66.3821 208.751 65.7464C209.063 65.1072 209.504 64.6083 210.072 64.2496C210.64 63.891 211.31 63.7116 212.08 63.7116C212.702 63.7116 213.256 63.8271 213.742 64.0579C214.229 64.2852 214.621 64.6048 214.919 65.0167C215.221 65.4286 215.4 65.9098 215.457 66.4602H213.907C213.822 66.0767 213.627 65.7464 213.321 65.4695C213.019 65.1925 212.615 65.054 212.107 65.054C211.663 65.054 211.274 65.1712 210.94 65.4055C210.61 65.6364 210.353 65.9666 210.168 66.3963C209.983 66.8224 209.891 67.3267 209.891 67.9091C209.891 68.5057 209.981 69.0206 210.163 69.4538C210.344 69.8871 210.599 70.2227 210.93 70.4606C211.263 70.6985 211.656 70.8175 212.107 70.8175C212.409 70.8175 212.682 70.7624 212.927 70.6523C213.176 70.5387 213.383 70.3771 213.55 70.1676C213.721 69.9581 213.84 69.706 213.907 69.4112H215.457C215.4 69.9403 215.228 70.4126 214.941 70.8281C214.653 71.2436 214.268 71.5703 213.785 71.8082C213.305 72.0462 212.742 72.1651 212.096 72.1651ZM218.625 69.2248L218.615 67.2805H218.892L222.152 63.8182H224.059L220.341 67.7599H220.09L218.625 69.2248ZM217.161 72V61.0909H218.753V72H217.161ZM222.327 72L219.398 68.1115L220.495 66.9982L224.282 72H222.327Z" fill="#8C8C8C"/>
<rect x="96" y="238" width="310" height="243" fill="#FF8300"/>
<rect x="96" y="135" width="310" height="44" fill="white"/>
<path d="M205.847 163H203.984L208.171 151.364H210.2L214.387 163H212.523L209.234 153.477H209.143L205.847 163ZM206.16 158.443H212.205V159.92H206.16V158.443ZM215.931 166.273V154.273H217.59V155.688H217.732C217.831 155.506 217.973 155.295 218.158 155.057C218.344 154.818 218.602 154.61 218.931 154.432C219.261 154.25 219.696 154.159 220.238 154.159C220.942 154.159 221.571 154.337 222.124 154.693C222.677 155.049 223.111 155.562 223.425 156.233C223.744 156.903 223.903 157.71 223.903 158.653C223.903 159.597 223.746 160.405 223.431 161.08C223.117 161.75 222.685 162.267 222.136 162.631C221.586 162.991 220.96 163.17 220.255 163.17C219.725 163.17 219.291 163.081 218.954 162.903C218.621 162.725 218.359 162.517 218.17 162.278C217.98 162.04 217.835 161.828 217.732 161.642H217.63V166.273H215.931ZM217.596 158.636C217.596 159.25 217.685 159.788 217.863 160.25C218.041 160.712 218.299 161.074 218.636 161.335C218.973 161.593 219.386 161.722 219.874 161.722C220.382 161.722 220.806 161.587 221.147 161.318C221.488 161.045 221.746 160.676 221.92 160.21C222.098 159.744 222.187 159.22 222.187 158.636C222.187 158.061 222.1 157.544 221.925 157.085C221.755 156.627 221.497 156.265 221.153 156C220.812 155.735 220.386 155.602 219.874 155.602C219.382 155.602 218.965 155.729 218.624 155.983C218.287 156.237 218.031 156.591 217.857 157.045C217.683 157.5 217.596 158.03 217.596 158.636ZM225.806 166.273V154.273H227.465V155.688H227.607C227.706 155.506 227.848 155.295 228.033 155.057C228.219 154.818 228.477 154.61 228.806 154.432C229.136 154.25 229.571 154.159 230.113 154.159C230.817 154.159 231.446 154.337 231.999 154.693C232.552 155.049 232.986 155.562 233.3 156.233C233.619 156.903 233.778 157.71 233.778 158.653C233.778 159.597 233.621 160.405 233.306 161.08C232.992 161.75 232.56 162.267 232.011 162.631C231.461 162.991 230.835 163.17 230.13 163.17C229.6 163.17 229.166 163.081 228.829 162.903C228.496 162.725 228.234 162.517 228.045 162.278C227.855 162.04 227.71 161.828 227.607 161.642H227.505V166.273H225.806ZM227.471 158.636C227.471 159.25 227.56 159.788 227.738 160.25C227.916 160.712 228.174 161.074 228.511 161.335C228.848 161.593 229.261 161.722 229.749 161.722C230.257 161.722 230.681 161.587 231.022 161.318C231.363 161.045 231.621 160.676 231.795 160.21C231.973 159.744 232.062 159.22 232.062 158.636C232.062 158.061 231.975 157.544 231.8 157.085C231.63 156.627 231.372 156.265 231.028 156C230.687 155.735 230.261 155.602 229.749 155.602C229.257 155.602 228.84 155.729 228.499 155.983C228.162 156.237 227.906 156.591 227.732 157.045C227.558 157.5 227.471 158.03 227.471 158.636ZM237.38 151.364V163H235.681V151.364H237.38ZM239.665 163V154.273H241.364V163H239.665ZM240.523 152.926C240.228 152.926 239.974 152.828 239.762 152.631C239.554 152.43 239.45 152.191 239.45 151.915C239.45 151.634 239.554 151.396 239.762 151.199C239.974 150.998 240.228 150.898 240.523 150.898C240.819 150.898 241.071 150.998 241.279 151.199C241.491 151.396 241.597 151.634 241.597 151.915C241.597 152.191 241.491 152.43 241.279 152.631C241.071 152.828 240.819 152.926 240.523 152.926ZM247.326 163.176C246.481 163.176 245.754 162.985 245.144 162.602C244.538 162.216 244.072 161.684 243.746 161.006C243.421 160.328 243.258 159.551 243.258 158.676C243.258 157.79 243.424 157.008 243.758 156.33C244.091 155.648 244.561 155.116 245.167 154.733C245.773 154.35 246.487 154.159 247.309 154.159C247.972 154.159 248.563 154.282 249.082 154.528C249.601 154.771 250.019 155.112 250.337 155.551C250.659 155.991 250.851 156.504 250.911 157.091H249.258C249.167 156.682 248.959 156.33 248.633 156.034C248.311 155.739 247.879 155.591 247.337 155.591C246.864 155.591 246.449 155.716 246.093 155.966C245.741 156.212 245.466 156.564 245.269 157.023C245.072 157.477 244.974 158.015 244.974 158.636C244.974 159.273 245.07 159.822 245.263 160.284C245.457 160.746 245.729 161.104 246.082 161.358C246.438 161.612 246.856 161.739 247.337 161.739C247.659 161.739 247.951 161.68 248.212 161.562C248.478 161.441 248.699 161.269 248.877 161.045C249.059 160.822 249.186 160.553 249.258 160.239H250.911C250.851 160.803 250.667 161.307 250.36 161.75C250.053 162.193 249.642 162.542 249.127 162.795C248.616 163.049 248.015 163.176 247.326 163.176ZM255.268 163.193C254.715 163.193 254.215 163.091 253.768 162.886C253.321 162.678 252.967 162.377 252.705 161.983C252.448 161.589 252.319 161.106 252.319 160.534C252.319 160.042 252.414 159.636 252.603 159.318C252.792 159 253.048 158.748 253.37 158.562C253.692 158.377 254.052 158.237 254.45 158.142C254.847 158.047 255.253 157.975 255.665 157.926C256.188 157.866 256.612 157.816 256.938 157.778C257.264 157.737 257.501 157.67 257.648 157.58C257.796 157.489 257.87 157.341 257.87 157.136V157.097C257.87 156.6 257.73 156.216 257.45 155.943C257.173 155.67 256.76 155.534 256.211 155.534C255.639 155.534 255.188 155.661 254.859 155.915C254.533 156.165 254.308 156.443 254.183 156.75L252.586 156.386C252.775 155.856 253.052 155.428 253.415 155.102C253.783 154.773 254.205 154.534 254.683 154.386C255.16 154.235 255.662 154.159 256.188 154.159C256.537 154.159 256.906 154.201 257.296 154.284C257.69 154.364 258.058 154.511 258.398 154.727C258.743 154.943 259.025 155.252 259.245 155.653C259.465 156.051 259.575 156.568 259.575 157.205V163H257.915V161.807H257.847C257.737 162.027 257.573 162.242 257.353 162.455C257.133 162.667 256.851 162.843 256.506 162.983C256.162 163.123 255.749 163.193 255.268 163.193ZM255.637 161.83C256.107 161.83 256.508 161.737 256.842 161.551C257.179 161.366 257.434 161.123 257.609 160.824C257.787 160.521 257.876 160.197 257.876 159.852V158.727C257.815 158.788 257.698 158.845 257.523 158.898C257.353 158.947 257.158 158.991 256.938 159.028C256.719 159.062 256.504 159.095 256.296 159.125C256.088 159.152 255.914 159.174 255.773 159.193C255.444 159.235 255.143 159.305 254.87 159.403C254.601 159.502 254.385 159.644 254.222 159.83C254.063 160.011 253.984 160.254 253.984 160.557C253.984 160.977 254.139 161.295 254.45 161.511C254.76 161.723 255.156 161.83 255.637 161.83ZM265.911 154.273V155.636H261.144V154.273H265.911ZM262.423 152.182H264.121V160.438C264.121 160.767 264.171 161.015 264.269 161.182C264.368 161.345 264.495 161.456 264.65 161.517C264.809 161.574 264.981 161.602 265.167 161.602C265.303 161.602 265.423 161.593 265.525 161.574C265.627 161.555 265.707 161.54 265.763 161.528L266.07 162.932C265.972 162.97 265.832 163.008 265.65 163.045C265.468 163.087 265.241 163.11 264.968 163.114C264.521 163.121 264.104 163.042 263.718 162.875C263.332 162.708 263.019 162.451 262.781 162.102C262.542 161.754 262.423 161.316 262.423 160.79V152.182ZM267.79 163V154.273H269.489V163H267.79ZM268.648 152.926C268.353 152.926 268.099 152.828 267.887 152.631C267.679 152.43 267.575 152.191 267.575 151.915C267.575 151.634 267.679 151.396 267.887 151.199C268.099 150.998 268.353 150.898 268.648 150.898C268.944 150.898 269.196 150.998 269.404 151.199C269.616 151.396 269.722 151.634 269.722 151.915C269.722 152.191 269.616 152.43 269.404 152.631C269.196 152.828 268.944 152.926 268.648 152.926ZM275.451 163.176C274.633 163.176 273.919 162.989 273.309 162.614C272.699 162.239 272.226 161.714 271.888 161.04C271.551 160.366 271.383 159.578 271.383 158.676C271.383 157.771 271.551 156.979 271.888 156.301C272.226 155.623 272.699 155.097 273.309 154.722C273.919 154.347 274.633 154.159 275.451 154.159C276.269 154.159 276.983 154.347 277.593 154.722C278.203 155.097 278.676 155.623 279.013 156.301C279.351 156.979 279.519 157.771 279.519 158.676C279.519 159.578 279.351 160.366 279.013 161.04C278.676 161.714 278.203 162.239 277.593 162.614C276.983 162.989 276.269 163.176 275.451 163.176ZM275.457 161.75C275.987 161.75 276.426 161.61 276.775 161.33C277.123 161.049 277.381 160.676 277.548 160.21C277.718 159.744 277.803 159.231 277.803 158.67C277.803 158.114 277.718 157.602 277.548 157.136C277.381 156.667 277.123 156.29 276.775 156.006C276.426 155.722 275.987 155.58 275.457 155.58C274.923 155.58 274.479 155.722 274.127 156.006C273.779 156.29 273.519 156.667 273.349 157.136C273.182 157.602 273.099 158.114 273.099 158.67C273.099 159.231 273.182 159.744 273.349 160.21C273.519 160.676 273.779 161.049 274.127 161.33C274.479 161.61 274.923 161.75 275.457 161.75ZM283.114 157.818V163H281.415V154.273H283.046V155.693H283.154C283.355 155.231 283.669 154.86 284.097 154.58C284.529 154.299 285.073 154.159 285.728 154.159C286.323 154.159 286.844 154.284 287.29 154.534C287.737 154.78 288.084 155.148 288.33 155.636C288.576 156.125 288.7 156.729 288.7 157.449V163H287.001V157.653C287.001 157.021 286.836 156.527 286.506 156.17C286.177 155.811 285.724 155.631 285.148 155.631C284.754 155.631 284.404 155.716 284.097 155.886C283.794 156.057 283.554 156.307 283.376 156.636C283.201 156.962 283.114 157.356 283.114 157.818ZM297.518 156.403L295.978 156.676C295.914 156.479 295.811 156.292 295.671 156.114C295.535 155.936 295.349 155.79 295.114 155.676C294.879 155.562 294.586 155.506 294.234 155.506C293.753 155.506 293.351 155.614 293.029 155.83C292.707 156.042 292.546 156.316 292.546 156.653C292.546 156.945 292.654 157.18 292.87 157.358C293.086 157.536 293.434 157.682 293.915 157.795L295.302 158.114C296.105 158.299 296.703 158.585 297.097 158.972C297.491 159.358 297.688 159.86 297.688 160.477C297.688 161 297.537 161.466 297.234 161.875C296.934 162.28 296.516 162.598 295.978 162.83C295.444 163.061 294.825 163.176 294.12 163.176C293.143 163.176 292.345 162.968 291.728 162.551C291.111 162.131 290.732 161.534 290.592 160.761L292.234 160.511C292.336 160.939 292.546 161.263 292.864 161.483C293.183 161.699 293.597 161.807 294.109 161.807C294.665 161.807 295.111 161.691 295.444 161.46C295.777 161.225 295.944 160.939 295.944 160.602C295.944 160.33 295.842 160.1 295.637 159.915C295.436 159.729 295.128 159.589 294.711 159.494L293.234 159.17C292.419 158.985 291.817 158.689 291.427 158.284C291.04 157.879 290.847 157.366 290.847 156.744C290.847 156.229 290.991 155.778 291.279 155.392C291.567 155.006 291.965 154.705 292.472 154.489C292.98 154.269 293.561 154.159 294.217 154.159C295.16 154.159 295.902 154.364 296.444 154.773C296.986 155.178 297.344 155.722 297.518 156.403Z" fill="black"/>
<rect x="113" y="256" width="277" height="44" fill="white"/>
<path d="M231.597 284H229.734L233.921 272.364H235.95L240.137 284H238.273L234.984 274.477H234.893L231.597 284ZM231.91 279.443H237.955V280.92H231.91V279.443ZM241.817 284V272.364H245.965C246.871 272.364 247.621 272.528 248.215 272.858C248.81 273.187 249.255 273.638 249.55 274.21C249.846 274.778 249.994 275.419 249.994 276.131C249.994 276.847 249.844 277.491 249.545 278.062C249.249 278.631 248.802 279.081 248.204 279.415C247.609 279.744 246.861 279.909 245.96 279.909H243.107V278.42H245.8C246.372 278.42 246.836 278.322 247.192 278.125C247.549 277.924 247.81 277.652 247.977 277.307C248.143 276.962 248.227 276.57 248.227 276.131C248.227 275.691 248.143 275.301 247.977 274.96C247.81 274.619 247.547 274.352 247.187 274.159C246.831 273.966 246.361 273.869 245.778 273.869H243.573V284H241.817ZM253.808 272.364V284H252.052V272.364H253.808ZM262.768 277.403L261.228 277.676C261.164 277.479 261.061 277.292 260.921 277.114C260.785 276.936 260.599 276.79 260.364 276.676C260.129 276.562 259.836 276.506 259.484 276.506C259.003 276.506 258.601 276.614 258.279 276.83C257.957 277.042 257.796 277.316 257.796 277.653C257.796 277.945 257.904 278.18 258.12 278.358C258.336 278.536 258.684 278.682 259.165 278.795L260.552 279.114C261.355 279.299 261.953 279.585 262.347 279.972C262.741 280.358 262.938 280.86 262.938 281.477C262.938 282 262.787 282.466 262.484 282.875C262.184 283.28 261.766 283.598 261.228 283.83C260.694 284.061 260.075 284.176 259.37 284.176C258.393 284.176 257.595 283.968 256.978 283.551C256.361 283.131 255.982 282.534 255.842 281.761L257.484 281.511C257.586 281.939 257.796 282.263 258.114 282.483C258.433 282.699 258.847 282.807 259.359 282.807C259.915 282.807 260.361 282.691 260.694 282.46C261.027 282.225 261.194 281.939 261.194 281.602C261.194 281.33 261.092 281.1 260.887 280.915C260.686 280.729 260.378 280.589 259.961 280.494L258.484 280.17C257.669 279.985 257.067 279.689 256.677 279.284C256.29 278.879 256.097 278.366 256.097 277.744C256.097 277.229 256.241 276.778 256.529 276.392C256.817 276.006 257.215 275.705 257.722 275.489C258.23 275.269 258.811 275.159 259.467 275.159C260.41 275.159 261.152 275.364 261.694 275.773C262.236 276.178 262.594 276.722 262.768 277.403Z" fill="black"/>
<rect x="113" y="337" width="277" height="44" fill="white"/>
<path d="M177.2 364V352.364H181.462C182.287 352.364 182.971 352.5 183.513 352.773C184.054 353.042 184.46 353.407 184.729 353.869C184.998 354.328 185.132 354.845 185.132 355.42C185.132 355.905 185.043 356.314 184.865 356.648C184.687 356.977 184.448 357.242 184.149 357.443C183.854 357.64 183.528 357.784 183.172 357.875V357.989C183.558 358.008 183.935 358.133 184.303 358.364C184.674 358.591 184.981 358.915 185.223 359.335C185.465 359.756 185.587 360.267 185.587 360.869C185.587 361.464 185.446 361.998 185.166 362.472C184.89 362.941 184.462 363.314 183.882 363.591C183.303 363.864 182.562 364 181.661 364H177.2ZM178.956 362.494H181.49C182.331 362.494 182.933 362.331 183.297 362.006C183.661 361.68 183.842 361.273 183.842 360.784C183.842 360.417 183.75 360.08 183.564 359.773C183.378 359.466 183.113 359.222 182.768 359.04C182.428 358.858 182.022 358.767 181.553 358.767H178.956V362.494ZM178.956 357.398H181.308C181.702 357.398 182.056 357.322 182.371 357.17C182.689 357.019 182.941 356.807 183.126 356.534C183.316 356.258 183.411 355.932 183.411 355.557C183.411 355.076 183.242 354.672 182.905 354.347C182.568 354.021 182.051 353.858 181.354 353.858H178.956V357.398ZM189.232 352.364V364H187.533V352.364H189.232ZM195.193 364.176C194.375 364.176 193.661 363.989 193.051 363.614C192.441 363.239 191.968 362.714 191.631 362.04C191.294 361.366 191.125 360.578 191.125 359.676C191.125 358.771 191.294 357.979 191.631 357.301C191.968 356.623 192.441 356.097 193.051 355.722C193.661 355.347 194.375 355.159 195.193 355.159C196.011 355.159 196.725 355.347 197.335 355.722C197.945 356.097 198.419 356.623 198.756 357.301C199.093 357.979 199.261 358.771 199.261 359.676C199.261 360.578 199.093 361.366 198.756 362.04C198.419 362.714 197.945 363.239 197.335 363.614C196.725 363.989 196.011 364.176 195.193 364.176ZM195.199 362.75C195.729 362.75 196.169 362.61 196.517 362.33C196.866 362.049 197.123 361.676 197.29 361.21C197.46 360.744 197.545 360.231 197.545 359.67C197.545 359.114 197.46 358.602 197.29 358.136C197.123 357.667 196.866 357.29 196.517 357.006C196.169 356.722 195.729 356.58 195.199 356.58C194.665 356.58 194.222 356.722 193.869 357.006C193.521 357.29 193.261 357.667 193.091 358.136C192.924 358.602 192.841 359.114 192.841 359.67C192.841 360.231 192.924 360.744 193.091 361.21C193.261 361.676 193.521 362.049 193.869 362.33C194.222 362.61 194.665 362.75 195.199 362.75ZM204.834 364.176C203.989 364.176 203.262 363.985 202.652 363.602C202.046 363.216 201.58 362.684 201.254 362.006C200.929 361.328 200.766 360.551 200.766 359.676C200.766 358.79 200.932 358.008 201.266 357.33C201.599 356.648 202.069 356.116 202.675 355.733C203.281 355.35 203.995 355.159 204.817 355.159C205.48 355.159 206.071 355.282 206.589 355.528C207.108 355.771 207.527 356.112 207.845 356.551C208.167 356.991 208.358 357.504 208.419 358.091H206.766C206.675 357.682 206.466 357.33 206.141 357.034C205.819 356.739 205.387 356.591 204.845 356.591C204.372 356.591 203.957 356.716 203.601 356.966C203.249 357.212 202.974 357.564 202.777 358.023C202.58 358.477 202.482 359.015 202.482 359.636C202.482 360.273 202.578 360.822 202.771 361.284C202.964 361.746 203.237 362.104 203.589 362.358C203.946 362.612 204.364 362.739 204.845 362.739C205.167 362.739 205.459 362.68 205.72 362.562C205.985 362.441 206.207 362.269 206.385 362.045C206.567 361.822 206.694 361.553 206.766 361.239H208.419C208.358 361.803 208.175 362.307 207.868 362.75C207.561 363.193 207.15 363.542 206.635 363.795C206.124 364.049 205.523 364.176 204.834 364.176ZM211.798 361.04L211.787 358.966H212.082L215.56 355.273H217.594L213.628 359.477H213.361L211.798 361.04ZM210.236 364V352.364H211.935V364H210.236ZM215.747 364L212.622 359.852L213.793 358.665L217.832 364H215.747ZM222.459 364.176C221.614 364.176 220.887 363.985 220.277 363.602C219.671 363.216 219.205 362.684 218.879 362.006C218.554 361.328 218.391 360.551 218.391 359.676C218.391 358.79 218.557 358.008 218.891 357.33C219.224 356.648 219.694 356.116 220.3 355.733C220.906 355.35 221.62 355.159 222.442 355.159C223.105 355.159 223.696 355.282 224.214 355.528C224.733 355.771 225.152 356.112 225.47 356.551C225.792 356.991 225.983 357.504 226.044 358.091H224.391C224.3 357.682 224.091 357.33 223.766 357.034C223.444 356.739 223.012 356.591 222.47 356.591C221.997 356.591 221.582 356.716 221.226 356.966C220.874 357.212 220.599 357.564 220.402 358.023C220.205 358.477 220.107 359.015 220.107 359.636C220.107 360.273 220.203 360.822 220.396 361.284C220.589 361.746 220.862 362.104 221.214 362.358C221.571 362.612 221.989 362.739 222.47 362.739C222.792 362.739 223.084 362.68 223.345 362.562C223.61 362.441 223.832 362.269 224.01 362.045C224.192 361.822 224.319 361.553 224.391 361.239H226.044C225.983 361.803 225.8 362.307 225.493 362.75C225.186 363.193 224.775 363.542 224.26 363.795C223.749 364.049 223.148 364.176 222.459 364.176ZM229.56 358.818V364H227.861V352.364H229.537V356.693H229.645C229.849 356.223 230.162 355.85 230.582 355.574C231.003 355.297 231.552 355.159 232.23 355.159C232.829 355.159 233.351 355.282 233.798 355.528C234.249 355.775 234.598 356.142 234.844 356.631C235.094 357.116 235.219 357.722 235.219 358.449V364H233.52V358.653C233.52 358.013 233.355 357.517 233.026 357.165C232.696 356.809 232.238 356.631 231.651 356.631C231.249 356.631 230.889 356.716 230.571 356.886C230.257 357.057 230.009 357.307 229.827 357.636C229.649 357.962 229.56 358.356 229.56 358.818ZM240.026 364.193C239.473 364.193 238.973 364.091 238.526 363.886C238.079 363.678 237.724 363.377 237.463 362.983C237.205 362.589 237.077 362.106 237.077 361.534C237.077 361.042 237.171 360.636 237.361 360.318C237.55 360 237.806 359.748 238.128 359.562C238.45 359.377 238.81 359.237 239.207 359.142C239.605 359.047 240.01 358.975 240.423 358.926C240.946 358.866 241.37 358.816 241.696 358.778C242.022 358.737 242.259 358.67 242.406 358.58C242.554 358.489 242.628 358.341 242.628 358.136V358.097C242.628 357.6 242.488 357.216 242.207 356.943C241.931 356.67 241.518 356.534 240.969 356.534C240.397 356.534 239.946 356.661 239.616 356.915C239.291 357.165 239.065 357.443 238.94 357.75L237.344 357.386C237.533 356.856 237.81 356.428 238.173 356.102C238.541 355.773 238.963 355.534 239.44 355.386C239.918 355.235 240.42 355.159 240.946 355.159C241.295 355.159 241.664 355.201 242.054 355.284C242.448 355.364 242.815 355.511 243.156 355.727C243.501 355.943 243.783 356.252 244.003 356.653C244.223 357.051 244.332 357.568 244.332 358.205V364H242.673V362.807H242.605C242.495 363.027 242.33 363.242 242.111 363.455C241.891 363.667 241.609 363.843 241.264 363.983C240.92 364.123 240.507 364.193 240.026 364.193ZM240.395 362.83C240.865 362.83 241.266 362.737 241.599 362.551C241.937 362.366 242.192 362.123 242.366 361.824C242.545 361.521 242.634 361.197 242.634 360.852V359.727C242.573 359.788 242.455 359.845 242.281 359.898C242.111 359.947 241.916 359.991 241.696 360.028C241.476 360.062 241.262 360.095 241.054 360.125C240.846 360.152 240.671 360.174 240.531 360.193C240.202 360.235 239.901 360.305 239.628 360.403C239.359 360.502 239.143 360.644 238.98 360.83C238.821 361.011 238.741 361.254 238.741 361.557C238.741 361.977 238.897 362.295 239.207 362.511C239.518 362.723 239.914 362.83 240.395 362.83ZM246.595 364V355.273H248.294V364H246.595ZM247.453 353.926C247.158 353.926 246.904 353.828 246.692 353.631C246.483 353.43 246.379 353.191 246.379 352.915C246.379 352.634 246.483 352.396 246.692 352.199C246.904 351.998 247.158 351.898 247.453 351.898C247.749 351.898 248 351.998 248.209 352.199C248.421 352.396 248.527 352.634 248.527 352.915C248.527 353.191 248.421 353.43 248.209 353.631C248 353.828 247.749 353.926 247.453 353.926ZM252.278 358.818V364H250.58V355.273H252.21V356.693H252.318C252.519 356.231 252.833 355.86 253.261 355.58C253.693 355.299 254.237 355.159 254.892 355.159C255.487 355.159 256.008 355.284 256.455 355.534C256.902 355.78 257.248 356.148 257.494 356.636C257.741 357.125 257.864 357.729 257.864 358.449V364H256.165V358.653C256.165 358.021 256 357.527 255.67 357.17C255.341 356.811 254.888 356.631 254.312 356.631C253.919 356.631 253.568 356.716 253.261 356.886C252.958 357.057 252.718 357.307 252.54 357.636C252.366 357.962 252.278 358.356 252.278 358.818ZM264.513 364V352.364H266.268V362.489H271.541V364H264.513ZM277.169 364.176C276.309 364.176 275.569 363.992 274.947 363.625C274.33 363.254 273.853 362.733 273.516 362.062C273.182 361.388 273.016 360.598 273.016 359.693C273.016 358.799 273.182 358.011 273.516 357.33C273.853 356.648 274.322 356.116 274.925 355.733C275.531 355.35 276.239 355.159 277.05 355.159C277.542 355.159 278.019 355.241 278.482 355.403C278.944 355.566 279.358 355.822 279.726 356.17C280.093 356.519 280.383 356.972 280.595 357.528C280.807 358.081 280.913 358.754 280.913 359.545V360.148H273.976V358.875H279.249C279.249 358.428 279.158 358.032 278.976 357.688C278.794 357.339 278.538 357.064 278.209 356.864C277.883 356.663 277.5 356.562 277.061 356.562C276.584 356.562 276.167 356.68 275.811 356.915C275.459 357.146 275.186 357.449 274.993 357.824C274.804 358.195 274.709 358.598 274.709 359.034V360.028C274.709 360.612 274.811 361.108 275.016 361.517C275.224 361.926 275.514 362.239 275.885 362.455C276.256 362.667 276.69 362.773 277.186 362.773C277.508 362.773 277.802 362.727 278.067 362.636C278.332 362.542 278.561 362.402 278.754 362.216C278.947 362.03 279.095 361.801 279.197 361.528L280.805 361.818C280.677 362.292 280.446 362.706 280.112 363.062C279.783 363.415 279.368 363.689 278.868 363.886C278.372 364.08 277.805 364.176 277.169 364.176ZM286.065 364.17C285.361 364.17 284.732 363.991 284.179 363.631C283.63 363.267 283.198 362.75 282.884 362.08C282.573 361.405 282.418 360.597 282.418 359.653C282.418 358.71 282.575 357.903 282.889 357.233C283.207 356.562 283.643 356.049 284.196 355.693C284.749 355.337 285.376 355.159 286.077 355.159C286.618 355.159 287.054 355.25 287.384 355.432C287.717 355.61 287.974 355.818 288.156 356.057C288.342 356.295 288.486 356.506 288.588 356.688H288.69V352.364H290.389V364H288.73V362.642H288.588C288.486 362.828 288.338 363.04 288.145 363.278C287.955 363.517 287.694 363.725 287.361 363.903C287.027 364.081 286.596 364.17 286.065 364.17ZM286.44 362.722C286.929 362.722 287.342 362.593 287.679 362.335C288.02 362.074 288.277 361.712 288.452 361.25C288.63 360.788 288.719 360.25 288.719 359.636C288.719 359.03 288.632 358.5 288.457 358.045C288.283 357.591 288.027 357.237 287.69 356.983C287.353 356.729 286.937 356.602 286.44 356.602C285.929 356.602 285.503 356.735 285.162 357C284.821 357.265 284.563 357.627 284.389 358.085C284.219 358.544 284.134 359.061 284.134 359.636C284.134 360.22 284.221 360.744 284.395 361.21C284.569 361.676 284.827 362.045 285.168 362.318C285.512 362.587 285.937 362.722 286.44 362.722ZM296.473 367.455C295.78 367.455 295.183 367.364 294.683 367.182C294.187 367 293.782 366.759 293.467 366.46C293.153 366.161 292.918 365.833 292.763 365.477L294.223 364.875C294.325 365.042 294.462 365.218 294.632 365.403C294.806 365.593 295.041 365.754 295.337 365.886C295.636 366.019 296.02 366.085 296.49 366.085C297.134 366.085 297.666 365.928 298.087 365.614C298.507 365.303 298.717 364.807 298.717 364.125V362.409H298.609C298.507 362.595 298.359 362.801 298.166 363.028C297.977 363.256 297.715 363.453 297.382 363.619C297.049 363.786 296.615 363.869 296.081 363.869C295.392 363.869 294.77 363.708 294.217 363.386C293.668 363.061 293.232 362.581 292.911 361.949C292.592 361.312 292.433 360.53 292.433 359.602C292.433 358.674 292.59 357.879 292.905 357.216C293.223 356.553 293.659 356.045 294.212 355.693C294.765 355.337 295.392 355.159 296.092 355.159C296.634 355.159 297.071 355.25 297.405 355.432C297.738 355.61 297.998 355.818 298.183 356.057C298.373 356.295 298.518 356.506 298.621 356.688H298.746V355.273H300.411V364.193C300.411 364.943 300.236 365.559 299.888 366.04C299.539 366.521 299.068 366.877 298.473 367.108C297.882 367.339 297.215 367.455 296.473 367.455ZM296.456 362.46C296.945 362.46 297.357 362.347 297.695 362.119C298.036 361.888 298.293 361.559 298.467 361.131C298.645 360.699 298.734 360.182 298.734 359.58C298.734 358.992 298.647 358.475 298.473 358.028C298.299 357.581 298.043 357.233 297.706 356.983C297.369 356.729 296.952 356.602 296.456 356.602C295.945 356.602 295.518 356.735 295.178 357C294.837 357.261 294.579 357.617 294.405 358.068C294.234 358.519 294.149 359.023 294.149 359.58C294.149 360.152 294.236 360.653 294.411 361.085C294.585 361.517 294.842 361.854 295.183 362.097C295.528 362.339 295.952 362.46 296.456 362.46ZM306.45 364.176C305.59 364.176 304.85 363.992 304.229 363.625C303.611 363.254 303.134 362.733 302.797 362.062C302.464 361.388 302.297 360.598 302.297 359.693C302.297 358.799 302.464 358.011 302.797 357.33C303.134 356.648 303.604 356.116 304.206 355.733C304.812 355.35 305.52 355.159 306.331 355.159C306.823 355.159 307.301 355.241 307.763 355.403C308.225 355.566 308.64 355.822 309.007 356.17C309.375 356.519 309.664 356.972 309.876 357.528C310.089 358.081 310.195 358.754 310.195 359.545V360.148H303.257V358.875H308.53C308.53 358.428 308.439 358.032 308.257 357.688C308.075 357.339 307.82 357.064 307.49 356.864C307.164 356.663 306.782 356.562 306.342 356.562C305.865 356.562 305.448 356.68 305.092 356.915C304.74 357.146 304.467 357.449 304.274 357.824C304.085 358.195 303.99 358.598 303.99 359.034V360.028C303.99 360.612 304.092 361.108 304.297 361.517C304.505 361.926 304.795 362.239 305.166 362.455C305.537 362.667 305.971 362.773 306.467 362.773C306.789 362.773 307.083 362.727 307.348 362.636C307.613 362.542 307.842 362.402 308.036 362.216C308.229 362.03 308.376 361.801 308.479 361.528L310.087 361.818C309.958 362.292 309.727 362.706 309.393 363.062C309.064 363.415 308.649 363.689 308.149 363.886C307.653 364.08 307.087 364.176 306.45 364.176ZM312.08 364V355.273H313.722V356.659H313.812C313.972 356.189 314.252 355.82 314.653 355.551C315.059 355.278 315.517 355.142 316.028 355.142C316.134 355.142 316.259 355.146 316.403 355.153C316.551 355.161 316.667 355.17 316.75 355.182V356.807C316.682 356.788 316.561 356.767 316.386 356.744C316.212 356.718 316.038 356.705 315.864 356.705C315.462 356.705 315.104 356.79 314.79 356.96C314.479 357.127 314.233 357.36 314.051 357.659C313.869 357.955 313.778 358.292 313.778 358.67V364H312.08Z" fill="black"/>
<rect x="113" y="419" width="277" height="44" fill="white"/>
<path d="M211.714 434.364V446H209.958V434.364H211.714ZM217.81 446.176C216.992 446.176 216.278 445.989 215.668 445.614C215.058 445.239 214.585 444.714 214.248 444.04C213.911 443.366 213.742 442.578 213.742 441.676C213.742 440.771 213.911 439.979 214.248 439.301C214.585 438.623 215.058 438.097 215.668 437.722C216.278 437.347 216.992 437.159 217.81 437.159C218.629 437.159 219.343 437.347 219.952 437.722C220.562 438.097 221.036 438.623 221.373 439.301C221.71 439.979 221.879 440.771 221.879 441.676C221.879 442.578 221.71 443.366 221.373 444.04C221.036 444.714 220.562 445.239 219.952 445.614C219.343 445.989 218.629 446.176 217.81 446.176ZM217.816 444.75C218.346 444.75 218.786 444.61 219.134 444.33C219.483 444.049 219.74 443.676 219.907 443.21C220.077 442.744 220.163 442.231 220.163 441.67C220.163 441.114 220.077 440.602 219.907 440.136C219.74 439.667 219.483 439.29 219.134 439.006C218.786 438.722 218.346 438.58 217.816 438.58C217.282 438.58 216.839 438.722 216.487 439.006C216.138 439.29 215.879 439.667 215.708 440.136C215.541 440.602 215.458 441.114 215.458 441.67C215.458 442.231 215.541 442.744 215.708 443.21C215.879 443.676 216.138 444.049 216.487 444.33C216.839 444.61 217.282 444.75 217.816 444.75ZM222.697 435.875V434.364H231.702V435.875H228.072V446H226.322V435.875H222.697ZM239.683 434.364V446H237.927V434.364H239.683ZM243.802 440.818V446H242.103V437.273H243.734V438.693H243.842C244.042 438.231 244.357 437.86 244.785 437.58C245.217 437.299 245.76 437.159 246.415 437.159C247.01 437.159 247.531 437.284 247.978 437.534C248.425 437.78 248.772 438.148 249.018 438.636C249.264 439.125 249.387 439.729 249.387 440.449V446H247.688V440.653C247.688 440.021 247.523 439.527 247.194 439.17C246.864 438.811 246.412 438.631 245.836 438.631C245.442 438.631 245.092 438.716 244.785 438.886C244.482 439.057 244.241 439.307 244.063 439.636C243.889 439.962 243.802 440.356 243.802 440.818ZM255.325 449.455C254.631 449.455 254.035 449.364 253.535 449.182C253.039 449 252.633 448.759 252.319 448.46C252.004 448.161 251.77 447.833 251.614 447.477L253.075 446.875C253.177 447.042 253.313 447.218 253.484 447.403C253.658 447.593 253.893 447.754 254.188 447.886C254.487 448.019 254.872 448.085 255.342 448.085C255.986 448.085 256.518 447.928 256.938 447.614C257.359 447.303 257.569 446.807 257.569 446.125V444.409H257.461C257.359 444.595 257.211 444.801 257.018 445.028C256.828 445.256 256.567 445.453 256.234 445.619C255.9 445.786 255.467 445.869 254.933 445.869C254.243 445.869 253.622 445.708 253.069 445.386C252.52 445.061 252.084 444.581 251.762 443.949C251.444 443.312 251.285 442.53 251.285 441.602C251.285 440.674 251.442 439.879 251.756 439.216C252.075 438.553 252.51 438.045 253.063 437.693C253.616 437.337 254.243 437.159 254.944 437.159C255.486 437.159 255.923 437.25 256.256 437.432C256.59 437.61 256.849 437.818 257.035 438.057C257.224 438.295 257.37 438.506 257.472 438.688H257.597V437.273H259.262V446.193C259.262 446.943 259.088 447.559 258.739 448.04C258.391 448.521 257.919 448.877 257.325 449.108C256.734 449.339 256.067 449.455 255.325 449.455ZM255.308 444.46C255.796 444.46 256.209 444.347 256.546 444.119C256.887 443.888 257.145 443.559 257.319 443.131C257.497 442.699 257.586 442.182 257.586 441.58C257.586 440.992 257.499 440.475 257.325 440.028C257.15 439.581 256.895 439.233 256.558 438.983C256.22 438.729 255.804 438.602 255.308 438.602C254.796 438.602 254.37 438.735 254.029 439C253.688 439.261 253.431 439.617 253.256 440.068C253.086 440.519 253.001 441.023 253.001 441.58C253.001 442.152 253.088 442.653 253.262 443.085C253.436 443.517 253.694 443.854 254.035 444.097C254.379 444.339 254.804 444.46 255.308 444.46ZM265.302 446.176C264.442 446.176 263.701 445.992 263.08 445.625C262.463 445.254 261.986 444.733 261.648 444.062C261.315 443.388 261.148 442.598 261.148 441.693C261.148 440.799 261.315 440.011 261.648 439.33C261.986 438.648 262.455 438.116 263.058 437.733C263.664 437.35 264.372 437.159 265.183 437.159C265.675 437.159 266.152 437.241 266.614 437.403C267.076 437.566 267.491 437.822 267.859 438.17C268.226 438.519 268.516 438.972 268.728 439.528C268.94 440.081 269.046 440.754 269.046 441.545V442.148H262.109V440.875H267.381C267.381 440.428 267.29 440.032 267.109 439.688C266.927 439.339 266.671 439.064 266.342 438.864C266.016 438.663 265.633 438.562 265.194 438.562C264.717 438.562 264.3 438.68 263.944 438.915C263.592 439.146 263.319 439.449 263.126 439.824C262.936 440.195 262.842 440.598 262.842 441.034V442.028C262.842 442.612 262.944 443.108 263.148 443.517C263.357 443.926 263.647 444.239 264.018 444.455C264.389 444.667 264.823 444.773 265.319 444.773C265.641 444.773 265.934 444.727 266.2 444.636C266.465 444.542 266.694 444.402 266.887 444.216C267.08 444.03 267.228 443.801 267.33 443.528L268.938 443.818C268.809 444.292 268.578 444.706 268.245 445.062C267.915 445.415 267.501 445.689 267.001 445.886C266.504 446.08 265.938 446.176 265.302 446.176ZM277.471 439.403L275.931 439.676C275.867 439.479 275.764 439.292 275.624 439.114C275.488 438.936 275.302 438.79 275.067 438.676C274.833 438.562 274.539 438.506 274.187 438.506C273.706 438.506 273.304 438.614 272.982 438.83C272.66 439.042 272.499 439.316 272.499 439.653C272.499 439.945 272.607 440.18 272.823 440.358C273.039 440.536 273.388 440.682 273.869 440.795L275.255 441.114C276.058 441.299 276.656 441.585 277.05 441.972C277.444 442.358 277.641 442.86 277.641 443.477C277.641 444 277.49 444.466 277.187 444.875C276.888 445.28 276.469 445.598 275.931 445.83C275.397 446.061 274.778 446.176 274.073 446.176C273.096 446.176 272.299 445.968 271.681 445.551C271.064 445.131 270.685 444.534 270.545 443.761L272.187 443.511C272.289 443.939 272.499 444.263 272.817 444.483C273.136 444.699 273.55 444.807 274.062 444.807C274.619 444.807 275.064 444.691 275.397 444.46C275.73 444.225 275.897 443.939 275.897 443.602C275.897 443.33 275.795 443.1 275.59 442.915C275.389 442.729 275.081 442.589 274.664 442.494L273.187 442.17C272.372 441.985 271.77 441.689 271.38 441.284C270.994 440.879 270.8 440.366 270.8 439.744C270.8 439.229 270.944 438.778 271.232 438.392C271.52 438.006 271.918 437.705 272.425 437.489C272.933 437.269 273.514 437.159 274.17 437.159C275.113 437.159 275.855 437.364 276.397 437.773C276.939 438.178 277.297 438.722 277.471 439.403ZM283.583 437.273V438.636H278.816V437.273H283.583ZM280.094 435.182H281.793V443.438C281.793 443.767 281.843 444.015 281.941 444.182C282.04 444.345 282.166 444.456 282.322 444.517C282.481 444.574 282.653 444.602 282.839 444.602C282.975 444.602 283.094 444.593 283.197 444.574C283.299 444.555 283.379 444.54 283.435 444.528L283.742 445.932C283.644 445.97 283.504 446.008 283.322 446.045C283.14 446.087 282.913 446.11 282.64 446.114C282.193 446.121 281.776 446.042 281.39 445.875C281.004 445.708 280.691 445.451 280.452 445.102C280.214 444.754 280.094 444.316 280.094 443.79V435.182Z" fill="black"/>
<rect x="96" y="517" width="310" height="44" fill="black"/>
<path d="M221.458 537.04C221.348 536.695 221.201 536.386 221.015 536.114C220.833 535.837 220.615 535.602 220.362 535.409C220.108 535.212 219.818 535.062 219.492 534.96C219.17 534.858 218.816 534.807 218.43 534.807C217.774 534.807 217.183 534.975 216.657 535.312C216.13 535.65 215.714 536.144 215.407 536.795C215.104 537.443 214.952 538.237 214.952 539.176C214.952 540.119 215.106 540.917 215.413 541.568C215.719 542.22 216.14 542.714 216.674 543.051C217.208 543.388 217.816 543.557 218.498 543.557C219.13 543.557 219.682 543.428 220.151 543.17C220.625 542.913 220.99 542.549 221.248 542.08C221.509 541.606 221.64 541.049 221.64 540.409L222.094 540.494H218.765V539.045H223.339V540.369C223.339 541.347 223.13 542.195 222.714 542.915C222.301 543.631 221.729 544.184 220.998 544.574C220.271 544.964 219.437 545.159 218.498 545.159C217.445 545.159 216.521 544.917 215.725 544.432C214.933 543.947 214.316 543.259 213.873 542.369C213.43 541.475 213.208 540.415 213.208 539.188C213.208 538.259 213.337 537.426 213.594 536.688C213.852 535.949 214.214 535.322 214.68 534.807C215.149 534.288 215.701 533.892 216.333 533.619C216.969 533.343 217.665 533.205 218.418 533.205C219.047 533.205 219.632 533.297 220.174 533.483C220.719 533.669 221.204 533.932 221.629 534.273C222.057 534.614 222.411 535.019 222.691 535.489C222.971 535.955 223.161 536.472 223.259 537.04H221.458ZM227.971 545.193C227.418 545.193 226.918 545.091 226.471 544.886C226.024 544.678 225.67 544.377 225.408 543.983C225.151 543.589 225.022 543.106 225.022 542.534C225.022 542.042 225.117 541.636 225.306 541.318C225.496 541 225.751 540.748 226.073 540.562C226.395 540.377 226.755 540.237 227.153 540.142C227.55 540.047 227.956 539.975 228.369 539.926C228.891 539.866 229.316 539.816 229.641 539.778C229.967 539.737 230.204 539.67 230.352 539.58C230.499 539.489 230.573 539.341 230.573 539.136V539.097C230.573 538.6 230.433 538.216 230.153 537.943C229.876 537.67 229.463 537.534 228.914 537.534C228.342 537.534 227.891 537.661 227.562 537.915C227.236 538.165 227.011 538.443 226.886 538.75L225.289 538.386C225.478 537.856 225.755 537.428 226.119 537.102C226.486 536.773 226.908 536.534 227.386 536.386C227.863 536.235 228.365 536.159 228.891 536.159C229.24 536.159 229.609 536.201 229.999 536.284C230.393 536.364 230.761 536.511 231.102 536.727C231.446 536.943 231.728 537.252 231.948 537.653C232.168 538.051 232.278 538.568 232.278 539.205V545H230.619V543.807H230.55C230.441 544.027 230.276 544.242 230.056 544.455C229.836 544.667 229.554 544.843 229.21 544.983C228.865 545.123 228.452 545.193 227.971 545.193ZM228.34 543.83C228.81 543.83 229.211 543.737 229.545 543.551C229.882 543.366 230.138 543.123 230.312 542.824C230.49 542.521 230.579 542.197 230.579 541.852V540.727C230.518 540.788 230.401 540.845 230.227 540.898C230.056 540.947 229.861 540.991 229.641 541.028C229.422 541.062 229.208 541.095 228.999 541.125C228.791 541.152 228.617 541.174 228.477 541.193C228.147 541.235 227.846 541.305 227.573 541.403C227.304 541.502 227.088 541.644 226.925 541.83C226.766 542.011 226.687 542.254 226.687 542.557C226.687 542.977 226.842 543.295 227.153 543.511C227.463 543.723 227.859 543.83 228.34 543.83ZM238.614 536.273V537.636H233.847V536.273H238.614ZM235.126 534.182H236.825V542.438C236.825 542.767 236.874 543.015 236.972 543.182C237.071 543.345 237.198 543.456 237.353 543.517C237.512 543.574 237.684 543.602 237.87 543.602C238.006 543.602 238.126 543.593 238.228 543.574C238.33 543.555 238.41 543.54 238.467 543.528L238.773 544.932C238.675 544.97 238.535 545.008 238.353 545.045C238.171 545.087 237.944 545.11 237.671 545.114C237.224 545.121 236.808 545.042 236.421 544.875C236.035 544.708 235.722 544.451 235.484 544.102C235.245 543.754 235.126 543.316 235.126 542.79V534.182ZM244.161 545.176C243.301 545.176 242.561 544.992 241.94 544.625C241.322 544.254 240.845 543.733 240.508 543.062C240.174 542.388 240.008 541.598 240.008 540.693C240.008 539.799 240.174 539.011 240.508 538.33C240.845 537.648 241.315 537.116 241.917 536.733C242.523 536.35 243.231 536.159 244.042 536.159C244.534 536.159 245.012 536.241 245.474 536.403C245.936 536.566 246.351 536.822 246.718 537.17C247.085 537.519 247.375 537.972 247.587 538.528C247.799 539.081 247.906 539.754 247.906 540.545V541.148H240.968V539.875H246.241C246.241 539.428 246.15 539.032 245.968 538.688C245.786 538.339 245.531 538.064 245.201 537.864C244.875 537.663 244.493 537.562 244.053 537.562C243.576 537.562 243.159 537.68 242.803 537.915C242.451 538.146 242.178 538.449 241.985 538.824C241.796 539.195 241.701 539.598 241.701 540.034V541.028C241.701 541.612 241.803 542.108 242.008 542.517C242.216 542.926 242.506 543.239 242.877 543.455C243.248 543.667 243.682 543.773 244.178 543.773C244.5 543.773 244.794 543.727 245.059 543.636C245.324 543.542 245.553 543.402 245.746 543.216C245.94 543.03 246.087 542.801 246.19 542.528L247.798 542.818C247.669 543.292 247.438 543.706 247.104 544.062C246.775 544.415 246.36 544.689 245.86 544.886C245.364 545.08 244.798 545.176 244.161 545.176ZM251.667 545L249.099 536.273H250.854L252.565 542.682H252.65L254.366 536.273H256.121L257.826 542.653H257.911L259.61 536.273H261.366L258.803 545H257.07L255.298 538.699H255.167L253.394 545H251.667ZM265.518 545.193C264.965 545.193 264.465 545.091 264.018 544.886C263.571 544.678 263.217 544.377 262.955 543.983C262.698 543.589 262.569 543.106 262.569 542.534C262.569 542.042 262.664 541.636 262.853 541.318C263.042 541 263.298 540.748 263.62 540.562C263.942 540.377 264.302 540.237 264.7 540.142C265.097 540.047 265.503 539.975 265.915 539.926C266.438 539.866 266.862 539.816 267.188 539.778C267.514 539.737 267.751 539.67 267.898 539.58C268.046 539.489 268.12 539.341 268.12 539.136V539.097C268.12 538.6 267.98 538.216 267.7 537.943C267.423 537.67 267.01 537.534 266.461 537.534C265.889 537.534 265.438 537.661 265.109 537.915C264.783 538.165 264.558 538.443 264.433 538.75L262.836 538.386C263.025 537.856 263.302 537.428 263.665 537.102C264.033 536.773 264.455 536.534 264.933 536.386C265.41 536.235 265.912 536.159 266.438 536.159C266.787 536.159 267.156 536.201 267.546 536.284C267.94 536.364 268.308 536.511 268.648 536.727C268.993 536.943 269.275 537.252 269.495 537.653C269.715 538.051 269.825 538.568 269.825 539.205V545H268.165V543.807H268.097C267.987 544.027 267.823 544.242 267.603 544.455C267.383 544.667 267.101 544.843 266.756 544.983C266.412 545.123 265.999 545.193 265.518 545.193ZM265.887 543.83C266.357 543.83 266.758 543.737 267.092 543.551C267.429 543.366 267.684 543.123 267.859 542.824C268.037 542.521 268.126 542.197 268.126 541.852V540.727C268.065 540.788 267.948 540.845 267.773 540.898C267.603 540.947 267.408 540.991 267.188 541.028C266.969 541.062 266.754 541.095 266.546 541.125C266.338 541.152 266.164 541.174 266.023 541.193C265.694 541.235 265.393 541.305 265.12 541.403C264.851 541.502 264.635 541.644 264.472 541.83C264.313 542.011 264.234 542.254 264.234 542.557C264.234 542.977 264.389 543.295 264.7 543.511C265.01 543.723 265.406 543.83 265.887 543.83ZM272.849 548.273C272.595 548.273 272.364 548.252 272.156 548.21C271.947 548.172 271.792 548.131 271.69 548.085L272.099 546.693C272.409 546.777 272.686 546.813 272.928 546.801C273.171 546.79 273.385 546.699 273.57 546.528C273.76 546.358 273.926 546.08 274.07 545.693L274.281 545.114L271.087 536.273H272.906L275.116 543.045H275.207L277.417 536.273H279.241L275.644 546.165C275.478 546.619 275.265 547.004 275.008 547.318C274.75 547.636 274.443 547.875 274.087 548.034C273.731 548.193 273.318 548.273 272.849 548.273Z" fill="white"/>
<circle cx="153.53" cy="206.53" r="8.03008" fill="#FF8300" stroke="#FF8300"/>
<line x1="153.676" y1="203.971" x2="153.676" y2="244.915" stroke="#FF8300" stroke-width="2"/>
<circle cx="219.245" cy="206.53" r="8.03008" fill="#FF8300" stroke="#FF8300"/>
<line x1="219.391" y1="203.971" x2="219.391" y2="244.915" stroke="#FF8300" stroke-width="2"/>
<circle cx="284.245" cy="206.53" r="8.03008" fill="#FF8300" stroke="#FF8300"/>
<line x1="284.391" y1="203.971" x2="284.391" y2="244.915" stroke="#FF8300" stroke-width="2"/>
<circle cx="349.245" cy="206.53" r="8.03008" fill="#FF8300" stroke="#FF8300"/>
<line x1="349.391" y1="203.971" x2="349.391" y2="244.915" stroke="#FF8300" stroke-width="2"/>
<path d="M250.061 307.939C249.475 307.354 248.525 307.354 247.939 307.939L238.393 317.485C237.808 318.071 237.808 319.021 238.393 319.607C238.979 320.192 239.929 320.192 240.515 319.607L249 311.121L257.485 319.607C258.071 320.192 259.021 320.192 259.607 319.607C260.192 319.021 260.192 318.071 259.607 317.485L250.061 307.939ZM250.5 337L250.5 309L247.5 309L247.5 337L250.5 337Z" fill="white"/>
<path d="M250.061 389.939C249.475 389.354 248.525 389.354 247.939 389.939L238.393 399.485C237.808 400.071 237.808 401.021 238.393 401.607C238.979 402.192 239.929 402.192 240.515 401.607L249 393.121L257.485 401.607C258.071 402.192 259.021 402.192 259.607 401.607C260.192 401.021 260.192 400.071 259.607 399.485L250.061 389.939ZM250.5 419L250.5 391L247.5 391L247.5 419L250.5 419Z" fill="white"/>
<path d="M250.061 487.939C249.475 487.354 248.525 487.354 247.939 487.939L238.393 497.485C237.808 498.071 237.808 499.021 238.393 499.607C238.979 500.192 239.929 500.192 240.515 499.607L249 491.121L257.485 499.607C258.071 500.192 259.021 500.192 259.607 499.607C260.192 499.021 260.192 498.071 259.607 497.485L250.061 487.939ZM250.5 517L250.5 489L247.5 489L247.5 517L250.5 517Z" fill="black"/>
<rect x="96" y="604" width="310" height="46" fill="black"/>
<path d="M315.261 632H313.398L317.585 620.364H319.614L323.801 632H321.938L318.648 622.477H318.557L315.261 632ZM315.574 627.443H321.619V628.92H315.574V627.443ZM327.044 626.818V632H325.345V623.273H326.976V624.693H327.084C327.285 624.231 327.599 623.86 328.027 623.58C328.459 623.299 329.002 623.159 329.658 623.159C330.252 623.159 330.773 623.284 331.22 623.534C331.667 623.78 332.014 624.148 332.26 624.636C332.506 625.125 332.629 625.729 332.629 626.449V632H330.93V626.653C330.93 626.021 330.766 625.527 330.436 625.17C330.107 624.811 329.654 624.631 329.078 624.631C328.684 624.631 328.334 624.716 328.027 624.886C327.724 625.057 327.483 625.307 327.305 625.636C327.131 625.962 327.044 626.356 327.044 626.818ZM338.584 632.176C337.739 632.176 337.012 631.985 336.402 631.602C335.796 631.216 335.33 630.684 335.004 630.006C334.679 629.328 334.516 628.551 334.516 627.676C334.516 626.79 334.682 626.008 335.016 625.33C335.349 624.648 335.819 624.116 336.425 623.733C337.031 623.35 337.745 623.159 338.567 623.159C339.23 623.159 339.821 623.282 340.339 623.528C340.858 623.771 341.277 624.112 341.595 624.551C341.917 624.991 342.108 625.504 342.169 626.091H340.516C340.425 625.682 340.216 625.33 339.891 625.034C339.569 624.739 339.137 624.591 338.595 624.591C338.122 624.591 337.707 624.716 337.351 624.966C336.999 625.212 336.724 625.564 336.527 626.023C336.33 626.477 336.232 627.015 336.232 627.636C336.232 628.273 336.328 628.822 336.521 629.284C336.714 629.746 336.987 630.104 337.339 630.358C337.696 630.612 338.114 630.739 338.595 630.739C338.917 630.739 339.209 630.68 339.47 630.562C339.735 630.441 339.957 630.269 340.135 630.045C340.317 629.822 340.444 629.553 340.516 629.239H342.169C342.108 629.803 341.925 630.307 341.618 630.75C341.311 631.193 340.9 631.542 340.385 631.795C339.874 632.049 339.273 632.176 338.584 632.176ZM345.685 626.818V632H343.986V620.364H345.662V624.693H345.77C345.974 624.223 346.287 623.85 346.707 623.574C347.128 623.297 347.677 623.159 348.355 623.159C348.954 623.159 349.476 623.282 349.923 623.528C350.374 623.775 350.723 624.142 350.969 624.631C351.219 625.116 351.344 625.722 351.344 626.449V632H349.645V626.653C349.645 626.013 349.48 625.517 349.151 625.165C348.821 624.809 348.363 624.631 347.776 624.631C347.374 624.631 347.014 624.716 346.696 624.886C346.382 625.057 346.134 625.307 345.952 625.636C345.774 625.962 345.685 626.356 345.685 626.818ZM357.287 632.176C356.469 632.176 355.755 631.989 355.145 631.614C354.535 631.239 354.062 630.714 353.724 630.04C353.387 629.366 353.219 628.578 353.219 627.676C353.219 626.771 353.387 625.979 353.724 625.301C354.062 624.623 354.535 624.097 355.145 623.722C355.755 623.347 356.469 623.159 357.287 623.159C358.105 623.159 358.819 623.347 359.429 623.722C360.039 624.097 360.512 624.623 360.849 625.301C361.187 625.979 361.355 626.771 361.355 627.676C361.355 628.578 361.187 629.366 360.849 630.04C360.512 630.714 360.039 631.239 359.429 631.614C358.819 631.989 358.105 632.176 357.287 632.176ZM357.293 630.75C357.823 630.75 358.262 630.61 358.611 630.33C358.959 630.049 359.217 629.676 359.384 629.21C359.554 628.744 359.639 628.231 359.639 627.67C359.639 627.114 359.554 626.602 359.384 626.136C359.217 625.667 358.959 625.29 358.611 625.006C358.262 624.722 357.823 624.58 357.293 624.58C356.759 624.58 356.315 624.722 355.963 625.006C355.615 625.29 355.355 625.667 355.185 626.136C355.018 626.602 354.935 627.114 354.935 627.67C354.935 628.231 355.018 628.744 355.185 629.21C355.355 629.676 355.615 630.049 355.963 630.33C356.315 630.61 356.759 630.75 357.293 630.75ZM363.251 632V623.273H364.893V624.659H364.984C365.143 624.189 365.424 623.82 365.825 623.551C366.231 623.278 366.689 623.142 367.2 623.142C367.306 623.142 367.431 623.146 367.575 623.153C367.723 623.161 367.839 623.17 367.922 623.182V624.807C367.854 624.788 367.732 624.767 367.558 624.744C367.384 624.718 367.21 624.705 367.036 624.705C366.634 624.705 366.276 624.79 365.962 624.96C365.651 625.127 365.405 625.36 365.223 625.659C365.041 625.955 364.95 626.292 364.95 626.67V632H363.251Z" fill="white"/>
<path d="M145.334 624.148H143.561C143.493 623.769 143.366 623.436 143.18 623.148C142.995 622.86 142.768 622.616 142.499 622.415C142.23 622.214 141.929 622.062 141.595 621.96C141.266 621.858 140.915 621.807 140.544 621.807C139.874 621.807 139.273 621.975 138.743 622.312C138.216 622.65 137.8 623.144 137.493 623.795C137.19 624.447 137.038 625.242 137.038 626.182C137.038 627.129 137.19 627.928 137.493 628.58C137.8 629.231 138.218 629.723 138.749 630.057C139.279 630.39 139.875 630.557 140.538 630.557C140.906 630.557 141.254 630.508 141.584 630.409C141.917 630.307 142.218 630.157 142.487 629.96C142.756 629.763 142.983 629.523 143.169 629.239C143.358 628.951 143.489 628.621 143.561 628.25L145.334 628.256C145.239 628.828 145.055 629.354 144.783 629.835C144.514 630.312 144.167 630.725 143.743 631.074C143.322 631.419 142.841 631.686 142.3 631.875C141.758 632.064 141.167 632.159 140.527 632.159C139.519 632.159 138.622 631.92 137.834 631.443C137.046 630.962 136.425 630.275 135.97 629.381C135.519 628.487 135.294 627.42 135.294 626.182C135.294 624.939 135.521 623.873 135.976 622.983C136.43 622.089 137.052 621.403 137.839 620.926C138.627 620.445 139.523 620.205 140.527 620.205C141.144 620.205 141.72 620.294 142.254 620.472C142.792 620.646 143.275 620.903 143.703 621.244C144.131 621.581 144.485 621.994 144.766 622.483C145.046 622.968 145.235 623.523 145.334 624.148ZM147.298 632V623.273H148.94V624.659H149.031C149.19 624.189 149.471 623.82 149.872 623.551C150.277 623.278 150.736 623.142 151.247 623.142C151.353 623.142 151.478 623.146 151.622 623.153C151.77 623.161 151.885 623.17 151.969 623.182V624.807C151.901 624.788 151.779 624.767 151.605 624.744C151.431 624.718 151.257 624.705 151.082 624.705C150.681 624.705 150.323 624.79 150.009 624.96C149.698 625.127 149.452 625.36 149.27 625.659C149.088 625.955 148.997 626.292 148.997 626.67V632H147.298ZM154.778 635.273C154.525 635.273 154.294 635.252 154.085 635.21C153.877 635.172 153.722 635.131 153.619 635.085L154.028 633.693C154.339 633.777 154.616 633.813 154.858 633.801C155.1 633.79 155.314 633.699 155.5 633.528C155.689 633.358 155.856 633.08 156 632.693L156.21 632.114L153.017 623.273H154.835L157.045 630.045H157.136L159.347 623.273H161.17L157.574 633.165C157.407 633.619 157.195 634.004 156.938 634.318C156.68 634.636 156.373 634.875 156.017 635.034C155.661 635.193 155.248 635.273 154.778 635.273ZM162.767 635.273V623.273H164.426V624.688H164.568C164.667 624.506 164.809 624.295 164.994 624.057C165.18 623.818 165.438 623.61 165.767 623.432C166.097 623.25 166.532 623.159 167.074 623.159C167.778 623.159 168.407 623.337 168.96 623.693C169.513 624.049 169.947 624.562 170.261 625.233C170.58 625.903 170.739 626.71 170.739 627.653C170.739 628.597 170.581 629.405 170.267 630.08C169.953 630.75 169.521 631.267 168.972 631.631C168.422 631.991 167.795 632.17 167.091 632.17C166.561 632.17 166.127 632.081 165.79 631.903C165.456 631.725 165.195 631.517 165.006 631.278C164.816 631.04 164.67 630.828 164.568 630.642H164.466V635.273H162.767ZM164.432 627.636C164.432 628.25 164.521 628.788 164.699 629.25C164.877 629.712 165.134 630.074 165.472 630.335C165.809 630.593 166.222 630.722 166.71 630.722C167.218 630.722 167.642 630.587 167.983 630.318C168.324 630.045 168.581 629.676 168.756 629.21C168.934 628.744 169.023 628.22 169.023 627.636C169.023 627.061 168.936 626.544 168.761 626.085C168.591 625.627 168.333 625.265 167.989 625C167.648 624.735 167.222 624.602 166.71 624.602C166.218 624.602 165.801 624.729 165.46 624.983C165.123 625.237 164.867 625.591 164.693 626.045C164.519 626.5 164.432 627.03 164.432 627.636ZM176.716 623.273V624.636H171.949V623.273H176.716ZM173.227 621.182H174.926V629.438C174.926 629.767 174.975 630.015 175.074 630.182C175.172 630.345 175.299 630.456 175.455 630.517C175.614 630.574 175.786 630.602 175.972 630.602C176.108 630.602 176.227 630.593 176.33 630.574C176.432 630.555 176.511 630.54 176.568 630.528L176.875 631.932C176.777 631.97 176.636 632.008 176.455 632.045C176.273 632.087 176.045 632.11 175.773 632.114C175.326 632.121 174.909 632.042 174.523 631.875C174.136 631.708 173.824 631.451 173.585 631.102C173.347 630.754 173.227 630.316 173.227 629.79V621.182ZM182.178 632.176C181.359 632.176 180.645 631.989 180.036 631.614C179.426 631.239 178.952 630.714 178.615 630.04C178.278 629.366 178.109 628.578 178.109 627.676C178.109 626.771 178.278 625.979 178.615 625.301C178.952 624.623 179.426 624.097 180.036 623.722C180.645 623.347 181.359 623.159 182.178 623.159C182.996 623.159 183.71 623.347 184.32 623.722C184.929 624.097 185.403 624.623 185.74 625.301C186.077 625.979 186.246 626.771 186.246 627.676C186.246 628.578 186.077 629.366 185.74 630.04C185.403 630.714 184.929 631.239 184.32 631.614C183.71 631.989 182.996 632.176 182.178 632.176ZM182.183 630.75C182.714 630.75 183.153 630.61 183.501 630.33C183.85 630.049 184.107 629.676 184.274 629.21C184.445 628.744 184.53 628.231 184.53 627.67C184.53 627.114 184.445 626.602 184.274 626.136C184.107 625.667 183.85 625.29 183.501 625.006C183.153 624.722 182.714 624.58 182.183 624.58C181.649 624.58 181.206 624.722 180.854 625.006C180.505 625.29 180.246 625.667 180.075 626.136C179.909 626.602 179.825 627.114 179.825 627.67C179.825 628.231 179.909 628.744 180.075 629.21C180.246 629.676 180.505 630.049 180.854 630.33C181.206 630.61 181.649 630.75 182.183 630.75Z" fill="white"/>
<g clip-path="url(#clip0_1177_22251)">
<path d="M249.449 574.834L199.869 624.414C198.727 625.556 198.727 627.409 199.869 628.551L249.449 678.13C250.591 679.273 252.444 679.273 253.586 678.13L303.166 628.551C304.308 627.409 304.308 625.556 303.166 624.414L253.586 574.834C252.444 573.692 250.591 573.692 249.449 574.834Z" fill="#FFAA00"/>
<path d="M259.074 667.273L300.057 626.364L251.487 577.793L202.941 626.364L243.727 667.273H259.074Z" fill="black"/>
<path d="M251.512 657.405C251.356 657.399 251.203 657.356 251.066 657.281L224.314 641.835C224.187 641.756 224.082 641.647 224.008 641.517C223.935 641.387 223.895 641.24 223.893 641.091V610.793C223.895 610.643 223.936 610.497 224.013 610.368C224.089 610.239 224.197 610.131 224.327 610.056C224.456 609.982 224.603 609.942 224.753 609.94C224.903 609.939 225.051 609.977 225.182 610.05L251.934 625.471C252.067 625.545 252.178 625.653 252.257 625.783C252.335 625.914 252.378 626.063 252.38 626.215V656.512C252.378 656.665 252.335 656.813 252.257 656.944C252.178 657.075 252.067 657.182 251.934 657.256C251.809 657.343 251.664 657.394 251.512 657.405V657.405ZM225.628 640.57L250.645 655.025V626.736L225.628 612.306V640.57Z" fill="#58595B"/>
<path d="M251.512 657.405C251.356 657.399 251.203 657.356 251.066 657.281C250.936 657.206 250.828 657.097 250.754 656.967C250.68 656.836 250.642 656.688 250.645 656.537V626.24C250.642 626.089 250.68 625.941 250.754 625.81C250.828 625.68 250.936 625.571 251.066 625.496L277.818 610.05C277.951 609.976 278.1 609.937 278.252 609.937C278.404 609.937 278.553 609.976 278.686 610.05C278.819 610.124 278.93 610.231 279.009 610.362C279.087 610.492 279.13 610.641 279.132 610.793V641.091C279.13 641.243 279.087 641.392 279.009 641.523C278.93 641.653 278.819 641.761 278.686 641.835L251.934 657.281C251.807 657.359 251.661 657.402 251.512 657.405ZM252.38 626.736V655.025L277.397 640.57V612.306L252.38 626.736Z" fill="#58595B"/>
<path d="M251.512 627.107C251.354 627.113 251.198 627.07 251.066 626.983L224.313 611.537C224.18 611.463 224.069 611.356 223.991 611.225C223.912 611.094 223.87 610.946 223.867 610.793C223.867 610.641 223.909 610.491 223.987 610.36C224.066 610.229 224.179 610.121 224.313 610.05L251.066 594.603C251.195 594.519 251.345 594.474 251.499 594.474C251.653 594.474 251.804 594.519 251.933 594.603L278.685 610.05C278.816 610.125 278.923 610.233 278.997 610.364C279.071 610.495 279.109 610.643 279.107 610.793C279.109 610.947 279.071 611.098 278.997 611.233C278.923 611.368 278.816 611.481 278.685 611.562L251.933 626.983C251.812 627.073 251.662 627.117 251.512 627.107ZM226.471 610.793L251.512 625.248L276.504 610.793L251.487 596.339L226.471 610.793Z" fill="#58595B"/>
<path d="M224.76 641.959C224.613 641.992 224.461 641.992 224.314 641.959C224.185 641.876 224.079 641.762 224.006 641.628C223.932 641.494 223.893 641.343 223.893 641.19V610.793C223.893 610.644 223.932 610.496 224.005 610.366C224.079 610.236 224.186 610.127 224.314 610.05L251.066 594.603C251.195 594.519 251.346 594.474 251.5 594.474C251.654 594.474 251.805 594.519 251.934 594.603C252.067 594.677 252.178 594.785 252.257 594.915C252.335 595.046 252.378 595.195 252.38 595.347V625.645C252.378 625.797 252.335 625.946 252.257 626.076C252.178 626.207 252.067 626.314 251.934 626.388L225.182 641.835C225.055 641.913 224.909 641.955 224.76 641.959V641.959ZM225.628 611.289V639.579L250.645 625.124V596.859L225.628 611.289Z" fill="#58595B"/>
<path d="M278.339 641.959C278.192 641.992 278.04 641.992 277.893 641.959L251.066 626.388C250.936 626.313 250.828 626.205 250.754 626.074C250.68 625.943 250.642 625.795 250.645 625.645V595.347C250.642 595.197 250.68 595.049 250.754 594.918C250.828 594.787 250.936 594.678 251.066 594.603C251.195 594.519 251.346 594.474 251.5 594.474C251.654 594.474 251.805 594.519 251.934 594.603L278.686 610.05C278.821 610.121 278.934 610.229 279.012 610.36C279.091 610.491 279.132 610.641 279.132 610.793V641.066C279.134 641.223 279.094 641.377 279.015 641.512C278.936 641.647 278.823 641.759 278.686 641.835C278.581 641.901 278.462 641.943 278.339 641.959V641.959ZM252.455 625.124L277.471 639.579V611.289L252.455 596.859V625.124Z" fill="#58595B"/>
<path d="M251.487 657.405C251.338 657.402 251.193 657.359 251.066 657.281L224.313 641.835C224.18 641.761 224.069 641.653 223.991 641.523C223.912 641.392 223.87 641.243 223.867 641.091C223.87 640.935 223.913 640.783 223.991 640.649C224.069 640.515 224.18 640.402 224.313 640.322L251.066 624.876C251.198 624.802 251.348 624.763 251.499 624.763C251.651 624.763 251.801 624.802 251.933 624.876L278.685 640.347C278.816 640.422 278.923 640.531 278.997 640.662C279.071 640.792 279.109 640.941 279.107 641.091C279.109 641.244 279.071 641.396 278.997 641.531C278.923 641.665 278.816 641.778 278.685 641.859L251.933 657.306C251.795 657.376 251.642 657.41 251.487 657.405V657.405ZM226.471 641.091L251.487 655.521L276.504 641.066L251.512 626.636L226.471 641.091Z" fill="#58595B"/>
<path d="M251.338 644.934C261.54 644.934 269.809 636.664 269.809 626.463C269.809 616.262 261.54 607.992 251.338 607.992C241.137 607.992 232.867 616.262 232.867 626.463C232.867 636.664 241.137 644.934 251.338 644.934Z" fill="white"/>
<path d="M246.107 635.612H242.289L249.231 615.926H253.62L260.562 635.612H256.768L251.487 619.967H251.339L246.107 635.612ZM246.231 627.901H256.595V630.752H246.231V627.901Z" fill="black"/>
</g>
<defs>
<clipPath id="clip0_1177_22251">
<rect width="105" height="105" fill="white" transform="translate(199 574)"/>
</clipPath>
</defs>
</svg>
