<svg width="334" height="261" viewBox="0 0 334 261" fill="none" xmlns="http://www.w3.org/2000/svg">
<rect width="333.333" height="261" fill="white"/>
<path d="M166.728 192.808C166.18 192.81 165.638 192.924 165.136 193.142C164.633 193.36 164.18 193.678 163.804 194.077C163.428 194.476 163.137 194.947 162.95 195.462C162.762 195.977 162.681 196.525 162.711 197.072C162.742 197.619 162.884 198.154 163.128 198.645C163.372 199.135 163.714 199.571 164.132 199.926C164.55 200.28 165.036 200.546 165.56 200.706C166.084 200.867 166.635 200.919 167.18 200.86C168.249 200.792 169.248 200.305 169.96 199.505C170.672 198.704 171.038 197.654 170.98 196.585C170.95 196.057 170.815 195.541 170.585 195.066C170.355 194.59 170.033 194.165 169.638 193.814C169.243 193.463 168.783 193.194 168.284 193.021C167.784 192.849 167.256 192.776 166.728 192.808Z" fill="#E74024"/>
<path d="M191.215 173.001C192.469 172.28 193.48 171.203 194.122 169.908C194.763 168.612 195.006 167.155 194.821 165.721C194.635 164.287 194.028 162.941 193.077 161.851C192.126 160.762 190.874 159.979 189.478 159.601C188.082 159.223 186.606 159.267 185.235 159.728C183.865 160.189 182.661 161.045 181.777 162.189C180.893 163.334 180.368 164.714 180.268 166.157C180.169 167.599 180.499 169.039 181.217 170.294C181.694 171.129 182.332 171.862 183.094 172.45C183.855 173.038 184.725 173.471 185.654 173.722C186.583 173.974 187.552 174.04 188.507 173.916C189.461 173.792 190.381 173.481 191.215 173.001Z" fill="#E74024"/>
<path d="M182.879 189.864C184.087 189.526 185.167 188.837 185.984 187.885C186.801 186.933 187.317 185.76 187.466 184.514C187.616 183.269 187.393 182.007 186.826 180.889C186.258 179.77 185.372 178.845 184.279 178.23C183.185 177.615 181.934 177.338 180.683 177.435C179.433 177.531 178.239 177.996 177.252 178.771C176.266 179.546 175.532 180.596 175.142 181.789C174.753 182.981 174.726 184.262 175.065 185.47C175.519 187.088 176.597 188.46 178.062 189.284C179.528 190.108 181.26 190.317 182.879 189.864Z" fill="#E74024"/>
<path d="M167.181 69.0731C167.98 69.0491 168.754 68.7884 169.405 68.3242C170.056 67.8599 170.554 67.213 170.837 66.4653C171.119 65.7176 171.174 64.9028 170.993 64.1241C170.812 63.3455 170.404 62.6381 169.821 62.0915C169.238 61.5449 168.505 61.1837 167.716 61.0537C166.928 60.9238 166.118 61.0308 165.39 61.3614C164.662 61.692 164.049 62.2312 163.628 62.9106C163.207 63.5901 162.997 64.3792 163.025 65.1781C163.062 66.2449 163.52 67.2535 164.299 67.9834C165.078 68.7133 166.114 69.1051 167.181 69.0731Z" fill="#E74024"/>
<path d="M142.67 88.4765C141.399 89.1673 140.362 90.2192 139.689 91.4992C139.016 92.7792 138.737 94.23 138.889 95.6682C139.04 97.1064 139.614 98.4675 140.539 99.5795C141.463 100.692 142.697 101.505 144.083 101.916C145.47 102.327 146.947 102.318 148.328 101.89C149.71 101.462 150.933 100.634 151.845 99.5114C152.756 98.3884 153.313 97.0205 153.447 95.5806C153.581 94.1407 153.286 92.6933 152.597 91.4215C152.139 90.5756 151.519 89.8283 150.772 89.2223C150.025 88.6164 149.166 88.1637 148.244 87.8901C147.322 87.6166 146.355 87.5276 145.398 87.6282C144.442 87.7288 143.515 88.0171 142.67 88.4765Z" fill="#E74024"/>
<path d="M151.22 71.6141C150.003 71.9208 148.905 72.5816 148.064 73.5129C147.223 74.4442 146.677 75.6041 146.495 76.8457C146.314 78.0873 146.505 79.3549 147.044 80.488C147.583 81.621 148.447 82.5686 149.525 83.2108C150.603 83.853 151.847 84.1608 153.1 84.0955C154.354 84.0301 155.559 83.5944 156.565 82.8435C157.57 82.0927 158.33 81.0604 158.749 79.8774C159.167 78.6944 159.225 77.4138 158.915 76.1978C158.501 74.5707 157.458 73.1744 156.015 72.3151C154.573 71.4558 152.848 71.2037 151.22 71.6141Z" fill="#E74024"/>
<path d="M197.675 184.615C197.009 185.054 196.489 185.681 196.179 186.416C195.869 187.151 195.783 187.961 195.933 188.744C196.084 189.528 196.462 190.249 197.022 190.818C197.582 191.386 198.297 191.776 199.078 191.938C199.859 192.1 200.671 192.027 201.41 191.729C202.15 191.43 202.785 190.919 203.234 190.26C203.684 189.601 203.928 188.824 203.936 188.026C203.944 187.229 203.716 186.447 203.28 185.779C202.689 184.884 201.768 184.259 200.718 184.041C199.668 183.823 198.574 184.029 197.675 184.615Z" fill="#E74024"/>
<path d="M209.005 155.237C209.73 153.985 210.068 152.546 209.976 151.103C209.884 149.659 209.365 148.275 208.487 147.126C207.608 145.976 206.408 145.114 205.039 144.646C203.67 144.179 202.193 144.128 200.795 144.5C199.397 144.872 198.14 145.65 197.184 146.736C196.229 147.822 195.616 149.167 195.425 150.6C195.233 152.034 195.471 153.493 196.109 154.792C196.746 156.09 197.754 157.171 199.006 157.897C200.687 158.857 202.68 159.117 204.551 158.619C206.423 158.121 208.023 156.906 209.005 155.237Z" fill="#E74024"/>
<path d="M210.406 173.928C211.28 173.028 211.867 171.891 212.094 170.658C212.322 169.425 212.178 168.153 211.683 167.001C211.187 165.85 210.361 164.871 209.309 164.189C208.258 163.507 207.028 163.151 205.774 163.168C204.521 163.185 203.3 163.572 202.267 164.282C201.234 164.992 200.434 165.992 199.969 167.156C199.504 168.32 199.394 169.596 199.654 170.822C199.914 172.049 200.531 173.171 201.428 174.046C202.024 174.632 202.729 175.093 203.504 175.405C204.278 175.716 205.107 175.87 205.942 175.859C206.777 175.848 207.601 175.672 208.367 175.34C209.134 175.009 209.827 174.528 210.406 173.928Z" fill="#E74024"/>
<path d="M136.138 77.2903C136.814 76.8654 137.35 76.2491 137.676 75.5195C138.003 74.7899 138.105 73.9799 137.971 73.1921C137.836 72.4042 137.471 71.674 136.921 71.0938C136.372 70.5137 135.662 70.1098 134.883 69.9332C134.103 69.7567 133.289 69.8155 132.543 70.1021C131.797 70.3887 131.152 70.8904 130.692 71.5434C130.231 72.1965 129.974 72.9716 129.954 73.7706C129.935 74.5695 130.152 75.3564 130.58 76.0316C131.151 76.9338 132.057 77.5727 133.099 77.8086C134.14 78.0445 135.233 77.8582 136.138 77.2903Z" fill="#E74024"/>
<path d="M124.69 106.312C123.93 107.543 123.551 108.971 123.602 110.417C123.653 111.863 124.132 113.261 124.978 114.435C125.824 115.608 126.998 116.505 128.354 117.011C129.709 117.517 131.184 117.61 132.592 117.278C134 116.946 135.278 116.204 136.264 115.145C137.251 114.087 137.901 112.76 138.133 111.332C138.365 109.904 138.169 108.44 137.568 107.123C136.968 105.807 135.991 104.698 134.761 103.937C133.944 103.432 133.035 103.092 132.087 102.938C131.138 102.784 130.169 102.818 129.234 103.039C128.298 103.259 127.416 103.662 126.636 104.224C125.857 104.785 125.196 105.495 124.69 106.312Z" fill="#E74024"/>
<path d="M123.836 87.3601C122.939 88.2357 122.321 89.3576 122.061 90.5839C121.802 91.8102 121.911 93.086 122.376 94.2501C122.841 95.4142 123.641 96.4143 124.674 97.1242C125.707 97.834 126.928 98.2218 128.181 98.2383C129.435 98.2549 130.665 97.8996 131.717 97.2173C132.768 96.5351 133.594 95.5564 134.09 94.405C134.585 93.2537 134.729 91.9812 134.502 90.7484C134.274 89.5157 133.687 88.3779 132.813 87.4788C132.232 86.8807 131.539 86.4031 130.773 86.0733C130.007 85.7436 129.183 85.5682 128.349 85.5571C127.515 85.5461 126.687 85.6997 125.913 86.0091C125.138 86.3184 124.432 86.7775 123.836 87.3601Z" fill="#E74024"/>
<path d="M220.405 162.076C220.05 162.79 219.914 163.593 220.015 164.384C220.116 165.175 220.448 165.918 220.971 166.521C221.494 167.123 222.183 167.556 222.952 167.767C223.721 167.978 224.535 167.957 225.292 167.706C226.049 167.454 226.714 166.985 227.204 166.356C227.694 165.727 227.988 164.968 228.047 164.172C228.106 163.377 227.928 162.583 227.536 161.888C227.144 161.194 226.555 160.631 225.843 160.271C225.368 160.031 224.85 159.887 224.319 159.847C223.788 159.808 223.254 159.874 222.748 160.042C222.243 160.21 221.775 160.476 221.373 160.825C220.971 161.174 220.642 161.599 220.405 162.076Z" fill="#E74024"/>
<path d="M215.513 130.941C215.513 129.495 215.085 128.082 214.282 126.879C213.479 125.677 212.338 124.739 211.003 124.185C209.668 123.631 208.198 123.485 206.78 123.765C205.361 124.045 204.058 124.74 203.034 125.76C202.01 126.781 201.311 128.082 201.026 129.499C200.741 130.917 200.883 132.387 201.433 133.724C201.983 135.061 202.917 136.205 204.117 137.011C205.316 137.818 206.728 138.251 208.174 138.256C210.116 138.256 211.98 137.486 213.355 136.115C214.731 134.744 215.507 132.883 215.513 130.941Z" fill="#E74024"/>
<path d="M226.271 146.378C226.579 145.163 226.521 143.884 226.102 142.702C225.684 141.52 224.925 140.489 223.92 139.739C222.916 138.988 221.712 138.553 220.46 138.486C219.208 138.42 217.965 138.726 216.887 139.366C215.809 140.006 214.945 140.952 214.404 142.083C213.863 143.213 213.669 144.479 213.848 145.72C214.026 146.961 214.568 148.121 215.405 149.054C216.243 149.987 217.338 150.651 218.552 150.962C219.36 151.172 220.202 151.22 221.028 151.103C221.855 150.985 222.65 150.706 223.368 150.279C224.085 149.853 224.711 149.289 225.21 148.619C225.708 147.95 226.069 147.188 226.271 146.378Z" fill="#E74024"/>
<path d="M113.432 99.7814C113.808 99.0768 113.966 98.2766 113.887 97.482C113.808 96.6874 113.496 95.9341 112.988 95.3172C112.481 94.7004 111.802 94.2479 111.038 94.0168C110.274 93.7857 109.458 93.7864 108.694 94.0189C107.93 94.2514 107.252 94.7052 106.746 95.323C106.24 95.9407 105.929 96.6946 105.851 97.4894C105.774 98.2841 105.933 99.084 106.311 99.7879C106.688 100.492 107.265 101.068 107.97 101.444C108.916 101.941 110.02 102.046 111.042 101.735C112.065 101.423 112.924 100.722 113.432 99.7814Z" fill="#E74024"/>
<path d="M118.04 130.656C118.003 132.102 118.396 133.526 119.168 134.75C119.941 135.973 121.059 136.939 122.38 137.527C123.702 138.115 125.169 138.298 126.594 138.052C128.02 137.807 129.341 137.144 130.39 136.148C131.439 135.152 132.169 133.868 132.488 132.457C132.807 131.046 132.701 129.572 132.182 128.222C131.664 126.871 130.757 125.705 129.575 124.87C128.394 124.035 126.992 123.569 125.546 123.531C123.607 123.486 121.73 124.21 120.323 125.545C118.917 126.88 118.096 128.718 118.04 130.656Z" fill="#E74024"/>
<path d="M108.017 114.672C107.674 115.879 107.697 117.161 108.082 118.356C108.468 119.55 109.199 120.603 110.184 121.382C111.168 122.16 112.362 122.629 113.613 122.728C114.864 122.828 116.117 122.554 117.212 121.942C118.308 121.329 119.197 120.405 119.767 119.287C120.336 118.169 120.562 116.907 120.414 115.66C120.266 114.414 119.752 113.24 118.936 112.286C118.12 111.332 117.04 110.642 115.831 110.302C114.216 109.849 112.486 110.054 111.021 110.873C109.557 111.692 108.477 113.058 108.017 114.672Z" fill="#E74024"/>
<path d="M228.931 131.154C228.974 131.952 229.254 132.719 229.734 133.358C230.213 133.997 230.872 134.479 231.626 134.744C232.38 135.008 233.195 135.043 233.969 134.844C234.743 134.645 235.44 134.22 235.973 133.625C236.505 133.029 236.849 132.289 236.96 131.497C237.072 130.706 236.946 129.9 236.599 129.18C236.252 128.46 235.699 127.86 235.011 127.455C234.322 127.049 233.529 126.857 232.731 126.903C231.664 126.964 230.664 127.446 229.952 128.243C229.24 129.04 228.872 130.087 228.931 131.154Z" fill="#FFD100"/>
<path d="M209.029 106.669C208.31 105.412 207.235 104.397 205.939 103.752C204.644 103.107 203.186 102.861 201.75 103.044C200.315 103.228 198.966 103.833 197.874 104.784C196.783 105.734 195.998 106.987 195.619 108.384C195.24 109.781 195.283 111.259 195.744 112.63C196.205 114.002 197.063 115.207 198.209 116.091C199.355 116.975 200.737 117.5 202.181 117.598C203.625 117.696 205.066 117.364 206.321 116.644C208.002 115.679 209.23 114.086 209.738 112.216C210.246 110.346 209.991 108.351 209.029 106.669Z" fill="#FFD100"/>
<path d="M226.223 114.577C225.887 113.37 225.2 112.289 224.249 111.471C223.299 110.654 222.127 110.137 220.883 109.985C219.638 109.833 218.377 110.054 217.257 110.618C216.138 111.183 215.212 112.067 214.595 113.159C213.978 114.25 213.698 115.5 213.791 116.75C213.884 118 214.345 119.195 215.117 120.183C215.889 121.171 216.936 121.908 218.127 122.301C219.317 122.694 220.598 122.725 221.806 122.391C223.425 121.936 224.799 120.859 225.627 119.395C226.454 117.931 226.669 116.199 226.223 114.577Z" fill="#FFD100"/>
<path d="M105.073 130.798C105.049 129.999 104.789 129.225 104.324 128.575C103.86 127.924 103.213 127.426 102.465 127.143C101.718 126.86 100.903 126.806 100.124 126.987C99.3456 127.168 98.6381 127.576 98.0915 128.159C97.5449 128.742 97.1837 129.474 97.0537 130.263C96.9238 131.052 97.0308 131.861 97.3614 132.589C97.692 133.317 98.2312 133.93 98.9107 134.351C99.5902 134.773 100.379 134.982 101.178 134.955C101.708 134.939 102.228 134.819 102.711 134.602C103.194 134.384 103.629 134.073 103.991 133.687C104.353 133.301 104.635 132.847 104.821 132.351C105.007 131.855 105.092 131.327 105.073 130.798Z" fill="#FFD100"/>
<path d="M124.43 155.213C125.12 156.484 126.172 157.521 127.452 158.194C128.732 158.867 130.183 159.145 131.621 158.994C133.06 158.842 134.421 158.268 135.533 157.344C136.645 156.419 137.458 155.186 137.869 153.799C138.281 152.413 138.272 150.936 137.844 149.554C137.416 148.173 136.588 146.949 135.465 146.038C134.342 145.127 132.974 144.57 131.534 144.436C130.094 144.302 128.646 144.597 127.375 145.286C126.529 145.744 125.781 146.364 125.175 147.111C124.569 147.857 124.117 148.717 123.843 149.639C123.57 150.561 123.481 151.528 123.581 152.484C123.682 153.441 123.97 154.368 124.43 155.213Z" fill="#FFD100"/>
<path d="M107.97 146.259C108.277 147.476 108.937 148.575 109.869 149.416C110.8 150.257 111.96 150.802 113.202 150.984C114.443 151.165 115.711 150.975 116.844 150.435C117.977 149.896 118.925 149.033 119.567 147.955C120.209 146.877 120.517 145.632 120.452 144.379C120.386 143.126 119.951 141.92 119.2 140.915C118.449 139.91 117.417 139.15 116.233 138.731C115.05 138.313 113.77 138.255 112.554 138.565C111.746 138.767 110.987 139.127 110.319 139.624C109.651 140.12 109.088 140.744 108.662 141.459C108.236 142.174 107.956 142.966 107.837 143.79C107.718 144.614 107.763 145.453 107.97 146.259Z" fill="#FFD100"/>
<path d="M220.642 100.209C221.081 100.874 221.708 101.395 222.443 101.705C223.178 102.015 223.988 102.1 224.772 101.95C225.555 101.8 226.277 101.422 226.845 100.862C227.413 100.302 227.803 99.5868 227.965 98.8058C228.128 98.0248 228.055 97.2133 227.756 96.4736C227.458 95.734 226.947 95.0993 226.288 94.6498C225.629 94.2003 224.851 93.956 224.054 93.9478C223.256 93.9396 222.474 94.1678 221.806 94.6037C221.36 94.8943 220.977 95.2702 220.677 95.7096C220.377 96.1491 220.167 96.6434 220.059 97.1642C219.951 97.6851 219.947 98.2222 220.047 98.7446C220.147 99.2671 220.349 99.7646 220.642 100.209Z" fill="#FFAA00"/>
<path d="M191.239 88.8801C189.987 88.1547 188.549 87.8167 187.105 87.9089C185.661 88.0011 184.277 88.5193 183.128 89.398C181.979 90.2767 181.116 91.4765 180.648 92.8455C180.181 94.2146 180.13 95.6915 180.502 97.0895C180.874 98.4876 181.652 99.7439 182.738 100.7C183.824 101.656 185.169 102.268 186.603 102.459C188.037 102.651 189.495 102.413 190.794 101.776C192.093 101.138 193.173 100.13 193.899 98.8787C194.381 98.0475 194.695 97.1296 194.822 96.1772C194.949 95.2249 194.887 94.2568 194.64 93.3283C194.393 92.3998 193.966 91.5291 193.382 90.7659C192.798 90.0026 192.07 89.3618 191.239 88.8801Z" fill="#FFAA00"/>
<path d="M210.288 87.0753C209.39 86.1984 208.252 85.6076 207.018 85.3778C205.785 85.1479 204.51 85.2893 203.357 85.784C202.204 86.2788 201.223 87.1046 200.539 88.157C199.856 89.2093 199.5 90.4409 199.516 91.6958C199.533 92.9506 199.921 94.1723 200.633 95.2062C201.344 96.24 202.346 97.0396 203.513 97.5035C204.679 97.9675 205.956 98.0751 207.183 97.8125C208.411 97.55 209.532 96.9293 210.407 96.0289C211.576 94.8247 212.22 93.2059 212.198 91.5276C212.176 89.8492 211.489 88.2481 210.288 87.0753Z" fill="#FFAA00"/>
<path d="M113.314 161.744C112.894 161.065 112.281 160.526 111.555 160.195C110.828 159.864 110.019 159.756 109.231 159.885C108.443 160.013 107.711 160.373 107.127 160.918C106.543 161.463 106.134 162.168 105.951 162.946C105.768 163.723 105.82 164.537 106.1 165.285C106.38 166.033 106.876 166.681 107.524 167.147C108.172 167.614 108.944 167.877 109.743 167.905C110.541 167.932 111.329 167.722 112.008 167.302C112.918 166.738 113.567 165.836 113.812 164.793C114.057 163.751 113.878 162.654 113.314 161.744Z" fill="#FFAA00"/>
<path d="M142.338 173.191C143.569 173.952 144.997 174.331 146.443 174.28C147.889 174.228 149.287 173.75 150.461 172.904C151.635 172.058 152.531 170.884 153.037 169.528C153.544 168.173 153.636 166.698 153.304 165.29C152.972 163.882 152.23 162.604 151.172 161.618C150.113 160.632 148.786 159.981 147.358 159.749C145.93 159.517 144.465 159.714 143.149 160.314C141.833 160.914 140.724 161.891 139.963 163.122C139.455 163.938 139.113 164.847 138.957 165.795C138.801 166.744 138.834 167.715 139.055 168.651C139.276 169.587 139.68 170.47 140.243 171.249C140.806 172.028 141.519 172.688 142.338 173.191Z" fill="#FFAA00"/>
<path d="M123.717 173.619C124.591 174.519 125.713 175.14 126.94 175.403C128.167 175.665 129.445 175.557 130.611 175.094C131.777 174.63 132.779 173.83 133.49 172.796C134.202 171.762 134.59 170.541 134.607 169.286C134.624 168.031 134.268 166.799 133.584 165.747C132.9 164.695 131.92 163.869 130.766 163.374C129.613 162.879 128.339 162.738 127.105 162.968C125.871 163.198 124.733 163.788 123.835 164.665C123.238 165.244 122.761 165.936 122.431 166.7C122.102 167.464 121.927 168.285 121.916 169.117C121.905 169.949 122.058 170.775 122.367 171.548C122.676 172.32 123.135 173.024 123.717 173.619Z" fill="#FFAA00"/>
<path d="M167.18 82.0164C165.728 81.9746 164.297 82.3644 163.067 83.1365C161.837 83.9086 160.864 85.0283 160.27 86.3538C159.677 87.6793 159.49 89.151 159.734 90.5827C159.977 92.0143 160.64 93.3415 161.638 94.3963C162.637 95.4511 163.925 96.186 165.342 96.508C166.758 96.83 168.237 96.7246 169.594 96.2052C170.95 95.6858 172.121 94.7757 172.96 93.5901C173.799 92.4045 174.267 90.9968 174.305 89.545C174.356 87.6025 173.635 85.7191 172.299 84.3077C170.963 82.8963 169.122 82.0723 167.18 82.0164Z" fill="#FF8300"/>
<path d="M198.057 77.4567C198.53 77.7872 199.068 78.0124 199.636 78.1171C200.203 78.2219 200.787 78.2037 201.347 78.0639C201.907 77.924 202.43 77.6658 202.882 77.3065C203.334 76.9472 203.703 76.4952 203.965 75.9811C204.228 75.4669 204.377 74.9025 204.402 74.3259C204.428 73.7493 204.33 73.1739 204.114 72.6386C203.898 72.1032 203.57 71.6202 203.152 71.2223C202.734 70.8244 202.236 70.5207 201.69 70.3318C200.77 70.0128 199.764 70.0376 198.86 70.4016C197.956 70.7656 197.215 71.4443 196.772 72.3124C196.329 73.1806 196.215 74.1795 196.451 75.125C196.687 76.0705 197.258 76.8986 198.057 77.4567Z" fill="#FF8300"/>
<path d="M182.736 71.2816C181.134 70.9392 179.461 71.2302 178.068 72.0938C176.676 72.9574 175.672 74.3264 175.266 75.914C174.861 77.5016 175.086 79.1844 175.894 80.6099C176.702 82.0353 178.031 83.0926 179.601 83.5602C180.419 83.8038 181.278 83.8797 182.127 83.7833C182.975 83.6869 183.795 83.4202 184.538 82.9992C185.281 82.5781 185.931 82.0114 186.449 81.3331C186.968 80.6547 187.344 79.8786 187.555 79.0514C187.766 78.2242 187.808 77.3628 187.678 76.519C187.549 75.6751 187.25 74.8661 186.8 74.1406C186.35 73.415 185.758 72.7878 185.06 72.2965C184.361 71.8052 183.571 71.46 182.736 71.2816Z" fill="#FF8300"/>
<path d="M166.942 179.485C168.389 179.485 169.803 179.056 171.006 178.252C172.209 177.448 173.147 176.306 173.7 174.969C174.254 173.633 174.399 172.162 174.117 170.743C173.834 169.324 173.138 168.021 172.115 166.998C171.092 165.975 169.788 165.278 168.369 164.996C166.95 164.714 165.479 164.858 164.143 165.412C162.806 165.966 161.664 166.903 160.86 168.106C160.056 169.309 159.627 170.723 159.627 172.17C159.627 174.11 160.398 175.971 161.77 177.343C163.141 178.714 165.002 179.485 166.942 179.485Z" fill="#FF8300"/>
<path d="M135.901 184.449C135.196 184.073 134.396 183.914 133.601 183.993C132.806 184.072 132.053 184.385 131.436 184.892C130.819 185.4 130.367 186.078 130.136 186.843C129.905 187.607 129.905 188.423 130.138 189.187C130.37 189.951 130.824 190.628 131.442 191.134C132.06 191.64 132.814 191.952 133.608 192.029C134.403 192.107 135.203 191.947 135.907 191.57C136.611 191.193 137.187 190.616 137.563 189.911C138.067 188.966 138.175 187.86 137.863 186.836C137.551 185.811 136.845 184.953 135.901 184.449Z" fill="#FF8300"/>
<path d="M151.03 189.46C152.236 189.802 153.517 189.778 154.71 189.393C155.903 189.007 156.955 188.276 157.733 187.293C158.51 186.309 158.979 185.117 159.08 183.867C159.18 182.618 158.908 181.366 158.297 180.271C157.687 179.176 156.765 178.286 155.649 177.715C154.533 177.143 153.273 176.916 152.027 177.06C150.782 177.205 149.607 177.716 148.652 178.528C147.696 179.34 147.003 180.417 146.66 181.623C146.205 183.241 146.41 184.974 147.229 186.442C148.047 187.911 149.414 188.996 151.03 189.46Z" fill="#FF8300"/>
</svg>
