<svg width="148" height="148" viewBox="0 0 148 148" fill="none" xmlns="http://www.w3.org/2000/svg">
<path d="M74 148C114.869 148 148 114.869 148 74C148 33.1309 114.869 0 74 0C33.1309 0 0 33.1309 0 74C0 114.869 33.1309 148 74 148Z" fill="black"/>
<path d="M78.1721 103.392V102.339H68.6954V103.392H67.6424V104.38H67.5645V111.679H67.6684C67.7464 112.934 68.1689 113.226 69.6184 113.239H72.6733V128.41C72.6733 129.307 72.7903 130.184 73.9407 130.165C75.0912 130.145 75.1952 129.3 75.1952 128.397C75.1952 124.666 75.1952 118.985 75.1952 115.261V113.239H77.8341C79.9335 113.239 80.2 112.973 80.2 110.899V103.425L78.1721 103.392Z" fill="#FFAA00"/>
<path d="M110.628 39.4277H38.3955C36.737 39.4277 35.3926 40.7722 35.3926 42.4306V105.563C35.3926 107.221 36.737 108.566 38.3955 108.566H110.628C112.286 108.566 113.63 107.221 113.63 105.563V42.4306C113.63 40.7722 112.286 39.4277 110.628 39.4277Z" fill="#FFAA00"/>
<path d="M109.881 104.815V43.1844H39.1504L39.3844 104.672L109.881 104.815Z" fill="black"/>
<path d="M73.7332 92.3877C84.2475 92.3877 92.771 83.8642 92.771 73.3499C92.771 62.8356 84.2475 54.312 73.7332 54.312C63.2189 54.312 54.6953 62.8356 54.6953 73.3499C54.6953 83.8642 63.2189 92.3877 73.7332 92.3877Z" fill="white"/>
<path d="M75.1419 63.2754H78.5661V77.7953C78.5879 78.8873 78.3179 79.9655 77.7834 80.9202C77.2791 81.7885 76.5314 82.4926 75.6311 82.9468C74.6288 83.4326 73.524 83.6739 72.4087 83.6507C71.3717 83.6652 70.3436 83.4583 69.3943 83.0439C68.5318 82.6678 67.7972 82.0526 67.2786 81.2721C66.7291 80.399 66.4564 79.3823 66.496 78.3536H69.9323C69.927 78.8168 70.0451 79.2731 70.2748 79.6763C70.4915 80.0414 70.8101 80.3363 71.1919 80.5258C71.6125 80.7291 72.0755 80.831 72.5433 80.8231C73.0352 80.8383 73.5218 80.7186 73.9496 80.4773C74.3437 80.2323 74.6514 79.8718 74.8301 79.4458C75.0473 78.91 75.1533 78.3363 75.1419 77.7589V63.2754Z" fill="black"/>
</svg>
