<svg width="334" height="261" viewBox="0 0 334 261" fill="none" xmlns="http://www.w3.org/2000/svg">
<rect width="333.33" height="261" fill="#E74024"/>
<rect width="333.33" height="261" fill="url(#paint0_linear_1304_83191)"/>
<g clip-path="url(#clip0_1304_83191)">
<path d="M166.781 191.971C166.25 192.002 165.731 192.137 165.253 192.37C164.774 192.602 164.347 192.926 163.994 193.324C163.641 193.722 163.371 194.185 163.198 194.688C163.024 195.191 162.952 195.723 162.985 196.253C162.962 196.816 163.057 197.376 163.263 197.9C163.47 198.424 163.784 198.898 164.184 199.294C164.585 199.689 165.064 199.996 165.59 200.195C166.117 200.395 166.679 200.482 167.241 200.451C167.803 200.421 168.352 200.273 168.854 200.017C169.355 199.762 169.798 199.404 170.153 198.968C170.508 198.531 170.769 198.026 170.917 197.483C171.065 196.94 171.099 196.372 171.014 195.815C170.952 194.748 170.473 193.748 169.682 193.029C168.89 192.311 167.849 191.931 166.781 191.971Z" fill="white"/>
<path d="M191.307 172.117C192.829 171.071 193.903 169.491 194.313 167.69C194.722 165.889 194.439 163.999 193.518 162.398C192.598 160.796 191.108 159.6 189.346 159.048C187.583 158.495 185.677 158.627 184.007 159.416C183.09 159.85 182.273 160.468 181.607 161.233C180.94 161.998 180.44 162.893 180.136 163.861C179.833 164.829 179.733 165.849 179.843 166.858C179.954 167.866 180.271 168.841 180.777 169.72C181.282 170.6 181.965 171.365 182.78 171.968C183.596 172.571 184.528 172.999 185.517 173.224C186.506 173.449 187.531 173.467 188.528 173.276C189.524 173.086 190.47 172.691 191.307 172.117Z" fill="white"/>
<path d="M182.937 189.003C184.138 188.659 185.21 187.966 186.019 187.014C186.827 186.061 187.335 184.89 187.479 183.649C187.623 182.408 187.396 181.152 186.827 180.04C186.258 178.928 185.372 178.009 184.282 177.399C183.191 176.789 181.945 176.516 180.699 176.614C179.454 176.712 178.265 177.177 177.283 177.95C176.301 178.722 175.57 179.768 175.182 180.956C174.794 182.144 174.766 183.42 175.102 184.623C175.327 185.426 175.708 186.177 176.224 186.833C176.74 187.489 177.38 188.036 178.108 188.443C178.837 188.85 179.638 189.109 180.467 189.205C181.296 189.301 182.135 189.232 182.937 189.003V189.003Z" fill="white"/>
<path d="M167.122 68.078C167.65 68.0655 168.17 67.9481 168.653 67.7327C169.136 67.5174 169.571 67.2084 169.933 66.8236C170.295 66.4388 170.577 65.9859 170.763 65.4912C170.949 64.9965 171.034 64.4698 171.015 63.9417C171.057 63.377 170.981 62.8097 170.79 62.2765C170.599 61.7434 170.298 61.2562 169.907 60.8469C169.515 60.4375 169.042 60.1151 168.518 59.9005C167.994 59.6858 167.431 59.5836 166.865 59.6008C166.299 59.6179 165.743 59.754 165.233 60C164.722 60.246 164.27 60.5965 163.904 61.0288C163.538 61.4611 163.267 61.9655 163.109 62.5092C162.951 63.053 162.909 63.6239 162.985 64.185C162.991 64.7153 163.104 65.239 163.317 65.7247C163.53 66.2103 163.839 66.648 164.225 67.0114C164.612 67.3749 165.067 67.6567 165.565 67.8399C166.062 68.0232 166.592 68.1042 167.122 68.078V68.078Z" fill="white"/>
<path d="M142.693 87.4939C140.984 88.4302 139.714 90.0034 139.158 91.8713C138.602 93.7393 138.806 95.751 139.725 97.4695C140.418 98.7455 141.474 99.7876 142.76 100.464C144.045 101.14 145.502 101.42 146.946 101.269C148.391 101.118 149.758 100.542 150.875 99.6146C151.992 98.6869 152.81 97.4489 153.224 96.0569C153.638 94.6649 153.631 93.1813 153.202 91.7937C152.774 90.406 151.944 89.1764 150.817 88.2601C149.69 87.3439 148.317 86.7822 146.871 86.6458C145.426 86.5094 143.972 86.8045 142.693 87.4939Z" fill="white"/>
<path d="M151.258 70.6569C150.453 70.8614 149.696 71.2224 149.03 71.7195C148.365 72.2165 147.803 72.8399 147.379 73.5538C146.954 74.2678 146.674 75.0584 146.555 75.8806C146.436 76.7027 146.479 77.5403 146.684 78.3454C146.888 79.1506 147.249 79.9077 147.746 80.5733C148.244 81.2389 148.867 81.8002 149.581 82.225C150.295 82.6497 151.085 82.9297 151.908 83.0489C152.73 83.1681 153.567 83.1242 154.372 82.9197C155.178 82.7152 155.935 82.3542 156.6 81.8571C157.266 81.3601 157.827 80.7367 158.252 80.0228C158.677 79.3088 158.957 78.5182 159.076 77.696C159.195 76.8739 159.151 76.0363 158.947 75.2312C158.742 74.426 158.381 73.6689 157.884 73.0033C157.387 72.3377 156.764 71.7764 156.05 71.3516C155.336 70.9269 154.545 70.6469 153.723 70.5277C152.901 70.4085 152.063 70.4524 151.258 70.6569V70.6569Z" fill="white"/>
<path d="M197.779 183.747C197.111 184.185 196.588 184.811 196.276 185.546C195.964 186.281 195.877 187.092 196.026 187.877C196.175 188.661 196.552 189.384 197.112 189.954C197.671 190.524 198.387 190.915 199.169 191.078C199.951 191.241 200.763 191.169 201.504 190.87C202.244 190.572 202.88 190.061 203.33 189.401C203.78 188.741 204.025 187.963 204.033 187.165C204.041 186.366 203.812 185.583 203.375 184.915C202.78 184.027 201.861 183.408 200.815 183.19C199.769 182.972 198.679 183.172 197.779 183.747V183.747Z" fill="white"/>
<path d="M209.117 154.355C209.855 153.101 210.203 151.656 210.119 150.204C210.035 148.751 209.521 147.356 208.643 146.196C207.765 145.036 206.563 144.162 205.188 143.686C203.813 143.21 202.328 143.153 200.92 143.522C199.513 143.891 198.247 144.669 197.282 145.758C196.318 146.848 195.698 148.199 195.502 149.641C195.307 151.083 195.543 152.55 196.183 153.857C196.822 155.164 197.834 156.252 199.092 156.983C200.771 157.958 202.768 158.23 204.647 157.737C206.525 157.245 208.132 156.029 209.117 154.355V154.355Z" fill="white"/>
<path d="M210.479 173.041C211.074 172.457 211.546 171.76 211.868 170.992C212.19 170.223 212.356 169.398 212.356 168.565C212.356 167.731 212.19 166.906 211.868 166.137C211.546 165.369 211.074 164.672 210.479 164.088C209.594 163.204 208.467 162.603 207.24 162.359C206.013 162.116 204.742 162.242 203.586 162.721C202.431 163.2 201.444 164.011 200.749 165.051C200.054 166.091 199.684 167.314 199.684 168.565C199.684 169.815 200.054 171.038 200.749 172.078C201.444 173.118 202.431 173.929 203.586 174.408C204.742 174.887 206.013 175.013 207.24 174.77C208.467 174.527 209.594 173.925 210.479 173.041V173.041Z" fill="white"/>
<path d="M136.173 76.3018C136.852 75.8695 137.386 75.244 137.707 74.506C138.028 73.7679 138.121 72.9508 137.974 72.1595C137.828 71.3681 137.448 70.6386 136.884 70.0645C136.32 69.4904 135.597 69.0981 134.808 68.9375C134.02 68.777 133.201 68.8558 132.458 69.1637C131.714 69.4716 131.079 69.9946 130.635 70.6657C130.191 71.3368 129.957 72.1253 129.964 72.9301C129.971 73.7349 130.218 74.5192 130.674 75.1826C131.267 76.0454 132.171 76.6443 133.197 76.8531C134.223 77.0619 135.29 76.8643 136.173 76.3018V76.3018Z" fill="white"/>
<path d="M124.688 105.353C123.919 106.589 123.534 108.025 123.582 109.48C123.63 110.935 124.11 112.343 124.96 113.525C125.809 114.707 126.991 115.61 128.354 116.119C129.718 116.629 131.202 116.722 132.619 116.386C134.035 116.051 135.32 115.303 136.311 114.236C137.301 113.169 137.953 111.832 138.182 110.395C138.412 108.957 138.209 107.484 137.6 106.162C136.991 104.84 136.003 103.728 134.761 102.968C133.107 101.956 131.12 101.639 129.233 102.086C127.347 102.532 125.713 103.707 124.688 105.353V105.353Z" fill="white"/>
<path d="M123.861 86.4234C122.977 87.3085 122.376 88.4357 122.133 89.6625C121.889 90.8894 122.015 92.1609 122.494 93.3162C122.973 94.4715 123.784 95.4589 124.824 96.1535C125.864 96.8482 127.087 97.2189 128.338 97.2189C129.588 97.2189 130.811 96.8482 131.851 96.1535C132.891 95.4589 133.702 94.4715 134.181 93.3162C134.66 92.1609 134.786 90.8894 134.543 89.6625C134.3 88.4357 133.698 87.3085 132.815 86.4234C132.227 85.8348 131.529 85.368 130.761 85.0494C129.993 84.7308 129.169 84.5668 128.338 84.5668C127.506 84.5668 126.683 84.7308 125.914 85.0494C125.146 85.368 124.449 85.8348 123.861 86.4234V86.4234Z" fill="white"/>
<path d="M220.503 161.168C220.148 161.882 220.013 162.685 220.113 163.475C220.214 164.266 220.546 165.009 221.068 165.612C221.59 166.214 222.279 166.648 223.048 166.86C223.816 167.072 224.63 167.051 225.387 166.801C226.144 166.551 226.81 166.083 227.301 165.455C227.792 164.827 228.087 164.068 228.147 163.273C228.208 162.478 228.032 161.683 227.642 160.988C227.251 160.293 226.664 159.729 225.954 159.367C224.991 158.891 223.879 158.813 222.859 159.15C221.839 159.487 220.993 160.212 220.503 161.168V161.168Z" fill="white"/>
<path d="M215.637 130.024C215.647 128.569 215.224 127.144 214.422 125.929C213.621 124.714 212.477 123.765 211.135 123.201C209.793 122.638 208.314 122.485 206.886 122.763C205.457 123.041 204.143 123.737 203.111 124.763C202.078 125.788 201.374 127.098 201.086 128.524C200.799 129.951 200.941 131.431 201.496 132.776C202.051 134.122 202.992 135.272 204.202 136.082C205.411 136.891 206.834 137.324 208.289 137.324C210.226 137.311 212.08 136.54 213.454 135.175C214.828 133.81 215.612 131.961 215.637 130.024V130.024Z" fill="white"/>
<path d="M226.392 145.499C226.793 143.867 226.538 142.143 225.683 140.697C224.828 139.25 223.44 138.197 221.817 137.762C220.596 137.444 219.307 137.496 218.115 137.911C216.923 138.327 215.881 139.087 215.121 140.095C214.361 141.103 213.918 142.315 213.848 143.575C213.777 144.835 214.083 146.088 214.725 147.175C215.368 148.262 216.318 149.133 217.457 149.679C218.595 150.225 219.87 150.42 221.119 150.241C222.369 150.061 223.537 149.515 224.476 148.671C225.414 147.826 226.081 146.723 226.392 145.499V145.499Z" fill="white"/>
<path d="M113.448 98.9295C113.821 98.2255 113.978 97.4267 113.899 96.6336C113.819 95.8406 113.507 95.0888 113.001 94.4729C112.495 93.857 111.818 93.4047 111.056 93.1726C110.293 92.9406 109.479 92.9393 108.716 93.1689C107.953 93.3985 107.275 93.8489 106.767 94.4631C106.259 95.0774 105.944 95.8281 105.862 96.6209C105.78 97.4136 105.935 98.2129 106.306 98.9181C106.677 99.6233 107.249 100.203 107.949 100.584C108.418 100.839 108.933 100.999 109.464 101.054C109.995 101.109 110.532 101.058 111.043 100.904C111.555 100.75 112.031 100.497 112.443 100.158C112.856 99.8187 113.197 99.4013 113.448 98.9295V98.9295Z" fill="white"/>
<path d="M118.022 129.83C117.984 131.282 118.378 132.713 119.153 133.942C119.928 135.171 121.051 136.143 122.378 136.734C123.705 137.325 125.178 137.509 126.61 137.264C128.042 137.018 129.37 136.353 130.424 135.353C131.478 134.353 132.212 133.063 132.534 131.646C132.855 130.229 132.749 128.749 132.229 127.392C131.709 126.035 130.798 124.863 129.612 124.023C128.426 123.184 127.017 122.715 125.565 122.676C124.6 122.651 123.639 122.815 122.737 123.161C121.836 123.506 121.012 124.026 120.311 124.69C119.611 125.354 119.048 126.15 118.655 127.032C118.262 127.914 118.047 128.865 118.022 129.83Z" fill="white"/>
<path d="M107.997 113.771C107.539 115.391 107.743 117.126 108.565 118.596C109.386 120.065 110.757 121.148 112.377 121.606C113.997 122.064 115.732 121.86 117.201 121.039C118.671 120.217 119.753 118.846 120.212 117.226C120.438 116.424 120.505 115.586 120.408 114.758C120.31 113.93 120.051 113.129 119.644 112.402C119.238 111.674 118.692 111.034 118.038 110.518C117.384 110.001 116.634 109.619 115.832 109.392C115.03 109.165 114.191 109.098 113.364 109.196C112.536 109.293 111.735 109.552 111.008 109.959C110.28 110.366 109.64 110.912 109.123 111.566C108.607 112.22 108.224 112.969 107.997 113.771V113.771Z" fill="white"/>
<g opacity="0.55">
<path d="M228.922 130.268C228.997 131.335 229.488 132.33 230.288 133.04C231.089 133.749 232.136 134.117 233.204 134.063C234.001 134.014 234.765 133.729 235.4 133.246C236.035 132.763 236.513 132.102 236.773 131.347C237.033 130.592 237.063 129.777 236.86 129.005C236.657 128.233 236.23 127.539 235.633 127.009C235.036 126.48 234.295 126.139 233.504 126.031C232.713 125.922 231.908 126.05 231.19 126.399C230.472 126.747 229.873 127.301 229.47 127.989C229.066 128.678 228.875 129.471 228.922 130.268V130.268Z" fill="white"/>
<path d="M209.117 105.693C208.087 104.123 206.496 103.006 204.668 102.572C202.841 102.138 200.917 102.42 199.291 103.361C197.666 104.301 196.462 105.829 195.927 107.629C195.392 109.429 195.567 111.366 196.416 113.041C196.89 113.877 197.526 114.611 198.286 115.199C199.046 115.787 199.916 116.218 200.844 116.467C201.772 116.716 202.74 116.778 203.693 116.649C204.645 116.521 205.563 116.204 206.392 115.718C208.082 114.749 209.318 113.149 209.829 111.27C210.34 109.39 210.084 107.384 209.117 105.693V105.693Z" fill="white"/>
<path d="M226.343 113.674C226.119 112.872 225.74 112.122 225.226 111.466C224.713 110.811 224.075 110.263 223.35 109.854C222.624 109.445 221.826 109.183 220.999 109.083C220.173 108.983 219.334 109.046 218.532 109.27C217.73 109.494 216.98 109.873 216.325 110.387C215.67 110.9 215.122 111.538 214.713 112.263C214.304 112.988 214.042 113.787 213.942 114.613C213.841 115.44 213.905 116.278 214.128 117.08C214.58 118.7 215.657 120.074 217.122 120.9C218.586 121.726 220.319 121.936 221.939 121.484C223.558 121.032 224.932 119.956 225.758 118.491C226.584 117.026 226.794 115.294 226.343 113.674V113.674Z" fill="white"/>
</g>
<g opacity="0.55">
<path d="M105.078 129.878C105.059 129.348 104.936 128.826 104.715 128.343C104.494 127.861 104.181 127.426 103.792 127.064C103.404 126.703 102.947 126.421 102.45 126.236C101.952 126.051 101.423 125.966 100.893 125.985C100.365 125.998 99.844 126.115 99.3614 126.331C98.8789 126.546 98.4438 126.855 98.0816 127.24C97.7195 127.625 97.4374 128.078 97.2516 128.572C97.0659 129.067 96.9803 129.594 96.9998 130.122C97.0158 130.652 97.1361 131.174 97.3538 131.658C97.5716 132.142 97.8826 132.578 98.2689 132.942C98.6552 133.306 99.1094 133.59 99.6056 133.778C100.102 133.966 100.63 134.055 101.16 134.039C101.691 134.023 102.213 133.903 102.697 133.685C103.181 133.467 103.617 133.156 103.981 132.77C104.345 132.384 104.629 131.929 104.817 131.433C105.005 130.937 105.094 130.409 105.078 129.878V129.878Z" fill="white"/>
<path d="M124.494 154.307C125.157 155.615 126.195 156.695 127.476 157.408C128.757 158.121 130.223 158.434 131.683 158.308C133.144 158.181 134.533 157.621 135.673 156.698C136.813 155.776 137.65 154.533 138.078 153.131C138.506 151.728 138.504 150.23 138.073 148.829C137.642 147.427 136.802 146.186 135.661 145.266C134.519 144.346 133.129 143.789 131.668 143.665C130.207 143.542 128.742 143.859 127.462 144.574C125.798 145.491 124.557 147.021 124.003 148.838C123.449 150.655 123.625 152.617 124.494 154.307Z" fill="white"/>
<path d="M107.949 145.353C108.254 146.565 108.911 147.659 109.838 148.497C110.765 149.336 111.919 149.881 113.155 150.065C114.391 150.248 115.654 150.061 116.784 149.528C117.914 148.994 118.86 148.138 119.504 147.067C120.148 145.996 120.461 144.758 120.402 143.51C120.343 142.261 119.916 141.058 119.175 140.053C118.433 139.047 117.41 138.283 116.235 137.858C115.06 137.433 113.785 137.366 112.571 137.664C111.762 137.863 111 138.221 110.329 138.715C109.658 139.21 109.091 139.833 108.661 140.547C108.232 141.262 107.948 142.054 107.825 142.879C107.703 143.704 107.745 144.544 107.949 145.353Z" fill="white"/>
</g>
<g opacity="0.7">
<path d="M220.748 99.5133C221.037 99.959 221.413 100.342 221.853 100.641C222.294 100.939 222.789 101.146 223.31 101.251C223.831 101.355 224.368 101.354 224.889 101.248C225.41 101.142 225.905 100.933 226.344 100.633C226.788 100.342 227.171 99.9669 227.47 99.5283C227.77 99.0898 227.979 98.5965 228.088 98.0767C228.196 97.5569 228.201 97.0208 228.102 96.4991C228.003 95.9775 227.803 95.4804 227.511 95.0364C227.222 94.5907 226.846 94.2074 226.406 93.9091C225.966 93.6107 225.47 93.4034 224.949 93.2992C224.428 93.1949 223.891 93.1959 223.37 93.302C222.849 93.4081 222.354 93.6173 221.915 93.9173C221.471 94.2077 221.088 94.583 220.789 95.0215C220.489 95.4601 220.28 95.9534 220.171 96.4732C220.063 96.9929 220.058 97.5289 220.157 98.0506C220.256 98.5722 220.456 99.0693 220.748 99.5133V99.5133Z" fill="white"/>
<path d="M191.307 87.9318C190.056 87.2169 188.622 86.8879 187.185 86.9863C185.748 87.0848 184.372 87.6063 183.231 88.4852C182.09 89.364 181.234 90.5607 180.771 91.925C180.309 93.2892 180.26 94.7598 180.632 96.1515C181.003 97.5433 181.778 98.7938 182.859 99.7459C183.94 100.698 185.279 101.309 186.706 101.502C188.134 101.695 189.586 101.461 190.881 100.83C192.176 100.199 193.256 99.1993 193.983 97.9562C194.955 96.2712 195.218 94.27 194.717 92.391C194.215 90.5119 192.989 88.9084 191.307 87.9318V87.9318Z" fill="white"/>
<path d="M210.382 86.1313C209.788 85.5498 209.085 85.0911 208.313 84.7812C207.541 84.4714 206.716 84.3166 205.885 84.3256C205.054 84.3347 204.232 84.5073 203.467 84.8338C202.703 85.1603 202.01 85.6343 201.428 86.2286C200.847 86.8229 200.388 87.5259 200.078 88.2975C199.768 89.0691 199.613 89.8943 199.622 90.7257C199.631 91.5571 199.804 92.3787 200.131 93.1434C200.457 93.908 200.931 94.6008 201.526 95.1823C202.718 96.3591 204.327 97.019 206.002 97.019C207.678 97.019 209.286 96.3591 210.479 95.1823C211.082 94.59 211.56 93.8821 211.882 93.1009C212.205 92.3197 212.367 91.4814 212.358 90.6362C212.349 89.7909 212.169 88.9562 211.83 88.1821C211.49 87.408 210.998 86.7105 210.382 86.1313V86.1313Z" fill="white"/>
</g>
<g opacity="0.7">
<path d="M113.301 160.876C112.883 160.195 112.272 159.653 111.545 159.32C110.819 158.986 110.009 158.876 109.22 159.002C108.431 159.129 107.697 159.487 107.111 160.031C106.525 160.576 106.114 161.281 105.93 162.059C105.746 162.837 105.796 163.652 106.076 164.401C106.355 165.151 106.851 165.8 107.499 166.267C108.148 166.735 108.921 166.999 109.72 167.027C110.519 167.055 111.308 166.844 111.988 166.423C112.896 165.861 113.544 164.961 113.79 163.921C114.037 162.881 113.861 161.786 113.301 160.876V160.876Z" fill="white"/>
<path d="M142.352 172.506C143.592 173.268 145.03 173.645 146.484 173.589C147.938 173.533 149.342 173.046 150.519 172.191C151.696 171.336 152.593 170.15 153.096 168.785C153.598 167.419 153.684 165.935 153.343 164.521C153.001 163.107 152.247 161.826 151.177 160.84C150.106 159.855 148.767 159.209 147.33 158.986C145.892 158.762 144.42 158.97 143.101 159.584C141.782 160.198 140.674 161.189 139.919 162.433C139.414 163.253 139.076 164.165 138.924 165.117C138.773 166.068 138.812 167.04 139.038 167.976C139.264 168.913 139.674 169.795 140.242 170.572C140.811 171.35 141.528 172.007 142.352 172.506V172.506Z" fill="white"/>
<path d="M123.716 172.749C124.601 173.633 125.728 174.235 126.955 174.478C128.182 174.721 129.453 174.595 130.608 174.116C131.764 173.637 132.751 172.826 133.446 171.786C134.14 170.746 134.511 169.523 134.511 168.273C134.511 167.022 134.14 165.799 133.446 164.759C132.751 163.719 131.764 162.908 130.608 162.429C129.453 161.95 128.182 161.824 126.955 162.067C125.728 162.311 124.601 162.912 123.716 163.796C122.539 164.989 121.879 166.597 121.879 168.273C121.879 169.948 122.539 171.557 123.716 172.749V172.749Z" fill="white"/>
</g>
<g opacity="0.85">
<path d="M167.17 81.0705C166.21 81.038 165.252 81.1968 164.354 81.5375C163.456 81.8782 162.634 82.3942 161.937 83.0552C161.239 83.7163 160.68 84.5093 160.292 85.3882C159.904 86.2672 159.695 87.2146 159.676 88.1752C159.628 89.6316 160.014 91.0693 160.785 92.3057C161.557 93.5421 162.678 94.5213 164.007 95.1188C165.336 95.7163 166.813 95.9051 168.249 95.6613C169.686 95.4175 171.018 94.7519 172.075 93.7493C173.133 92.7467 173.868 91.4524 174.188 90.0308C174.508 88.6092 174.398 87.1246 173.873 85.7656C173.347 84.4066 172.429 83.2345 171.235 82.3985C170.042 81.5625 168.627 81.1002 167.17 81.0705V81.0705Z" fill="white"/>
<path d="M198.168 76.4963C199.118 76.9411 200.204 76.9986 201.196 76.6566C202.188 76.3146 203.008 75.5999 203.483 74.6639C203.957 73.728 204.048 72.6441 203.737 71.6419C203.427 70.6397 202.738 69.7979 201.817 69.2945C201.343 69.0349 200.821 68.8733 200.282 68.8194C199.744 68.7655 199.2 68.8203 198.683 68.9805C198.167 69.1408 197.687 69.4033 197.274 69.7523C196.861 70.1014 196.522 70.5299 196.277 71.0125C196.033 71.4951 195.887 72.022 195.85 72.5617C195.813 73.1015 195.885 73.6432 196.061 74.1547C196.238 74.6662 196.515 75.1371 196.877 75.5394C197.239 75.9416 197.678 76.267 198.168 76.4963Z" fill="white"/>
<path d="M182.79 70.3163C181.58 70.0112 180.306 70.0713 179.129 70.489C177.952 70.9067 176.925 71.6634 176.178 72.6635C175.43 73.6637 174.995 74.8626 174.928 76.1094C174.861 77.3562 175.164 78.5952 175.799 79.6701C176.435 80.7449 177.374 81.6077 178.499 82.1497C179.624 82.6917 180.884 82.8886 182.121 82.7158C183.357 82.5429 184.515 82.0079 185.448 81.1783C186.381 80.3486 187.048 79.2614 187.365 78.0535C187.576 77.245 187.626 76.4026 187.51 75.5749C187.394 74.7472 187.116 73.9507 186.691 73.2312C186.265 72.5118 185.702 71.8837 185.032 71.3834C184.363 70.8831 183.601 70.5204 182.79 70.3163V70.3163Z" fill="white"/>
</g>
<g opacity="0.85">
<path d="M166.976 178.638C168.431 178.647 169.857 178.224 171.071 177.423C172.286 176.621 173.236 175.477 173.799 174.135C174.363 172.794 174.515 171.315 174.237 169.886C173.959 168.457 173.263 167.144 172.238 166.111C171.212 165.079 169.903 164.374 168.476 164.086C167.05 163.799 165.57 163.942 164.224 164.496C162.879 165.051 161.728 165.993 160.919 167.202C160.109 168.412 159.677 169.834 159.677 171.29C159.677 173.23 160.444 175.092 161.812 176.468C163.179 177.845 165.036 178.625 166.976 178.638V178.638Z" fill="white"/>
<path d="M135.929 183.601C134.997 183.19 133.945 183.146 132.982 183.479C132.019 183.811 131.217 184.495 130.737 185.393C130.257 186.292 130.135 187.338 130.393 188.323C130.652 189.308 131.274 190.159 132.134 190.706C132.603 191.004 133.129 191.202 133.678 191.287C134.228 191.373 134.789 191.344 135.327 191.203C135.864 191.061 136.367 190.81 136.803 190.466C137.24 190.121 137.6 189.69 137.862 189.2C138.124 188.709 138.282 188.17 138.326 187.616C138.37 187.061 138.299 186.504 138.118 185.978C137.936 185.453 137.648 184.971 137.272 184.561C136.895 184.152 136.438 183.825 135.929 183.601V183.601Z" fill="white"/>
<path d="M151.063 188.613C152.266 188.949 153.542 188.922 154.73 188.534C155.917 188.146 156.963 187.414 157.736 186.433C158.509 185.451 158.973 184.262 159.071 183.017C159.169 181.771 158.896 180.524 158.287 179.434C157.677 178.343 156.758 177.457 155.646 176.888C154.533 176.319 153.278 176.093 152.036 176.236C150.795 176.38 149.625 176.888 148.672 177.697C147.719 178.505 147.027 179.578 146.683 180.779C146.233 182.398 146.44 184.13 147.261 185.597C148.081 187.065 149.447 188.149 151.063 188.613Z" fill="white"/>
</g>
</g>
<defs>
<linearGradient id="paint0_linear_1304_83191" x1="0" y1="0" x2="203" y2="312" gradientUnits="userSpaceOnUse">
<stop offset="0.221013" stop-color="#FF8300"/>
<stop offset="1" stop-color="#FF8300" stop-opacity="0"/>
</linearGradient>
<clipPath id="clip0_1304_83191">
<rect width="140" height="140" fill="white" transform="translate(97 60)"/>
</clipPath>
</defs>
</svg>
