<svg width="148" height="148" viewBox="0 0 148 148" fill="none" xmlns="http://www.w3.org/2000/svg">
<g clip-path="url(#clip0_1130_2356)">
<path d="M74 148C114.869 148 148 114.869 148 74C148 33.1309 114.869 0 74 0C33.1309 0 0 33.1309 0 74C0 114.869 33.1309 148 74 148Z" fill="black"/>
<path d="M71.8769 20.9509L20.8011 72.0267C19.6284 73.1994 19.6284 75.1008 20.8011 76.2735L71.8769 127.349C73.0496 128.522 74.9509 128.522 76.1236 127.349L127.199 76.2735C128.372 75.1008 128.372 73.1994 127.199 72.0267L76.1236 20.951C74.9509 19.7783 73.0496 19.7782 71.8769 20.9509Z" fill="#FFAA00"/>
<path d="M82.4759 115.274L124.016 74.0065L74.0002 23.9907L23.9844 74.0065L65.5765 115.274H82.4759Z" fill="black"/>
<path d="M74.0057 105.862C73.8667 105.863 73.7298 105.827 73.6092 105.758L46.0501 89.8465C45.9364 89.7789 45.8413 89.6841 45.7732 89.5706C45.7052 89.4572 45.6663 89.3286 45.6602 89.1965V57.9975C45.6663 57.8654 45.7052 57.7368 45.7732 57.6234C45.8413 57.5099 45.9364 57.4152 46.0501 57.3476C46.1705 57.2773 46.3073 57.2403 46.4466 57.2403C46.586 57.2403 46.7228 57.2773 46.8431 57.3476L74.3957 73.181C74.517 73.2487 74.6178 73.3478 74.6875 73.4679C74.7573 73.588 74.7934 73.7246 74.7922 73.8635V105.062C74.7865 105.195 74.7472 105.325 74.6778 105.439C74.6085 105.552 74.5114 105.647 74.3957 105.712C74.2822 105.798 74.1471 105.849 74.0057 105.862V105.862ZM47.2331 88.709L73.2322 103.73V74.3315L47.2331 59.3365V88.709Z" fill="#58595B"/>
<path d="M74.0059 105.862C73.9021 105.863 73.7991 105.843 73.7029 105.804C73.6068 105.765 73.5193 105.707 73.4456 105.634C73.3719 105.561 73.3133 105.474 73.2734 105.378C73.2335 105.282 73.2129 105.179 73.2129 105.075V73.8765C73.2117 73.7376 73.2478 73.601 73.3176 73.4809C73.3873 73.3608 73.4881 73.2617 73.6094 73.194L101.181 57.2825C101.302 57.2123 101.439 57.1753 101.578 57.1753C101.717 57.1753 101.854 57.2123 101.974 57.2825C102.088 57.3502 102.183 57.4449 102.251 57.5584C102.319 57.6718 102.358 57.8004 102.364 57.9325V89.1314C102.358 89.2636 102.319 89.3922 102.251 89.5056C102.183 89.619 102.088 89.7138 101.974 89.7814L74.4154 105.693C74.2987 105.789 74.1561 105.847 74.0059 105.862V105.862ZM74.7924 74.3315V103.73L100.791 88.735V59.3365L74.7924 74.3315Z" fill="#58595B"/>
<path d="M74.0072 74.663C73.8682 74.664 73.7313 74.6281 73.6107 74.559L46.0451 58.6475C45.9251 58.5778 45.8254 58.4778 45.7561 58.3574C45.6869 58.2371 45.6504 58.1006 45.6504 57.9618C45.6504 57.8229 45.6869 57.6865 45.7561 57.5662C45.8254 57.4458 45.9251 57.3458 46.0451 57.2761L73.5977 41.3711C73.718 41.3009 73.8549 41.2639 73.9942 41.2639C74.1335 41.2639 74.2703 41.3009 74.3907 41.3711L101.943 57.2891C102.062 57.3586 102.161 57.4583 102.23 57.5781C102.298 57.6979 102.334 57.8336 102.333 57.9716C102.327 58.1037 102.288 58.2323 102.22 58.3457C102.152 58.4591 102.057 58.5539 101.943 58.6215L74.3972 74.5265C74.2823 74.6071 74.1473 74.6544 74.0072 74.663ZM48.0081 57.9585L74.0072 72.96L99.9673 57.9716L73.9682 42.9636L48.0081 57.9585Z" fill="#58595B"/>
<path d="M46.4466 89.9504C46.2374 89.9487 46.0374 89.8644 45.8901 89.7159C45.7428 89.5674 45.6601 89.3667 45.6602 89.1575V57.9585C45.6609 57.8208 45.6972 57.6856 45.7655 57.5661C45.8338 57.4465 45.9319 57.3466 46.0501 57.2761L73.6092 41.3711C73.7293 41.3033 73.8649 41.2679 74.0028 41.2686C74.1407 41.2692 74.2761 41.3058 74.3955 41.3747C74.515 41.4436 74.6143 41.5424 74.6839 41.6615C74.7535 41.7805 74.7908 41.9157 74.7922 42.0536V73.2525C74.7926 73.3921 74.7561 73.5293 74.6865 73.6503C74.6169 73.7713 74.5166 73.8717 74.3957 73.9415L46.8431 89.84C46.723 89.9111 46.5862 89.9492 46.4466 89.9504V89.9504ZM47.2331 58.4135V87.7925L73.2322 72.791V43.4185L47.2331 58.4135Z" fill="#58595B"/>
<path d="M101.558 89.9505C101.419 89.9492 101.282 89.9111 101.162 89.84L73.6094 73.935C73.4885 73.8652 73.3882 73.7648 73.3186 73.6438C73.249 73.5228 73.2125 73.3856 73.2129 73.246V42.0471C73.2143 41.9092 73.2516 41.7741 73.3212 41.655C73.3907 41.536 73.4901 41.4371 73.6096 41.3682C73.729 41.2993 73.8643 41.2627 74.0022 41.2621C74.1401 41.2615 74.2758 41.2968 74.3959 41.3646L101.955 57.2696C102.073 57.3401 102.171 57.44 102.24 57.5596C102.308 57.6792 102.344 57.8144 102.345 57.9521V89.151C102.345 89.3602 102.262 89.5609 102.115 89.7094C101.968 89.858 101.768 89.9423 101.558 89.944V89.9505ZM74.7923 72.7911L100.791 87.7926V58.4136L74.7923 43.4186V72.7911Z" fill="#58595B"/>
<path d="M73.994 105.862C73.855 105.863 73.7182 105.827 73.5975 105.758L46.045 89.8465C45.9292 89.7806 45.8322 89.6863 45.7628 89.5727C45.6935 89.459 45.6541 89.3295 45.6485 89.1965C45.6472 89.0576 45.6833 88.9209 45.7531 88.8008C45.8229 88.6808 45.9237 88.5817 46.045 88.514L73.6105 72.596C73.7307 72.5289 73.8661 72.4936 74.0038 72.4936C74.1414 72.4936 74.2768 72.5289 74.397 72.596L101.943 88.501C102.062 88.572 102.16 88.6725 102.228 88.7927C102.296 88.9128 102.332 89.0486 102.332 89.1867C102.332 89.3248 102.296 89.4606 102.228 89.5808C102.16 89.701 102.062 89.8014 101.943 89.8725L74.3905 105.79C74.2668 105.848 74.1302 105.873 73.994 105.862V105.862ZM47.9949 89.164L73.994 104.159L99.9932 89.151L74.033 74.1625L47.9949 89.164Z" fill="#58595B"/>
<path d="M73.8504 93.1419C84.3647 93.1419 92.8882 84.6183 92.8882 74.104C92.8882 63.5897 84.3647 55.0662 73.8504 55.0662C63.336 55.0662 54.8125 63.5897 54.8125 74.104C54.8125 84.6183 63.336 93.1419 73.8504 93.1419Z" fill="white"/>
<path d="M68.6831 83.8797H64.7832L71.933 63.6003H76.4828L83.6326 83.8797H79.7327L74.3119 67.7602H74.1559L68.6831 83.8797ZM68.8131 75.9239H79.5052V78.8748H68.8326L68.8131 75.9239Z" fill="black"/>
</g>
<defs>
<clipPath id="clip0_1130_2356">
<rect width="148" height="148" fill="white"/>
</clipPath>
</defs>
</svg>
