<svg width="80" height="80" viewBox="0 0 80 80" fill="none" xmlns="http://www.w3.org/2000/svg">
<path fill-rule="evenodd" clip-rule="evenodd" d="M40 80C62.0913 80 80 62.0918 80 40C80 17.9082 62.0913 0 40 0C17.9087 0 0 17.9082 0 40C0 62.0918 17.9087 80 40 80ZM37.6328 56.1602C38.4082 56.7695 39.186 57.3809 39.9639 58C41.2847 57.0225 42.5044 56.1299 43.6221 55.3242C47.7095 52.2354 51.4927 48.7539 54.9189 44.9287C56.5845 43.1182 57.9824 41.0723 59.0684 38.8555C59.6807 37.627 59.9995 36.2695 60 34.8936C59.9604 32.4424 59.2129 30.0566 57.8491 28.0312C57.105 26.8018 56.1201 25.7393 54.9551 24.9102C53.7896 24.0811 52.4688 23.5029 51.0742 23.2109C49.2397 22.8213 47.3325 22.9824 45.5869 23.6738C43.3237 24.5596 41.4614 26.2568 40.353 28.4434L40.0312 29.0781C39.8789 28.8037 39.7773 28.5977 39.6758 28.3916C39.0488 27.1367 38.1611 26.0352 37.0737 25.1611C35.9858 24.2881 34.7241 23.6631 33.375 23.3311C31.8042 22.9111 30.1558 22.8906 28.5752 23.2705C26.9946 23.6504 25.5308 24.4199 24.314 25.5098C22.7109 26.8789 21.4951 28.6553 20.791 30.6562C20.2368 31.9648 19.9678 33.3799 20.0029 34.8037C20.0381 36.2285 20.376 37.6279 20.9941 38.9072C22.2051 41.2549 23.7329 43.4199 25.5332 45.3398C27.8105 47.8809 30.2793 50.2383 32.918 52.3906C34.4658 53.6699 36.0444 54.9111 37.6328 56.1602Z" fill="#D9D9D9"/>
</svg>
