<svg width="80" height="80" viewBox="0 0 80 80" fill="none" xmlns="http://www.w3.org/2000/svg">
<path fill-rule="evenodd" clip-rule="evenodd" d="M40 80C62.0914 80 80 62.0914 80 40C80 17.9086 62.0914 0 40 0C17.9086 0 0 17.9086 0 40C0 62.0914 17.9086 80 40 80ZM63 28.2943L62.5299 28.562L42.8316 39.9603L62.8881 51.8047L61.4555 54.2583L41.4662 42.4585V64.9429H38.601V42.4139L18.4326 54.0799L17 51.6486L17.4925 51.3586L37.1908 39.9603L17.1119 28.1159L18.5893 25.6845L18.8579 25.8407L38.5562 37.462V15H41.4438V37.4843L61.5674 25.8407L63 28.2943Z" fill="#D9D9D9"/>
</svg>
