<svg width="24" height="21" viewBox="0 0 24 21" fill="none" xmlns="http://www.w3.org/2000/svg">
<g clip-path="url(#clip0_1193_9592)">
<path d="M11.7802 20.4401C10.3802 19.3401 8.98023 18.2801 7.62023 17.1701C6.06231 15.9155 4.60458 14.5413 3.26025 13.0601C2.19718 11.9406 1.29516 10.6784 0.580225 9.31009C0.215288 8.5642 0.0156692 7.74832 -0.0050408 6.9182C-0.0257508 6.08807 0.132941 5.26326 0.46023 4.5001C0.876018 3.33373 1.59378 2.29852 2.54025 1.5001C3.25872 0.864643 4.12288 0.416275 5.05612 0.19474C5.98935 -0.0267938 6.9628 -0.0146502 7.89022 0.230095C8.68666 0.423717 9.43167 0.787707 10.0739 1.29699C10.7161 1.80626 11.2402 2.44873 11.6102 3.1801C11.6702 3.3001 11.7302 3.42009 11.8202 3.58009L12.0102 3.21009C12.6645 1.93584 13.7642 0.946461 15.1002 0.430096C16.131 0.0268917 17.257 -0.0669398 18.3402 0.160095C19.1636 0.330173 19.9434 0.667283 20.6314 1.1506C21.3194 1.63391 21.901 2.25316 22.3402 2.97009C23.1454 4.15063 23.587 5.54129 23.6102 6.97009C23.6101 7.77251 23.4217 8.56371 23.0602 9.28009C22.419 10.5723 21.5937 11.7647 20.6102 12.8201C18.5873 15.0502 16.3536 17.0796 13.9402 18.8801C13.2802 19.3501 12.5602 19.8701 11.7802 20.4401Z" fill="#8A2BE2"/>
</g>
<defs>
<clipPath id="clip0_1193_9592">
<rect width="23.65" height="20.44" fill="white"/>
</clipPath>
</defs>
</svg>
