<svg width="323" height="261" viewBox="0 0 323 261" fill="none" xmlns="http://www.w3.org/2000/svg">
<rect width="323" height="261" fill="black"/>
<path d="M161.743 189.84C160.932 189.875 160.149 190.15 159.495 190.632C158.841 191.113 158.346 191.779 158.073 192.543C157.799 193.308 157.76 194.137 157.96 194.924C158.16 195.711 158.59 196.42 159.195 196.961C159.8 197.502 160.553 197.851 161.357 197.962C162.162 198.073 162.981 197.942 163.71 197.585C164.439 197.228 165.046 196.662 165.451 195.958C165.857 195.255 166.044 194.447 165.988 193.637C165.914 192.575 165.429 191.585 164.637 190.876C163.844 190.167 162.805 189.795 161.743 189.84Z" fill="white"/>
<path d="M186.22 170.003C187.477 169.285 188.493 168.209 189.139 166.914C189.785 165.618 190.032 164.16 189.849 162.723C189.666 161.287 189.061 159.937 188.111 158.845C187.162 157.752 185.909 156.966 184.512 156.585C183.115 156.205 181.637 156.247 180.264 156.707C178.891 157.166 177.685 158.023 176.799 159.168C175.913 160.313 175.386 161.695 175.285 163.139C175.185 164.583 175.515 166.025 176.233 167.282C177.197 168.967 178.79 170.2 180.663 170.71C182.536 171.221 184.535 170.966 186.22 170.003Z" fill="white"/>
<path d="M177.879 186.861C179.089 186.526 180.172 185.84 180.991 184.889C181.81 183.938 182.328 182.766 182.481 181.52C182.633 180.274 182.412 179.011 181.846 177.891C181.28 176.771 180.394 175.844 179.301 175.228C178.207 174.611 176.956 174.333 175.704 174.429C174.453 174.525 173.258 174.989 172.271 175.765C171.284 176.54 170.549 177.59 170.16 178.784C169.77 179.977 169.744 181.258 170.083 182.467C170.537 184.081 171.612 185.451 173.074 186.274C174.535 187.098 176.263 187.309 177.879 186.861Z" fill="white"/>
<path d="M162.097 66.1627C162.908 66.1457 163.695 65.8875 164.359 65.421C165.023 64.9544 165.532 64.3008 165.823 63.5434C166.113 62.7861 166.171 61.9593 165.99 61.1687C165.808 60.3781 165.395 59.6595 164.804 59.1046C164.212 58.5497 163.469 58.1836 162.668 58.0531C161.867 57.9227 161.046 58.0337 160.309 58.3721C159.572 58.7104 158.952 59.2607 158.529 59.9528C158.106 60.6449 157.899 61.4474 157.933 62.2578C157.979 63.3236 158.441 64.3291 159.219 65.059C159.997 65.7888 161.03 66.185 162.097 66.1627Z" fill="white"/>
<path d="M137.701 85.5509C136.431 86.2443 135.396 87.2984 134.725 88.58C134.054 89.8616 133.777 91.3133 133.931 92.7517C134.084 94.1902 134.661 95.5509 135.587 96.6621C136.513 97.7732 137.748 98.585 139.135 98.995C140.523 99.4049 142 99.3946 143.382 98.9653C144.763 98.536 145.987 97.7071 146.897 96.5831C147.808 95.4591 148.365 94.0904 148.498 92.65C148.632 91.2095 148.335 89.7619 147.647 88.4898C147.188 87.6424 146.566 86.894 145.818 86.2875C145.069 85.6809 144.208 85.2281 143.284 84.9551C142.36 84.682 141.391 84.5941 140.433 84.6964C139.475 84.7986 138.546 85.089 137.701 85.5509Z" fill="white"/>
<path d="M146.287 68.7477C145.074 69.0548 143.979 69.7146 143.141 70.6437C142.303 71.5727 141.76 72.7293 141.579 73.9673C141.398 75.2053 141.589 76.4691 142.126 77.5989C142.664 78.7286 143.524 79.6737 144.599 80.3146C145.673 80.9555 146.913 81.2634 148.163 81.1995C149.412 81.1355 150.615 80.7025 151.618 79.9553C152.622 79.2081 153.381 78.1801 153.8 77.0014C154.22 75.8226 154.28 74.546 153.974 73.3329C153.771 72.5269 153.41 71.7689 152.914 71.1022C152.417 70.4355 151.794 69.8732 151.08 69.4473C150.366 69.0215 149.576 68.7406 148.753 68.6205C147.931 68.5005 147.092 68.5437 146.287 68.7477Z" fill="white"/>
<path d="M192.669 181.677C191.987 182.115 191.451 182.747 191.129 183.491C190.807 184.236 190.714 185.059 190.861 185.856C191.009 186.654 191.391 187.389 191.959 187.968C192.527 188.548 193.254 188.945 194.048 189.109C194.842 189.273 195.667 189.197 196.418 188.891C197.169 188.584 197.811 188.061 198.264 187.387C198.716 186.714 198.957 185.921 198.957 185.11C198.956 184.299 198.714 183.507 198.262 182.834C197.666 181.948 196.747 181.331 195.701 181.115C194.656 180.899 193.568 181.1 192.669 181.677Z" fill="white"/>
<path d="M203.99 152.248C204.718 150.996 205.058 149.556 204.967 148.111C204.877 146.666 204.36 145.28 203.481 144.128C202.603 142.977 201.403 142.112 200.033 141.643C198.663 141.174 197.184 141.122 195.785 141.493C194.385 141.865 193.127 142.643 192.17 143.729C191.212 144.816 190.599 146.162 190.407 147.597C190.214 149.032 190.452 150.493 191.09 151.793C191.728 153.093 192.737 154.174 193.99 154.901C195.668 155.874 197.664 156.141 199.539 155.644C201.414 155.146 203.015 153.925 203.99 152.248Z" fill="white"/>
<path d="M205.378 170.942C206.253 170.048 206.842 168.914 207.073 167.685C207.303 166.455 207.164 165.185 206.672 164.034C206.181 162.884 205.36 161.905 204.312 161.221C203.264 160.538 202.038 160.18 200.787 160.193C199.536 160.206 198.317 160.59 197.284 161.296C196.251 162.002 195.451 162.998 194.984 164.159C194.518 165.319 194.405 166.592 194.662 167.817C194.918 169.041 195.532 170.162 196.425 171.038C197.019 171.62 197.722 172.079 198.493 172.389C199.265 172.7 200.09 172.855 200.921 172.846C201.753 172.837 202.574 172.664 203.339 172.338C204.104 172.011 204.797 171.537 205.378 170.942Z" fill="white"/>
<path d="M131.184 74.3808C131.88 73.9657 132.436 73.3532 132.782 72.621C133.129 71.8888 133.249 71.0702 133.129 70.2693C133.009 69.4683 132.653 68.7213 132.107 68.1232C131.56 67.5252 130.849 67.1031 130.062 66.9107C129.275 66.7184 128.449 66.7644 127.689 67.043C126.928 67.3216 126.268 67.8201 125.791 68.4752C125.315 69.1303 125.044 69.9122 125.014 70.7216C124.983 71.5309 125.194 72.3311 125.619 73.0202C126.183 73.9322 127.082 74.5861 128.123 74.8407C129.164 75.0953 130.264 74.9301 131.184 74.3808Z" fill="white"/>
<path d="M119.755 103.362C118.996 104.595 118.62 106.027 118.675 107.474C118.73 108.922 119.213 110.32 120.063 111.493C120.913 112.666 122.092 113.56 123.451 114.063C124.809 114.565 126.286 114.653 127.695 114.316C129.104 113.979 130.381 113.231 131.364 112.167C132.348 111.104 132.993 109.773 133.22 108.342C133.446 106.911 133.243 105.445 132.636 104.13C132.029 102.815 131.046 101.709 129.81 100.953C128.992 100.451 128.083 100.114 127.134 99.9632C126.186 99.8122 125.217 99.8496 124.284 100.073C123.35 100.297 122.469 100.702 121.692 101.267C120.915 101.831 120.257 102.543 119.755 103.362Z" fill="white"/>
<path d="M118.898 84.4358C118.002 85.3088 117.385 86.4278 117.125 87.6514C116.865 88.875 116.973 90.1483 117.436 91.3103C117.899 92.4723 118.697 93.4708 119.727 94.1798C120.758 94.8888 121.976 95.2763 123.227 95.2934C124.477 95.3105 125.705 94.9565 126.755 94.2759C127.804 93.5954 128.629 92.619 129.124 91.4701C129.619 90.3212 129.762 89.0514 129.535 87.8212C129.309 86.5909 128.722 85.4554 127.851 84.5583C126.678 83.3571 125.078 82.6697 123.4 82.6467C121.721 82.6238 120.102 83.2671 118.898 84.4358Z" fill="white"/>
<path d="M215.391 159.078C215.022 159.798 214.875 160.613 214.969 161.417C215.064 162.221 215.396 162.979 215.922 163.594C216.449 164.21 217.146 164.654 217.926 164.872C218.706 165.09 219.533 165.07 220.302 164.816C221.071 164.563 221.747 164.086 222.245 163.447C222.742 162.808 223.038 162.035 223.095 161.227C223.152 160.42 222.967 159.613 222.564 158.911C222.162 158.208 221.559 157.641 220.833 157.282C219.872 156.806 218.762 156.728 217.744 157.064C216.726 157.4 215.88 158.124 215.391 159.078Z" fill="white"/>
<path d="M210.492 127.988C210.498 126.539 210.073 125.121 209.272 123.914C208.471 122.707 207.33 121.764 205.993 121.206C204.656 120.648 203.183 120.499 201.761 120.778C200.339 121.058 199.033 121.753 198.006 122.775C196.98 123.798 196.28 125.102 195.995 126.523C195.711 127.943 195.854 129.417 196.407 130.756C196.96 132.095 197.899 133.24 199.103 134.045C200.307 134.851 201.724 135.281 203.172 135.281C205.109 135.281 206.967 134.513 208.339 133.147C209.711 131.78 210.485 129.925 210.492 127.988Z" fill="white"/>
<path d="M221.227 143.403C221.535 142.191 221.477 140.915 221.06 139.735C220.643 138.556 219.885 137.527 218.883 136.778C217.881 136.029 216.68 135.594 215.431 135.528C214.182 135.461 212.941 135.767 211.866 136.405C210.79 137.044 209.928 137.987 209.388 139.115C208.848 140.243 208.655 141.506 208.833 142.745C209.01 143.983 209.551 145.14 210.387 146.071C211.222 147.002 212.315 147.665 213.526 147.975C214.332 148.181 215.171 148.226 215.994 148.108C216.818 147.99 217.61 147.711 218.325 147.286C219.04 146.861 219.665 146.3 220.163 145.634C220.661 144.967 221.023 144.209 221.227 143.403Z" fill="white"/>
<path d="M108.503 96.9528C108.897 96.2424 109.07 95.4304 109 94.621C108.93 93.8115 108.62 93.0414 108.11 92.4091C107.6 91.7768 106.912 91.3112 106.136 91.0719C105.359 90.8325 104.529 90.8303 103.751 91.0656C102.974 91.3008 102.284 91.7628 101.77 92.3924C101.257 93.022 100.943 93.7905 100.869 94.5995C100.794 95.4086 100.963 96.2214 101.354 96.934C101.744 97.6465 102.338 98.2263 103.06 98.5991C104.003 99.0863 105.099 99.1868 106.115 98.8795C107.131 98.5721 107.988 97.881 108.503 96.9528Z" fill="white"/>
<path d="M113.102 127.77C113.063 129.218 113.453 130.645 114.224 131.871C114.995 133.096 116.113 134.066 117.435 134.656C118.757 135.246 120.225 135.431 121.653 135.187C123.08 134.943 124.403 134.282 125.454 133.286C126.505 132.29 127.238 131.004 127.558 129.592C127.879 128.18 127.773 126.704 127.255 125.352C126.736 124 125.829 122.832 124.646 121.996C123.464 121.16 122.06 120.693 120.613 120.655C118.674 120.603 116.793 121.324 115.385 122.658C113.977 123.993 113.156 125.831 113.102 127.77Z" fill="white"/>
<path d="M103.089 111.743C102.748 112.95 102.773 114.231 103.161 115.423C103.548 116.616 104.281 117.667 105.266 118.443C106.25 119.22 107.443 119.687 108.693 119.785C109.943 119.883 111.195 119.609 112.289 118.996C113.383 118.383 114.271 117.46 114.84 116.343C115.41 115.225 115.635 113.964 115.487 112.719C115.34 111.474 114.827 110.3 114.012 109.347C113.198 108.393 112.119 107.702 110.912 107.362C110.111 107.134 109.272 107.067 108.445 107.164C107.617 107.261 106.817 107.52 106.09 107.927C105.363 108.334 104.724 108.881 104.209 109.536C103.694 110.191 103.313 110.941 103.089 111.743Z" fill="white"/>
<g opacity="0.55">
<path opacity="0.55" d="M223.84 128.206C223.877 129.016 224.155 129.797 224.638 130.449C225.121 131.101 225.787 131.594 226.552 131.865C227.317 132.137 228.145 132.174 228.931 131.973C229.717 131.772 230.425 131.341 230.965 130.735C231.505 130.129 231.852 129.376 231.962 128.573C232.072 127.769 231.94 126.95 231.583 126.222C231.225 125.493 230.659 124.888 229.956 124.483C229.253 124.077 228.446 123.891 227.636 123.947C226.573 124.02 225.58 124.507 224.871 125.303C224.161 126.099 223.791 127.141 223.84 128.206Z" fill="white"/>
<path opacity="0.55" d="M204.003 103.715C203.285 102.458 202.21 101.442 200.914 100.796C199.618 100.15 198.16 99.9031 196.724 100.086C195.287 100.269 193.938 100.873 192.845 101.823C191.753 102.773 190.966 104.026 190.586 105.423C190.205 106.82 190.247 108.298 190.707 109.671C191.166 111.044 192.023 112.25 193.168 113.136C194.313 114.022 195.695 114.549 197.139 114.65C198.583 114.75 200.025 114.42 201.282 113.702C202.967 112.738 204.2 111.145 204.711 109.272C205.221 107.399 204.966 105.4 204.003 103.715Z" fill="white"/>
<path opacity="0.55" d="M221.201 111.647C220.866 110.437 220.179 109.355 219.228 108.535C218.278 107.716 217.105 107.198 215.859 107.046C214.613 106.894 213.35 107.114 212.23 107.681C211.11 108.247 210.183 109.133 209.567 110.226C208.951 111.319 208.673 112.571 208.768 113.822C208.864 115.073 209.329 116.268 210.104 117.255C210.879 118.242 211.93 118.977 213.123 119.367C214.316 119.756 215.598 119.783 216.806 119.443C218.421 118.989 219.79 117.914 220.614 116.453C221.437 114.992 221.648 113.263 221.201 111.647Z" fill="white"/>
</g>
<g opacity="0.55">
<path opacity="0.55" d="M100.163 127.839C100.146 127.028 99.8875 126.24 99.4209 125.576C98.9544 124.913 98.3008 124.403 97.5434 124.113C96.786 123.822 95.9593 123.764 95.1687 123.946C94.3781 124.127 93.6595 124.54 93.1046 125.132C92.5497 125.723 92.1836 126.467 92.0531 127.267C91.9227 128.068 92.0337 128.889 92.3721 129.627C92.7104 130.364 93.2607 130.983 93.9528 131.407C94.6449 131.83 95.4474 132.037 96.2578 132.002C97.3236 131.956 98.3291 131.494 99.059 130.716C99.7888 129.938 100.185 128.905 100.163 127.839Z" fill="white"/>
<path opacity="0.55" d="M119.552 152.234C120.242 153.507 121.295 154.547 122.576 155.222C123.857 155.897 125.31 156.177 126.75 156.026C128.19 155.876 129.554 155.301 130.667 154.375C131.781 153.449 132.595 152.214 133.006 150.826C133.418 149.437 133.408 147.958 132.978 146.575C132.549 145.192 131.719 143.967 130.593 143.056C129.467 142.145 128.097 141.588 126.655 141.457C125.212 141.325 123.763 141.624 122.491 142.315C121.646 142.773 120.9 143.392 120.294 144.139C119.689 144.885 119.237 145.744 118.964 146.665C118.691 147.586 118.603 148.553 118.704 149.508C118.804 150.464 119.093 151.39 119.552 152.234Z" fill="white"/>
<path opacity="0.55" d="M103.047 143.282C103.354 144.494 104.014 145.589 104.943 146.427C105.872 147.265 107.029 147.809 108.267 147.989C109.505 148.17 110.768 147.979 111.898 147.442C113.028 146.905 113.973 146.044 114.614 144.97C115.255 143.895 115.563 142.655 115.499 141.405C115.435 140.156 115.002 138.953 114.255 137.95C113.507 136.947 112.479 136.187 111.301 135.768C110.122 135.349 108.845 135.288 107.632 135.594C106.826 135.798 106.068 136.158 105.402 136.654C104.735 137.151 104.172 137.774 103.747 138.488C103.321 139.202 103.04 139.993 102.92 140.815C102.8 141.638 102.843 142.476 103.047 143.282Z" fill="white"/>
</g>
<g opacity="0.7">
<path opacity="0.7" d="M215.678 97.3204C216.116 98.0028 216.748 98.5393 217.492 98.8613C218.237 99.1834 219.06 99.2763 219.857 99.1284C220.655 98.9805 221.39 98.5984 221.97 98.0308C222.549 97.4633 222.946 96.736 223.11 95.9418C223.274 95.1476 223.198 94.3224 222.892 93.5716C222.585 92.8208 222.062 92.1784 221.388 91.7263C220.715 91.2742 219.922 91.033 219.111 91.0333C218.3 91.0337 217.508 91.2756 216.835 91.7283C215.949 92.3241 215.332 93.2431 215.116 94.2884C214.9 95.3337 215.102 96.4221 215.678 97.3204Z" fill="white"/>
<path opacity="0.7" d="M186.249 85.9598C184.997 85.232 183.558 84.8918 182.112 84.9823C180.667 85.0729 179.281 85.5901 178.13 86.4685C176.979 87.3469 176.114 88.547 175.645 89.917C175.176 91.2871 175.123 92.7654 175.495 94.1651C175.866 95.5648 176.644 96.8229 177.731 97.7802C178.817 98.7376 180.163 99.3511 181.599 99.5433C183.034 99.7354 184.494 99.4976 185.794 98.8598C187.094 98.222 188.176 97.2129 188.902 95.9602C189.875 94.2819 190.143 92.286 189.645 90.4109C189.148 88.5358 187.926 86.9349 186.249 85.9598Z" fill="white"/>
<path opacity="0.7" d="M205.284 84.1498C204.389 83.2753 203.256 82.6855 202.026 82.4551C200.797 82.2248 199.526 82.3641 198.376 82.8554C197.225 83.3468 196.247 84.1682 195.563 85.2157C194.879 86.2633 194.521 87.4901 194.535 88.741C194.548 89.9919 194.932 91.2108 195.638 92.2436C196.343 93.2764 197.34 94.0767 198.5 94.5435C199.661 95.0103 200.934 95.1225 202.158 94.866C203.383 94.6095 204.503 93.9958 205.379 93.1025C205.961 92.5087 206.42 91.8059 206.731 91.0344C207.041 90.2629 207.196 89.4379 207.187 88.6064C207.178 87.7749 207.006 86.9533 206.679 86.1886C206.353 85.4239 205.878 84.7311 205.284 84.1498Z" fill="white"/>
</g>
<g opacity="0.7">
<path opacity="0.7" d="M108.381 158.765C107.967 158.068 107.356 157.509 106.623 157.161C105.891 156.812 105.072 156.69 104.27 156.809C103.468 156.928 102.72 157.283 102.121 157.829C101.522 158.375 101.098 159.088 100.905 159.875C100.712 160.662 100.758 161.489 101.037 162.251C101.316 163.012 101.815 163.673 102.471 164.149C103.127 164.626 103.91 164.896 104.72 164.926C105.53 164.955 106.331 164.743 107.02 164.316C107.929 163.753 108.58 162.856 108.834 161.818C109.089 160.78 108.926 159.684 108.381 158.765Z" fill="white"/>
<path opacity="0.7" d="M137.361 170.194C138.595 170.951 140.026 171.326 141.473 171.27C142.919 171.214 144.317 170.731 145.489 169.881C146.661 169.031 147.554 167.853 148.057 166.495C148.559 165.137 148.647 163.661 148.31 162.253C147.973 160.845 147.227 159.568 146.164 158.584C145.102 157.601 143.772 156.954 142.342 156.727C140.913 156.499 139.448 156.7 138.132 157.305C136.817 157.91 135.711 158.892 134.953 160.125C134.45 160.945 134.113 161.855 133.962 162.804C133.811 163.754 133.848 164.723 134.072 165.658C134.296 166.593 134.701 167.475 135.266 168.253C135.83 169.031 136.542 169.691 137.361 170.194Z" fill="white"/>
<path opacity="0.7" d="M118.776 170.629C119.649 171.525 120.768 172.142 121.992 172.402C123.215 172.662 124.488 172.554 125.65 172.09C126.812 171.627 127.811 170.83 128.52 169.799C129.229 168.769 129.617 167.551 129.634 166.3C129.651 165.049 129.297 163.821 128.616 162.772C127.936 161.722 126.959 160.898 125.81 160.403C124.661 159.908 123.392 159.765 122.161 159.991C120.931 160.218 119.796 160.804 118.898 161.676C117.697 162.848 117.01 164.449 116.987 166.127C116.964 167.805 117.607 169.424 118.776 170.629Z" fill="white"/>
</g>
<g opacity="0.85">
<path opacity="0.85" d="M162.165 79.1023C160.718 79.0624 159.291 79.4528 158.065 80.224C156.839 80.9953 155.87 82.1127 155.28 83.435C154.689 84.7573 154.504 86.225 154.748 87.6524C154.992 89.0798 155.654 90.4028 156.65 91.454C157.646 92.5053 158.931 93.2374 160.343 93.5579C161.756 93.8784 163.231 93.7729 164.583 93.2546C165.936 92.7363 167.104 91.8287 167.94 90.6464C168.776 89.4641 169.243 88.0603 169.281 86.6127C169.332 84.6735 168.612 82.7932 167.277 81.3849C165.943 79.9767 164.104 79.1557 162.165 79.1023Z" fill="white"/>
<path opacity="0.85" d="M193.078 74.5578C193.798 74.9273 194.613 75.0741 195.417 74.9795C196.221 74.885 196.979 74.5533 197.594 74.0268C198.209 73.5002 198.654 72.8026 198.872 72.0226C199.089 71.2426 199.07 70.4155 198.816 69.6465C198.563 68.8775 198.086 68.2014 197.447 67.7041C196.808 67.2068 196.035 66.9109 195.227 66.854C194.419 66.797 193.613 66.9817 192.91 67.3843C192.208 67.787 191.641 68.3896 191.282 69.1154C190.806 70.0766 190.728 71.1864 191.064 72.2048C191.4 73.2232 192.123 74.0685 193.078 74.5578Z" fill="white"/>
<path opacity="0.85" d="M177.744 68.2988C176.531 67.9909 175.255 68.0492 174.076 68.4665C172.897 68.8837 171.868 69.6411 171.119 70.6429C170.37 71.6448 169.935 72.8461 169.868 74.0952C169.802 75.3442 170.107 76.5849 170.746 77.6605C171.384 78.7361 172.327 79.5982 173.456 80.1381C174.584 80.6779 175.847 80.8712 177.085 80.6935C178.323 80.5157 179.481 79.975 180.412 79.1396C181.343 78.3042 182.005 77.2116 182.315 75.9998C182.522 75.194 182.567 74.3553 182.449 73.532C182.331 72.7086 182.051 71.9166 181.626 71.2013C181.202 70.486 180.64 69.8615 179.974 69.3634C179.308 68.8654 178.55 68.5036 177.744 68.2988Z" fill="white"/>
</g>
<g opacity="0.85">
<path opacity="0.85" d="M161.961 176.494C163.409 176.497 164.826 176.07 166.031 175.267C167.237 174.464 168.177 173.322 168.733 171.985C169.289 170.647 169.436 169.175 169.155 167.754C168.874 166.333 168.178 165.028 167.155 164.003C166.132 162.978 164.828 162.279 163.407 161.996C161.987 161.712 160.515 161.856 159.176 162.41C157.838 162.964 156.694 163.902 155.889 165.106C155.084 166.31 154.654 167.726 154.654 169.174C154.653 170.135 154.84 171.086 155.207 171.974C155.573 172.862 156.111 173.669 156.789 174.349C157.468 175.029 158.274 175.568 159.162 175.937C160.049 176.305 161 176.494 161.961 176.494Z" fill="white"/>
<path opacity="0.85" d="M130.954 181.432C130.243 181.038 129.431 180.865 128.622 180.935C127.812 181.005 127.042 181.315 126.41 181.825C125.778 182.336 125.312 183.023 125.073 183.799C124.833 184.576 124.831 185.406 125.066 186.184C125.302 186.961 125.764 187.651 126.393 188.165C127.023 188.678 127.791 188.992 128.6 189.066C129.409 189.141 130.222 188.972 130.935 188.581C131.647 188.191 132.227 187.597 132.6 186.875C133.087 185.932 133.188 184.836 132.88 183.82C132.573 182.804 131.882 181.947 130.954 181.432Z" fill="white"/>
<path opacity="0.85" d="M146.07 186.44C147.277 186.784 148.559 186.761 149.753 186.376C150.948 185.991 152.001 185.26 152.78 184.275C153.559 183.291 154.028 182.098 154.127 180.846C154.227 179.595 153.954 178.343 153.341 177.247C152.728 176.152 151.804 175.263 150.686 174.693C149.568 174.123 148.306 173.898 147.059 174.046C145.813 174.194 144.639 174.709 143.685 175.525C142.731 176.341 142.041 177.421 141.702 178.63C141.249 180.245 141.455 181.973 142.273 183.437C143.092 184.9 144.457 185.98 146.07 186.44Z" fill="white"/>
</g>
</svg>
