<svg width="323" height="261" viewBox="0 0 323 261" fill="none" xmlns="http://www.w3.org/2000/svg">
<rect width="323" height="261" fill="url(#paint0_linear_1040_1288)"/>
<path d="M157.743 189.84C156.932 189.875 156.149 190.15 155.495 190.632C154.841 191.113 154.346 191.779 154.073 192.543C153.799 193.308 153.76 194.137 153.96 194.924C154.16 195.711 154.59 196.42 155.195 196.961C155.8 197.502 156.553 197.851 157.357 197.962C158.162 198.073 158.981 197.942 159.71 197.585C160.439 197.228 161.046 196.662 161.451 195.958C161.857 195.255 162.044 194.447 161.988 193.637C161.914 192.575 161.429 191.585 160.637 190.876C159.844 190.167 158.805 189.795 157.743 189.84Z" fill="white"/>
<path d="M182.22 170.003C183.477 169.285 184.493 168.209 185.139 166.914C185.785 165.618 186.032 164.16 185.849 162.723C185.666 161.287 185.061 159.937 184.111 158.845C183.162 157.752 181.909 156.966 180.512 156.585C179.115 156.205 177.637 156.247 176.264 156.707C174.891 157.166 173.685 158.023 172.799 159.168C171.913 160.313 171.386 161.695 171.285 163.139C171.185 164.583 171.515 166.025 172.233 167.282C173.197 168.967 174.79 170.2 176.663 170.71C178.536 171.221 180.535 170.966 182.22 170.003Z" fill="white"/>
<path d="M173.879 186.861C175.089 186.526 176.172 185.84 176.991 184.889C177.81 183.938 178.328 182.766 178.481 181.52C178.633 180.274 178.412 179.011 177.846 177.891C177.28 176.771 176.394 175.844 175.301 175.228C174.207 174.611 172.956 174.333 171.704 174.429C170.453 174.525 169.258 174.989 168.271 175.765C167.284 176.54 166.549 177.59 166.16 178.784C165.77 179.977 165.744 181.258 166.083 182.467C166.537 184.081 167.612 185.451 169.074 186.274C170.535 187.098 172.263 187.309 173.879 186.861Z" fill="white"/>
<path d="M158.097 66.1627C158.908 66.1457 159.695 65.8875 160.359 65.421C161.023 64.9544 161.532 64.3008 161.823 63.5434C162.113 62.7861 162.171 61.9593 161.99 61.1687C161.808 60.3781 161.395 59.6595 160.804 59.1046C160.212 58.5497 159.469 58.1836 158.668 58.0531C157.867 57.9227 157.046 58.0337 156.309 58.3721C155.572 58.7104 154.952 59.2607 154.529 59.9528C154.106 60.6449 153.899 61.4474 153.933 62.2578C153.979 63.3236 154.441 64.3291 155.219 65.059C155.997 65.7888 157.03 66.185 158.097 66.1627Z" fill="white"/>
<path d="M133.701 85.5509C132.431 86.2443 131.396 87.2984 130.725 88.58C130.054 89.8616 129.777 91.3133 129.931 92.7517C130.084 94.1902 130.661 95.5509 131.587 96.6621C132.513 97.7732 133.748 98.585 135.135 98.995C136.523 99.4049 138 99.3946 139.382 98.9653C140.763 98.536 141.987 97.7071 142.897 96.5831C143.808 95.4591 144.365 94.0904 144.498 92.65C144.632 91.2095 144.335 89.7619 143.647 88.4898C143.188 87.6424 142.566 86.894 141.818 86.2875C141.069 85.6809 140.208 85.2281 139.284 84.9551C138.36 84.682 137.391 84.5941 136.433 84.6964C135.475 84.7986 134.546 85.089 133.701 85.5509Z" fill="white"/>
<path d="M142.287 68.7477C141.074 69.0548 139.979 69.7146 139.141 70.6437C138.303 71.5727 137.76 72.7293 137.579 73.9673C137.398 75.2053 137.589 76.4691 138.126 77.5989C138.664 78.7286 139.524 79.6737 140.599 80.3146C141.673 80.9555 142.913 81.2634 144.163 81.1995C145.412 81.1355 146.615 80.7025 147.618 79.9553C148.622 79.2081 149.381 78.1801 149.8 77.0014C150.22 75.8226 150.28 74.546 149.974 73.3329C149.771 72.5269 149.41 71.7689 148.914 71.1022C148.417 70.4355 147.794 69.8732 147.08 69.4473C146.366 69.0215 145.576 68.7406 144.753 68.6205C143.931 68.5005 143.092 68.5437 142.287 68.7477Z" fill="white"/>
<path d="M188.669 181.677C187.987 182.115 187.451 182.747 187.129 183.491C186.807 184.236 186.714 185.059 186.861 185.856C187.009 186.654 187.391 187.389 187.959 187.968C188.527 188.548 189.254 188.945 190.048 189.109C190.842 189.273 191.667 189.197 192.418 188.891C193.169 188.584 193.811 188.061 194.264 187.387C194.716 186.714 194.957 185.921 194.957 185.11C194.956 184.299 194.714 183.507 194.262 182.834C193.666 181.948 192.747 181.331 191.701 181.115C190.656 180.899 189.568 181.1 188.669 181.677Z" fill="white"/>
<path d="M199.99 152.248C200.718 150.996 201.058 149.556 200.967 148.111C200.877 146.666 200.36 145.28 199.481 144.128C198.603 142.977 197.403 142.112 196.033 141.643C194.663 141.174 193.184 141.122 191.785 141.493C190.385 141.865 189.127 142.643 188.17 143.729C187.212 144.816 186.599 146.162 186.407 147.597C186.214 149.032 186.452 150.493 187.09 151.793C187.728 153.093 188.737 154.174 189.99 154.901C191.668 155.874 193.664 156.141 195.539 155.644C197.414 155.146 199.015 153.925 199.99 152.248Z" fill="white"/>
<path d="M201.378 170.942C202.253 170.048 202.842 168.914 203.073 167.685C203.303 166.455 203.164 165.185 202.672 164.034C202.181 162.884 201.36 161.905 200.312 161.221C199.264 160.538 198.038 160.18 196.787 160.193C195.536 160.206 194.317 160.59 193.284 161.296C192.251 162.002 191.451 162.998 190.984 164.159C190.518 165.319 190.405 166.592 190.662 167.817C190.918 169.041 191.532 170.162 192.425 171.038C193.019 171.62 193.722 172.079 194.493 172.389C195.265 172.7 196.09 172.855 196.921 172.846C197.753 172.837 198.574 172.664 199.339 172.338C200.104 172.011 200.797 171.537 201.378 170.942Z" fill="white"/>
<path d="M127.184 74.3808C127.88 73.9657 128.436 73.3532 128.782 72.621C129.129 71.8888 129.249 71.0702 129.129 70.2693C129.009 69.4683 128.653 68.7213 128.107 68.1232C127.56 67.5252 126.849 67.1031 126.062 66.9107C125.275 66.7184 124.449 66.7644 123.689 67.043C122.928 67.3216 122.268 67.8201 121.791 68.4752C121.315 69.1303 121.044 69.9122 121.014 70.7216C120.983 71.5309 121.194 72.3311 121.619 73.0202C122.183 73.9322 123.082 74.5861 124.123 74.8407C125.164 75.0953 126.264 74.9301 127.184 74.3808Z" fill="white"/>
<path d="M115.755 103.362C114.996 104.595 114.62 106.027 114.675 107.474C114.73 108.922 115.213 110.32 116.063 111.493C116.913 112.666 118.092 113.56 119.451 114.063C120.809 114.565 122.286 114.653 123.695 114.316C125.104 113.979 126.381 113.231 127.364 112.167C128.348 111.104 128.993 109.773 129.22 108.342C129.446 106.911 129.243 105.445 128.636 104.13C128.029 102.815 127.046 101.709 125.81 100.953C124.992 100.451 124.083 100.114 123.134 99.9632C122.186 99.8122 121.217 99.8496 120.284 100.073C119.35 100.297 118.469 100.702 117.692 101.267C116.915 101.831 116.257 102.543 115.755 103.362Z" fill="white"/>
<path d="M114.898 84.4358C114.002 85.3088 113.385 86.4278 113.125 87.6514C112.865 88.875 112.973 90.1483 113.436 91.3103C113.899 92.4723 114.697 93.4708 115.727 94.1798C116.758 94.8888 117.976 95.2763 119.227 95.2934C120.477 95.3105 121.705 94.9565 122.755 94.2759C123.804 93.5954 124.629 92.619 125.124 91.4701C125.619 90.3212 125.762 89.0514 125.535 87.8212C125.309 86.5909 124.722 85.4554 123.851 84.5583C122.678 83.3571 121.078 82.6697 119.4 82.6467C117.721 82.6238 116.102 83.2671 114.898 84.4358Z" fill="white"/>
<path d="M211.391 159.078C211.022 159.798 210.875 160.613 210.969 161.417C211.064 162.221 211.396 162.979 211.922 163.594C212.449 164.21 213.146 164.654 213.926 164.872C214.706 165.09 215.533 165.07 216.302 164.816C217.071 164.563 217.747 164.086 218.245 163.447C218.742 162.808 219.038 162.035 219.095 161.227C219.152 160.42 218.967 159.613 218.564 158.911C218.162 158.208 217.559 157.641 216.833 157.282C215.872 156.806 214.762 156.728 213.744 157.064C212.726 157.4 211.88 158.124 211.391 159.078Z" fill="white"/>
<path d="M206.492 127.988C206.498 126.539 206.073 125.121 205.272 123.914C204.471 122.707 203.33 121.764 201.993 121.206C200.656 120.648 199.183 120.499 197.761 120.778C196.339 121.058 195.033 121.753 194.006 122.775C192.98 123.798 192.28 125.102 191.995 126.523C191.711 127.943 191.854 129.417 192.407 130.756C192.96 132.095 193.899 133.24 195.103 134.045C196.307 134.851 197.724 135.281 199.172 135.281C201.109 135.281 202.967 134.513 204.339 133.147C205.711 131.78 206.485 129.925 206.492 127.988Z" fill="white"/>
<path d="M217.227 143.403C217.535 142.191 217.477 140.915 217.06 139.735C216.643 138.556 215.885 137.527 214.883 136.778C213.881 136.029 212.68 135.594 211.431 135.528C210.182 135.461 208.941 135.767 207.866 136.405C206.79 137.044 205.928 137.987 205.388 139.115C204.848 140.243 204.655 141.506 204.833 142.745C205.01 143.983 205.551 145.14 206.387 146.071C207.222 147.002 208.315 147.665 209.526 147.975C210.332 148.181 211.171 148.226 211.994 148.108C212.818 147.99 213.61 147.711 214.325 147.286C215.04 146.861 215.665 146.3 216.163 145.634C216.661 144.967 217.023 144.209 217.227 143.403Z" fill="white"/>
<path d="M104.503 96.9528C104.897 96.2424 105.07 95.4304 105 94.621C104.93 93.8115 104.62 93.0414 104.11 92.4091C103.6 91.7768 102.912 91.3112 102.136 91.0719C101.359 90.8325 100.529 90.8303 99.7515 91.0656C98.9738 91.3008 98.284 91.7628 97.7705 92.3924C97.2569 93.022 96.9429 93.7905 96.8686 94.5995C96.7944 95.4086 96.9633 96.2214 97.3537 96.934C97.7441 97.6465 98.3383 98.2263 99.0602 98.5991C100.003 99.0863 101.099 99.1868 102.115 98.8795C103.131 98.5721 103.988 97.881 104.503 96.9528Z" fill="white"/>
<path d="M109.102 127.77C109.063 129.218 109.453 130.645 110.224 131.871C110.995 133.096 112.113 134.066 113.435 134.656C114.757 135.246 116.225 135.431 117.653 135.187C119.08 134.943 120.403 134.282 121.454 133.286C122.505 132.29 123.238 131.004 123.558 129.592C123.879 128.18 123.773 126.704 123.255 125.352C122.736 124 121.829 122.832 120.646 121.996C119.464 121.16 118.06 120.693 116.613 120.655C114.674 120.603 112.793 121.324 111.385 122.658C109.977 123.993 109.156 125.831 109.102 127.77Z" fill="white"/>
<path d="M99.0887 111.743C98.7483 112.95 98.7734 114.231 99.1609 115.423C99.5483 116.616 100.281 117.667 101.266 118.443C102.25 119.22 103.443 119.687 104.693 119.785C105.943 119.883 107.195 119.609 108.289 118.996C109.383 118.383 110.271 117.46 110.84 116.343C111.41 115.225 111.635 113.964 111.487 112.719C111.34 111.474 110.827 110.3 110.012 109.347C109.198 108.393 108.119 107.702 106.912 107.362C106.111 107.134 105.272 107.067 104.445 107.164C103.617 107.261 102.817 107.52 102.09 107.927C101.363 108.334 100.724 108.881 100.209 109.536C99.6938 110.191 99.3131 110.941 99.0887 111.743Z" fill="white"/>
<g opacity="0.55">
<path opacity="0.55" d="M219.84 128.206C219.877 129.016 220.155 129.797 220.638 130.449C221.121 131.101 221.787 131.594 222.552 131.865C223.317 132.137 224.145 132.174 224.931 131.973C225.717 131.772 226.425 131.341 226.965 130.735C227.505 130.129 227.852 129.376 227.962 128.573C228.072 127.769 227.94 126.95 227.583 126.222C227.225 125.493 226.659 124.888 225.956 124.483C225.253 124.077 224.446 123.891 223.636 123.947C222.573 124.02 221.58 124.507 220.871 125.303C220.161 126.099 219.791 127.141 219.84 128.206Z" fill="white"/>
<path opacity="0.55" d="M200.003 103.715C199.285 102.458 198.21 101.442 196.914 100.796C195.618 100.15 194.16 99.9031 192.724 100.086C191.287 100.269 189.938 100.873 188.845 101.823C187.753 102.773 186.966 104.026 186.586 105.423C186.205 106.82 186.247 108.298 186.707 109.671C187.166 111.044 188.023 112.25 189.168 113.136C190.313 114.022 191.695 114.549 193.139 114.65C194.583 114.75 196.025 114.42 197.282 113.702C198.967 112.738 200.2 111.145 200.711 109.272C201.221 107.399 200.966 105.4 200.003 103.715Z" fill="white"/>
<path opacity="0.55" d="M217.201 111.647C216.866 110.437 216.179 109.355 215.228 108.535C214.278 107.716 213.105 107.198 211.859 107.046C210.613 106.894 209.35 107.114 208.23 107.681C207.11 108.247 206.183 109.133 205.567 110.226C204.951 111.319 204.673 112.571 204.768 113.822C204.864 115.073 205.329 116.268 206.104 117.255C206.879 118.242 207.93 118.977 209.123 119.367C210.316 119.756 211.598 119.783 212.806 119.443C214.421 118.989 215.79 117.914 216.614 116.453C217.437 114.992 217.648 113.263 217.201 111.647Z" fill="white"/>
</g>
<g opacity="0.55">
<path opacity="0.55" d="M96.1627 127.839C96.1457 127.028 95.8875 126.24 95.4209 125.576C94.9544 124.913 94.3008 124.403 93.5434 124.113C92.786 123.822 91.9593 123.764 91.1687 123.946C90.3781 124.127 89.6595 124.54 89.1046 125.132C88.5497 125.723 88.1836 126.467 88.0531 127.267C87.9227 128.068 88.0337 128.889 88.3721 129.627C88.7104 130.364 89.2607 130.983 89.9528 131.407C90.6449 131.83 91.4474 132.037 92.2578 132.002C93.3236 131.956 94.3291 131.494 95.059 130.716C95.7888 129.938 96.185 128.905 96.1627 127.839Z" fill="white"/>
<path opacity="0.55" d="M115.552 152.234C116.242 153.507 117.295 154.547 118.576 155.222C119.857 155.897 121.31 156.177 122.75 156.026C124.19 155.876 125.554 155.301 126.667 154.375C127.781 153.449 128.595 152.214 129.006 150.826C129.418 149.437 129.408 147.958 128.978 146.575C128.549 145.192 127.719 143.967 126.593 143.056C125.467 142.145 124.097 141.588 122.655 141.457C121.212 141.325 119.763 141.624 118.491 142.315C117.646 142.773 116.9 143.392 116.294 144.139C115.689 144.885 115.237 145.744 114.964 146.665C114.691 147.586 114.603 148.553 114.704 149.508C114.804 150.464 115.093 151.39 115.552 152.234Z" fill="white"/>
<path opacity="0.55" d="M99.0471 143.282C99.3541 144.494 100.014 145.589 100.943 146.427C101.872 147.265 103.029 147.809 104.267 147.989C105.505 148.17 106.768 147.979 107.898 147.442C109.028 146.905 109.973 146.044 110.614 144.97C111.255 143.895 111.563 142.655 111.499 141.405C111.435 140.156 111.002 138.953 110.255 137.95C109.507 136.947 108.479 136.187 107.301 135.768C106.122 135.349 104.845 135.288 103.632 135.594C102.826 135.798 102.068 136.158 101.402 136.654C100.735 137.151 100.172 137.774 99.7467 138.488C99.3208 139.202 99.0399 139.993 98.9198 140.815C98.7998 141.638 98.843 142.476 99.0471 143.282Z" fill="white"/>
</g>
<g opacity="0.7">
<path opacity="0.7" d="M211.678 97.3204C212.116 98.0028 212.748 98.5393 213.492 98.8613C214.237 99.1834 215.06 99.2763 215.857 99.1284C216.655 98.9805 217.39 98.5984 217.97 98.0308C218.549 97.4633 218.946 96.736 219.11 95.9418C219.274 95.1476 219.198 94.3224 218.892 93.5716C218.585 92.8208 218.062 92.1784 217.388 91.7263C216.715 91.2742 215.922 91.033 215.111 91.0333C214.3 91.0337 213.508 91.2756 212.835 91.7283C211.949 92.3241 211.332 93.2431 211.116 94.2884C210.9 95.3337 211.102 96.4221 211.678 97.3204Z" fill="white"/>
<path opacity="0.7" d="M182.249 85.9598C180.997 85.232 179.558 84.8918 178.112 84.9823C176.667 85.0729 175.281 85.5901 174.13 86.4685C172.979 87.3469 172.114 88.547 171.645 89.917C171.176 91.2871 171.123 92.7654 171.495 94.1651C171.866 95.5648 172.644 96.8229 173.731 97.7802C174.817 98.7376 176.163 99.3511 177.599 99.5433C179.034 99.7354 180.494 99.4976 181.794 98.8598C183.094 98.222 184.176 97.2129 184.902 95.9602C185.875 94.2819 186.143 92.286 185.645 90.4109C185.148 88.5358 183.926 86.9349 182.249 85.9598Z" fill="white"/>
<path opacity="0.7" d="M201.284 84.1498C200.389 83.2753 199.256 82.6855 198.026 82.4551C196.797 82.2248 195.526 82.3641 194.376 82.8554C193.225 83.3468 192.247 84.1682 191.563 85.2157C190.879 86.2633 190.521 87.4901 190.535 88.741C190.548 89.9919 190.932 91.2108 191.638 92.2436C192.343 93.2764 193.34 94.0767 194.5 94.5435C195.661 95.0103 196.934 95.1225 198.158 94.866C199.383 94.6095 200.503 93.9958 201.379 93.1025C201.961 92.5087 202.42 91.8059 202.731 91.0344C203.041 90.2629 203.196 89.4379 203.187 88.6064C203.178 87.7749 203.006 86.9533 202.679 86.1886C202.353 85.4239 201.878 84.7311 201.284 84.1498Z" fill="white"/>
</g>
<g opacity="0.7">
<path opacity="0.7" d="M104.381 158.765C103.967 158.068 103.356 157.509 102.623 157.161C101.891 156.812 101.072 156.69 100.27 156.809C99.4684 156.928 98.7201 157.283 98.1208 157.829C97.5215 158.375 97.0984 159.088 96.9054 159.875C96.7124 160.662 96.7583 161.489 97.0372 162.251C97.316 163.012 97.8153 163.673 98.4712 164.149C99.1272 164.626 99.9102 164.896 100.72 164.926C101.53 164.955 102.331 164.743 103.02 164.316C103.929 163.753 104.58 162.856 104.834 161.818C105.089 160.78 104.926 159.684 104.381 158.765Z" fill="white"/>
<path opacity="0.7" d="M133.361 170.194C134.595 170.951 136.026 171.326 137.473 171.27C138.919 171.214 140.317 170.731 141.489 169.881C142.661 169.031 143.554 167.853 144.057 166.495C144.559 165.137 144.647 163.661 144.31 162.253C143.973 160.845 143.227 159.568 142.164 158.584C141.102 157.601 139.772 156.954 138.342 156.727C136.913 156.499 135.448 156.7 134.132 157.305C132.817 157.91 131.711 158.892 130.953 160.125C130.45 160.945 130.113 161.855 129.962 162.804C129.811 163.754 129.848 164.723 130.072 165.658C130.296 166.593 130.701 167.475 131.266 168.253C131.83 169.031 132.542 169.691 133.361 170.194Z" fill="white"/>
<path opacity="0.7" d="M114.776 170.629C115.649 171.525 116.768 172.142 117.992 172.402C119.215 172.662 120.488 172.554 121.65 172.09C122.812 171.627 123.811 170.83 124.52 169.799C125.229 168.769 125.617 167.551 125.634 166.3C125.651 165.049 125.297 163.821 124.616 162.772C123.936 161.722 122.959 160.898 121.81 160.403C120.661 159.908 119.392 159.765 118.161 159.991C116.931 160.218 115.796 160.804 114.898 161.676C113.697 162.848 113.01 164.449 112.987 166.127C112.964 167.805 113.607 169.424 114.776 170.629Z" fill="white"/>
</g>
<g opacity="0.85">
<path opacity="0.85" d="M158.165 79.1023C156.718 79.0624 155.291 79.4528 154.065 80.224C152.839 80.9953 151.87 82.1127 151.28 83.435C150.689 84.7573 150.504 86.225 150.748 87.6524C150.992 89.0798 151.654 90.4028 152.65 91.454C153.646 92.5053 154.931 93.2374 156.343 93.5579C157.756 93.8784 159.231 93.7729 160.583 93.2546C161.936 92.7363 163.104 91.8287 163.94 90.6464C164.776 89.4641 165.243 88.0603 165.281 86.6127C165.332 84.6735 164.612 82.7932 163.277 81.3849C161.943 79.9767 160.104 79.1557 158.165 79.1023Z" fill="white"/>
<path opacity="0.85" d="M189.078 74.5578C189.798 74.9273 190.613 75.0741 191.417 74.9795C192.221 74.885 192.979 74.5533 193.594 74.0268C194.209 73.5002 194.654 72.8026 194.872 72.0226C195.089 71.2426 195.07 70.4155 194.816 69.6465C194.563 68.8775 194.086 68.2014 193.447 67.7041C192.808 67.2068 192.035 66.9109 191.227 66.854C190.419 66.797 189.613 66.9817 188.91 67.3843C188.208 67.787 187.641 68.3896 187.282 69.1154C186.806 70.0766 186.728 71.1864 187.064 72.2048C187.4 73.2232 188.123 74.0685 189.078 74.5578Z" fill="white"/>
<path opacity="0.85" d="M173.744 68.2988C172.531 67.9909 171.255 68.0492 170.076 68.4665C168.897 68.8837 167.868 69.6411 167.119 70.6429C166.37 71.6448 165.935 72.8461 165.868 74.0952C165.802 75.3442 166.107 76.5849 166.746 77.6605C167.384 78.7361 168.327 79.5982 169.456 80.1381C170.584 80.6779 171.847 80.8712 173.085 80.6935C174.323 80.5157 175.481 79.975 176.412 79.1396C177.343 78.3042 178.005 77.2116 178.315 75.9998C178.522 75.194 178.567 74.3553 178.449 73.532C178.331 72.7086 178.051 71.9166 177.626 71.2013C177.202 70.486 176.64 69.8615 175.974 69.3634C175.308 68.8654 174.55 68.5036 173.744 68.2988Z" fill="white"/>
</g>
<g opacity="0.85">
<path opacity="0.85" d="M157.961 176.494C159.409 176.497 160.826 176.07 162.031 175.267C163.237 174.464 164.177 173.322 164.733 171.985C165.289 170.647 165.436 169.175 165.155 167.754C164.874 166.333 164.178 165.028 163.155 164.003C162.132 162.978 160.828 162.279 159.407 161.996C157.987 161.712 156.515 161.856 155.176 162.41C153.838 162.964 152.694 163.902 151.889 165.106C151.084 166.31 150.654 167.726 150.654 169.174C150.653 170.135 150.84 171.086 151.207 171.974C151.573 172.862 152.111 173.669 152.789 174.349C153.468 175.029 154.274 175.568 155.162 175.937C156.049 176.305 157 176.494 157.961 176.494Z" fill="white"/>
<path opacity="0.85" d="M126.954 181.432C126.243 181.038 125.431 180.865 124.622 180.935C123.812 181.005 123.042 181.315 122.41 181.825C121.778 182.336 121.312 183.023 121.073 183.799C120.833 184.576 120.831 185.406 121.066 186.184C121.302 186.961 121.764 187.651 122.393 188.165C123.023 188.678 123.791 188.992 124.6 189.066C125.409 189.141 126.222 188.972 126.935 188.581C127.647 188.191 128.227 187.597 128.6 186.875C129.087 185.932 129.188 184.836 128.88 183.82C128.573 182.804 127.882 181.947 126.954 181.432Z" fill="white"/>
<path opacity="0.85" d="M142.07 186.44C143.277 186.784 144.559 186.761 145.753 186.376C146.948 185.991 148.001 185.26 148.78 184.275C149.559 183.291 150.028 182.098 150.127 180.846C150.227 179.595 149.954 178.343 149.341 177.247C148.728 176.152 147.804 175.263 146.686 174.693C145.568 174.123 144.306 173.898 143.059 174.046C141.813 174.194 140.639 174.709 139.685 175.525C138.731 176.341 138.041 177.421 137.702 178.63C137.249 180.245 137.455 181.973 138.273 183.437C139.092 184.9 140.457 185.98 142.07 186.44Z" fill="white"/>
</g>
<defs>
<linearGradient id="paint0_linear_1040_1288" x1="0" y1="130.5" x2="323" y2="130.5" gradientUnits="userSpaceOnUse">
<stop stop-color="#FF8300"/>
<stop offset="1" stop-color="#E74024"/>
</linearGradient>
</defs>
</svg>
